Mekorot-Rashi-Bold.ufo
<glyph name="exclam" format="2">
  <advance width="308"/>
  <unicode hex="0021"/>
  <outline>
    <contour>
      <point x="245.7" y="708.4" type="curve" smooth="yes"/>
      <point x="253.4" y="693"/>
      <point x="254.8" y="676.9"/>
      <point x="254.8" y="661.5" type="curve" smooth="yes"/>
      <point x="254.8" y="655.9"/>
      <point x="254.1" y="650.3"/>
      <point x="254.1" y="644.7" type="curve" smooth="yes"/>
      <point x="252" y="619.5"/>
      <point x="246.4" y="595.7"/>
      <point x="243.6" y="574" type="curve" smooth="yes"/>
      <point x="232.4" y="485.1"/>
      <point x="218.4" y="396.9"/>
      <point x="204.4" y="308.7" type="curve" smooth="yes"/>
      <point x="198.8" y="277.2"/>
      <point x="196.7" y="242.9"/>
      <point x="188.3" y="209.3" type="curve" smooth="yes"/>
      <point x="185.5" y="196"/>
      <point x="177.1" y="172.9"/>
      <point x="152.6" y="170.1" type="curve" smooth="yes"/>
      <point x="151.9" y="170.1"/>
      <point x="149.8" y="170.1"/>
      <point x="148.4" y="170.1" type="curve" smooth="yes"/>
      <point x="148.4" y="170.1"/>
      <point x="148.4" y="170.1"/>
      <point x="147.7" y="170.1" type="curve" smooth="yes"/>
      <point x="142.8" y="170.1"/>
      <point x="141.4" y="170.1"/>
      <point x="135.8" y="172.2" type="curve" smooth="yes"/>
      <point x="125.3" y="175.7"/>
      <point x="115.5" y="184.8"/>
      <point x="113.4" y="198.1" type="curve" smooth="yes"/>
      <point x="112.7" y="205.1"/>
      <point x="112.7" y="211.4"/>
      <point x="112.7" y="217.7" type="curve" smooth="yes"/>
      <point x="112.7" y="220.5"/>
      <point x="112.7" y="224"/>
      <point x="112.7" y="226.8" type="curve" smooth="yes"/>
      <point x="112.7" y="230.3"/>
      <point x="112.7" y="233.1"/>
      <point x="112" y="236.6" type="curve" smooth="yes"/>
      <point x="110.6" y="264.6"/>
      <point x="107.1" y="293.3"/>
      <point x="103.6" y="322" type="curve" smooth="yes"/>
      <point x="95.2002" y="396.2"/>
      <point x="80.5" y="471.1"/>
      <point x="71.4004" y="546.7" type="curve" smooth="yes"/>
      <point x="68.5996" y="568.4"/>
      <point x="66.5" y="590.1"/>
      <point x="64.4004" y="611.8" type="curve" smooth="yes"/>
      <point x="63.7002" y="620.9"/>
      <point x="61.5996" y="627.2"/>
      <point x="61.5996" y="637" type="curve" smooth="yes"/>
      <point x="61.5996" y="639.1"/>
      <point x="61.5996" y="641.2"/>
      <point x="62.2998" y="643.3" type="curve" smooth="yes"/>
      <point x="65.0996" y="672"/>
      <point x="85.4004" y="707"/>
      <point x="106.4" y="723.1" type="curve" smooth="yes"/>
      <point x="125.3" y="737.1"/>
      <point x="151.9" y="742.7"/>
      <point x="163.8" y="744.8" type="curve" smooth="yes"/>
      <point x="168" y="745.5"/>
      <point x="172.2" y="745.5"/>
      <point x="177.1" y="745.5" type="curve" smooth="yes"/>
      <point x="205.8" y="745.5"/>
      <point x="233.8" y="731.5"/>
    </contour>
    <contour>
      <point x="176.4" y="153.3" type="curve" smooth="yes"/>
      <point x="225.4" y="141.4"/>
      <point x="251.3" y="96.5996"/>
      <point x="251.3" y="53.2002" type="curve" smooth="yes"/>
      <point x="251.3" y="18.2002"/>
      <point x="233.8" y="-18.9004"/>
      <point x="198.1" y="-37.0996" type="curve" smooth="yes"/>
      <point x="188.3" y="-42"/>
      <point x="177.8" y="-46.2002"/>
      <point x="166.6" y="-47.5996" type="curve" smooth="yes"/>
      <point x="160.3" y="-48.2998"/>
      <point x="154.7" y="-49"/>
      <point x="149.1" y="-49" type="curve" smooth="yes"/>
      <point x="139.3" y="-49"/>
      <point x="130.2" y="-47.5996"/>
      <point x="120.4" y="-44.7998" type="curve" smooth="yes"/>
      <point x="75.5996" y="-31.5"/>
      <point x="47.5996" y="11.2002"/>
      <point x="47.5996" y="55.2998" type="curve" smooth="yes"/>
      <point x="47.5996" y="65.7998"/>
      <point x="49" y="75.5996"/>
      <point x="52.5" y="86.0996" type="curve" smooth="yes"/>
      <point x="60.2002" y="110.6"/>
      <point x="79.0996" y="129.5"/>
      <point x="95.2002" y="140.7" type="curve" smooth="yes"/>
      <point x="110.6" y="150.5"/>
      <point x="126" y="154.7"/>
      <point x="140" y="156.1" type="curve" smooth="yes"/>
      <point x="143.5" y="156.8"/>
      <point x="147" y="156.8"/>
      <point x="149.8" y="156.8" type="curve" smooth="yes"/>
      <point x="159.6" y="156.8"/>
      <point x="168" y="155.4"/>
    </contour>
  </outline>
</glyph>
<glyph name="numbersign" format="2">
  <advance width="580"/>
  <unicode hex="0023"/>
  <outline>
    <contour>
      <point x="240.1" y="445.9" type="line"/>
      <point x="226.8" y="332.5" type="line"/>
      <point x="343" y="330.4" type="line"/>
      <point x="354.2" y="442.4" type="line"/>
    </contour>
    <contour>
      <point x="185.5" y="772.1" type="line"/>
      <point x="286.3" y="772.1" type="line"/>
      <point x="284.9" y="757.4" type="line" smooth="yes"/>
      <point x="279.3" y="682.5"/>
      <point x="258.3" y="616.7"/>
      <point x="250.6" y="546.7" type="curve"/>
      <point x="366.1" y="546.7" type="line"/>
      <point x="373.8" y="620.2"/>
      <point x="395.5" y="690.2"/>
      <point x="401.1" y="759.5" type="curve" smooth="yes"/>
      <point x="402.5" y="772.1" type="line"/>
      <point x="503.3" y="772.1" type="line"/>
      <point x="483.7" y="648.2" type="line"/>
      <point x="468.3" y="546.7" type="line"/>
      <point x="583.8" y="546.7" type="line"/>
      <point x="583.8" y="448" type="line"/>
      <point x="455.7" y="448" type="line"/>
      <point x="439.6" y="329.7" type="line"/>
      <point x="555.8" y="329.7" type="line"/>
      <point x="555.8" y="231" type="line"/>
      <point x="427" y="231" type="line"/>
      <point x="416.5" y="158.2" type="line"/>
      <point x="391.3" y="-14" type="line"/>
      <point x="291.9" y="-14" type="line"/>
      <point x="301.7" y="58.0996" type="line"/>
      <point x="319.9" y="184.8" type="line"/>
      <point x="326.2" y="231" type="line"/>
      <point x="200.9" y="231" type="line"/>
      <point x="193.9" y="180.6" type="line"/>
      <point x="170.1" y="14" type="line"/>
      <point x="164.5" y="-12.5996" type="line"/>
      <point x="134.4" y="-14" type="line"/>
      <point x="67.2002" y="-14" type="line"/>
      <point x="67.9004" y="0" type="line" smooth="yes"/>
      <point x="67.9004" y="35"/>
      <point x="77" y="70"/>
      <point x="81.9004" y="101.5" type="curve" smooth="yes"/>
      <point x="88.9004" y="144.2"/>
      <point x="93.7998" y="187.6"/>
      <point x="100.8" y="231" type="curve"/>
      <point x="-14" y="231" type="line"/>
      <point x="-14" y="329.7" type="line"/>
      <point x="123.9" y="329.7" type="line"/>
      <point x="137.9" y="448" type="line"/>
      <point x="14" y="448" type="line"/>
      <point x="14" y="546.7" type="line"/>
      <point x="149.8" y="546.7" type="line"/>
      <point x="156.8" y="620.2"/>
      <point x="179.2" y="690.2"/>
      <point x="184.1" y="759.5" type="curve" smooth="yes"/>
    </contour>
  </outline>
</glyph>
<glyph name="dollar" format="2">
  <advance width="557"/>
  <unicode hex="0024"/>
  <outline>
    <contour>
      <point x="148.4" y="559.3" type="line"/>
      <point x="148.4" y="560"/>
      <point x="149.1" y="561.4"/>
      <point x="149.1" y="562.8" type="curve"/>
      <point x="149.8" y="564.9" type="line"/>
      <point x="158.9" y="568.4" type="line"/>
      <point x="156.8" y="561.4" type="line"/>
      <point x="156.1" y="560.7"/>
      <point x="155.4" y="558.6"/>
      <point x="155.4" y="557.2" type="curve"/>
    </contour>
    <contour>
      <point x="322" y="205.1" type="curve"/>
      <point x="325.5" y="203.7" type="line" smooth="yes"/>
      <point x="326.9" y="203"/>
      <point x="328.3" y="201.6"/>
      <point x="327.6" y="199.5" type="curve"/>
      <point x="327.6" y="198.1"/>
      <point x="326.2" y="196.7"/>
      <point x="324.1" y="196.7" type="curve" smooth="yes"/>
      <point x="324.1" y="196.7"/>
      <point x="324.1" y="196.7"/>
      <point x="323.4" y="196.7" type="curve"/>
      <point x="322" y="196" type="line"/>
      <point x="322" y="196" type="line"/>
      <point x="322" y="196" type="line"/>
      <point x="321.3" y="196"/>
      <point x="319.9" y="196"/>
      <point x="318.5" y="196" type="curve" smooth="yes"/>
      <point x="310.1" y="196" type="line"/>
      <point x="317.1" y="203" type="line"/>
      <point x="317.1" y="203.7" type="line"/>
      <point x="317.8" y="203.7"/>
      <point x="318.5" y="204.4"/>
      <point x="319.2" y="205.1" type="curve" smooth="yes"/>
      <point x="332.5" y="218.4" type="line"/>
      <point x="332.5" y="188.3" type="line"/>
      <point x="322" y="196" type="line"/>
      <point x="322" y="196" type="line"/>
      <point x="322" y="196" type="line"/>
      <point x="322" y="196" type="line"/>
      <point x="322" y="196" type="line"/>
      <point x="318.5" y="198.8" type="line"/>
      <point x="318.5" y="198.8" type="line"/>
      <point x="318.5" y="198.8" type="line"/>
      <point x="318.5" y="198.8" type="line"/>
      <point x="317.1" y="200.2"/>
      <point x="316.4" y="201.6"/>
      <point x="317.1" y="203" type="curve"/>
      <point x="317.8" y="203.7" type="line"/>
      <point x="317.8" y="203.7" type="line"/>
      <point x="317.8" y="204.4"/>
      <point x="318.5" y="204.4"/>
      <point x="318.5" y="204.4" type="curve"/>
      <point x="319.2" y="205.1" type="line"/>
      <point x="319.9" y="205.1"/>
      <point x="320.6" y="205.1"/>
      <point x="321.3" y="205.1" type="curve"/>
      <point x="321.3" y="205.1" type="line"/>
      <point x="321.3" y="205.1"/>
      <point x="321.3" y="205.1"/>
    </contour>
    <contour>
      <point x="184.8" y="573.3" type="line" smooth="yes"/>
      <point x="184.8" y="428.4" type="line" smooth="yes"/>
      <point x="184.8" y="423.5"/>
      <point x="181.3" y="410.9"/>
      <point x="168" y="410.9" type="curve"/>
      <point x="168" y="410.9" type="line"/>
      <point x="166.6" y="410.9"/>
      <point x="162.4" y="411.6"/>
      <point x="160.3" y="412.3" type="curve" smooth="yes"/>
      <point x="148.4" y="417.2"/>
      <point x="133.7" y="433.3"/>
      <point x="133.7" y="447.3" type="curve" smooth="yes"/>
      <point x="133.7" y="448.7"/>
      <point x="133.7" y="448.7"/>
      <point x="133" y="449.4" type="curve" smooth="yes"/>
      <point x="130.9" y="453.6"/>
      <point x="123.2" y="459.2"/>
      <point x="119" y="466.9" type="curve" smooth="yes"/>
      <point x="116.2" y="472.5"/>
      <point x="114.8" y="478.1"/>
      <point x="114.8" y="483" type="curve" smooth="yes"/>
      <point x="114.8" y="496.3"/>
      <point x="119" y="506.1"/>
      <point x="119" y="514.5" type="curve" smooth="yes"/>
      <point x="119" y="520.8"/>
      <point x="119.7" y="521.5"/>
      <point x="120.4" y="525" type="curve"/>
      <point x="121.1" y="526.4"/>
      <point x="121.8" y="527.1"/>
      <point x="121.8" y="527.8" type="curve"/>
      <point x="124.6" y="534.8"/>
      <point x="128.1" y="539"/>
      <point x="129.5" y="541.8" type="curve"/>
      <point x="129.5" y="541.8" type="line"/>
      <point x="129.5" y="541.8" type="line"/>
      <point x="129.5" y="541.8" type="line"/>
      <point x="129.5" y="541.8" type="line"/>
      <point x="129.5" y="541.8" type="line"/>
      <point x="129.5" y="541.8" type="line"/>
      <point x="129.5" y="541.8" type="line"/>
      <point x="129.5" y="541.8" type="line"/>
      <point x="129.5" y="541.8"/>
      <point x="129.5" y="541.8"/>
      <point x="129.5" y="542.5" type="curve"/>
      <point x="129.5" y="542.5" type="line"/>
      <point x="129.5" y="542.5" type="line"/>
      <point x="129.5" y="542.5" type="line"/>
      <point x="129.5" y="542.5" type="line"/>
      <point x="129.5" y="542.5" type="line"/>
      <point x="129.5" y="542.5" type="line"/>
      <point x="129.5" y="542.5" type="line"/>
      <point x="129.5" y="542.5" type="line"/>
      <point x="130.2" y="542.5" type="line"/>
      <point x="129.5" y="542.5"/>
      <point x="129.5" y="542.5"/>
      <point x="129.5" y="543.2" type="curve"/>
      <point x="129.5" y="543.2" type="line"/>
      <point x="129.5" y="543.2" type="line"/>
      <point x="129.5" y="543.2" type="line"/>
      <point x="129.5" y="543.2" type="line"/>
      <point x="130.2" y="543.9"/>
      <point x="131.6" y="544.6"/>
      <point x="132.3" y="544.6" type="curve"/>
      <point x="132.3" y="544.6"/>
      <point x="130.9" y="543.2"/>
      <point x="130.2" y="543.2" type="curve"/>
      <point x="133" y="542.5" type="line"/>
      <point x="133" y="542.5"/>
      <point x="132.3" y="542.5"/>
      <point x="131.6" y="542.5" type="curve"/>
      <point x="136.5" y="541.8" type="line"/>
      <point x="136.5" y="541.8"/>
      <point x="136.5" y="541.8"/>
      <point x="136.5" y="541.1" type="curve" smooth="yes"/>
      <point x="136.5" y="539.7"/>
      <point x="134.4" y="537.6"/>
      <point x="133" y="537.6" type="curve" smooth="yes"/>
      <point x="130.9" y="537.6"/>
      <point x="129.5" y="539.7"/>
      <point x="129.5" y="541.1" type="curve" smooth="yes"/>
      <point x="129.5" y="541.8"/>
      <point x="129.5" y="541.8"/>
      <point x="129.5" y="541.8" type="curve"/>
      <point x="129.5" y="541.8" type="line"/>
      <point x="129.5" y="541.8" type="line"/>
      <point x="129.5" y="541.8" type="line"/>
      <point x="129.5" y="541.8" type="line"/>
      <point x="129.5" y="541.8" type="line"/>
      <point x="129.5" y="541.8" type="line"/>
      <point x="129.5" y="541.8" type="line"/>
      <point x="129.5" y="541.8"/>
      <point x="129.5" y="541.8"/>
      <point x="129.5" y="542.5" type="curve"/>
      <point x="129.5" y="542.5" type="line"/>
      <point x="129.5" y="542.5" type="line"/>
      <point x="129.5" y="542.5" type="line"/>
      <point x="129.5" y="542.5" type="line"/>
      <point x="129.5" y="542.5" type="line"/>
      <point x="129.5" y="542.5" type="line"/>
      <point x="129.5" y="542.5" type="line"/>
      <point x="129.5" y="542.5" type="line"/>
      <point x="129.5" y="543.2" type="line"/>
      <point x="129.5" y="543.2" type="line"/>
      <point x="129.5" y="543.2" type="line"/>
      <point x="129.5" y="543.9" type="line"/>
      <point x="129.5" y="544.6" type="line"/>
      <point x="129.5" y="545.3" type="line"/>
      <point x="130.2" y="546"/>
      <point x="129.5" y="557.9"/>
      <point x="144.2" y="562.8" type="curve"/>
      <point x="146.3" y="564.2"/>
      <point x="147.7" y="564.2"/>
      <point x="149.8" y="564.9" type="curve"/>
      <point x="150.5" y="570.5"/>
      <point x="153.3" y="576.8"/>
      <point x="157.5" y="583.1" type="curve"/>
      <point x="161" y="586.6"/>
      <point x="165.2" y="588.7"/>
      <point x="170.1" y="588.7" type="curve" smooth="yes"/>
      <point x="172.2" y="588.7" type="line"/>
      <point x="175" y="587.3"/>
      <point x="182.7" y="579.6"/>
      <point x="184.8" y="575.4" type="curve"/>
    </contour>
    <contour>
      <point x="288.4" y="29.4004" type="line"/>
      <point x="197.4" y="22.4004" type="line"/>
      <point x="197.4" y="276.5" type="line"/>
      <point x="292.6" y="241.5" type="line"/>
    </contour>
    <contour>
      <point x="194.6" y="615.3" type="line"/>
      <point x="194.6" y="651" type="line"/>
      <point x="185.5" y="651" type="line"/>
      <point x="185.5" y="605.5" type="line"/>
      <point x="173.6" y="603.4" type="line" smooth="yes"/>
      <point x="165.9" y="602"/>
      <point x="156.8" y="597.8"/>
      <point x="142.8" y="591.5" type="curve" smooth="yes"/>
      <point x="86.0996" y="565.6"/>
      <point x="53.2002" y="506.8"/>
      <point x="53.2002" y="448" type="curve" smooth="yes"/>
      <point x="53.2002" y="416.5"/>
      <point x="62.2998" y="385"/>
      <point x="81.9004" y="358.4" type="curve" smooth="yes"/>
      <point x="98" y="336.7"/>
      <point x="118.3" y="317.8"/>
      <point x="140.7" y="304.5" type="curve" smooth="yes"/>
      <point x="149.1" y="299.6"/>
      <point x="157.5" y="295.4"/>
      <point x="165.9" y="291.2" type="curve" smooth="yes"/>
      <point x="167.3" y="290.5"/>
      <point x="171.5" y="289.8"/>
      <point x="175" y="287.7" type="curve" smooth="yes"/>
      <point x="175.7" y="287"/>
      <point x="176.4" y="287"/>
      <point x="177.1" y="286.3" type="curve" smooth="yes"/>
      <point x="177.8" y="285.6"/>
      <point x="177.8" y="285.6"/>
      <point x="178.5" y="284.9" type="curve" smooth="yes"/>
      <point x="179.9" y="283.5"/>
      <point x="179.9" y="283.5"/>
      <point x="183.4" y="278.6" type="curve"/>
      <point x="184.1" y="277.9" type="line"/>
      <point x="184.1" y="277.2" type="line"/>
      <point x="184.1" y="277.2"/>
      <point x="184.8" y="275.1"/>
      <point x="184.8" y="274.4" type="curve"/>
      <point x="185.5" y="273.7"/>
      <point x="185.5" y="272.3"/>
      <point x="185.5" y="271.6" type="curve"/>
      <point x="186.2" y="270.9"/>
      <point x="186.2" y="269.5"/>
      <point x="186.2" y="268.8" type="curve" smooth="yes"/>
      <point x="186.2" y="267.4"/>
      <point x="186.2" y="264.6"/>
      <point x="186.2" y="263.9" type="curve"/>
      <point x="186.2" y="263.9" type="line"/>
      <point x="186.2" y="259"/>
      <point x="185.5" y="252.7"/>
      <point x="185.5" y="250.6" type="curve" smooth="yes"/>
      <point x="185.5" y="14.7002" type="line"/>
      <point x="165.9" y="23.0996" type="line" smooth="yes"/>
      <point x="157.5" y="27.2998"/>
      <point x="144.2" y="30.7998"/>
      <point x="135.1" y="44.7998" type="curve" smooth="yes"/>
      <point x="107.8" y="83.2998"/>
      <point x="130.9" y="132.3"/>
      <point x="99.4004" y="154" type="curve" smooth="yes"/>
      <point x="95.2002" y="156.8"/>
      <point x="91" y="159.6"/>
      <point x="86.7998" y="161" type="curve" smooth="yes"/>
      <point x="83.2998" y="161.7"/>
      <point x="79.7998" y="162.4"/>
      <point x="75.5996" y="162.4" type="curve" smooth="yes"/>
      <point x="61.5996" y="162.4"/>
      <point x="48.2998" y="154.7"/>
      <point x="43.4004" y="144.2" type="curve" smooth="yes"/>
      <point x="42" y="140.7"/>
      <point x="39.9004" y="135.1"/>
      <point x="39.9004" y="126.7" type="curve" smooth="yes"/>
      <point x="39.9004" y="119"/>
      <point x="41.2998" y="111.3"/>
      <point x="43.4004" y="105.7" type="curve" smooth="yes"/>
      <point x="63" y="52.5"/>
      <point x="115.5" y="9.7998"/>
      <point x="170.1" y="7" type="curve" smooth="yes"/>
      <point x="183.4" y="6.2998" type="line"/>
      <point x="183.4" y="-93.7998" type="line"/>
      <point x="194.6" y="-93.7998" type="line"/>
      <point x="194.6" y="-2.7998" type="line"/>
      <point x="295.4" y="-2.7998" type="line"/>
      <point x="295.4" y="-93.7998" type="line"/>
      <point x="303.1" y="-93.7998" type="line"/>
      <point x="303.1" y="-37.7998" type="line" smooth="yes"/>
      <point x="303.1" y="-34.2998"/>
      <point x="302.4" y="-28"/>
      <point x="302.4" y="-21" type="curve" smooth="yes"/>
      <point x="302.4" y="-18.9004"/>
      <point x="302.4" y="-17.5"/>
      <point x="302.4" y="-16.0996" type="curve" smooth="yes"/>
      <point x="303.1" y="-8.40039"/>
      <point x="304.5" y="-7"/>
      <point x="306.6" y="-3.5" type="curve" smooth="yes"/>
      <point x="307.3" y="-2.09961"/>
      <point x="309.4" y="0"/>
      <point x="309.4" y="0" type="curve"/>
      <point x="318.5" y="8.40039"/>
      <point x="331.1" y="9.7998"/>
      <point x="338.8" y="11.9004" type="curve" smooth="yes"/>
      <point x="355.6" y="17.5"/>
      <point x="370.3" y="24.5"/>
      <point x="383.6" y="35" type="curve" smooth="yes"/>
      <point x="434" y="73.5"/>
      <point x="452.9" y="137.9"/>
      <point x="452.9" y="203" type="curve" smooth="yes"/>
      <point x="452.9" y="204.4"/>
      <point x="452.9" y="205.8"/>
      <point x="452.9" y="207.2" type="curve" smooth="yes"/>
      <point x="452.2" y="256.2"/>
      <point x="410.2" y="302.4"/>
      <point x="367.5" y="331.1" type="curve" smooth="yes"/>
      <point x="356.3" y="339.5"/>
      <point x="343.7" y="346.5"/>
      <point x="331.1" y="354.2" type="curve"/>
      <point x="329" y="354.9"/>
      <point x="322.7" y="357"/>
      <point x="317.1" y="360.5" type="curve" smooth="yes"/>
      <point x="312.2" y="364"/>
      <point x="310.8" y="366.1"/>
      <point x="309.4" y="367.5" type="curve"/>
      <point x="308.7" y="368.9"/>
      <point x="308" y="371.7"/>
      <point x="307.3" y="372.4" type="curve"/>
      <point x="305.9" y="376.6"/>
      <point x="305.9" y="378.7"/>
      <point x="305.9" y="382.9" type="curve" smooth="yes"/>
      <point x="305.9" y="383.6" type="line" smooth="yes"/>
      <point x="305.9" y="387.1"/>
      <point x="306.6" y="389.9"/>
      <point x="306.6" y="392" type="curve" smooth="yes"/>
      <point x="306.6" y="595" type="line"/>
      <point x="320.6" y="594.3" type="line" smooth="yes"/>
      <point x="326.9" y="594.3"/>
      <point x="333.2" y="593.6"/>
      <point x="338.8" y="591.5" type="curve" smooth="yes"/>
      <point x="357" y="585.9"/>
      <point x="368.9" y="573.3"/>
      <point x="373.8" y="544.6" type="curve" smooth="yes"/>
      <point x="378" y="517.3"/>
      <point x="370.3" y="474.6"/>
      <point x="396.2" y="466.9" type="curve" smooth="yes"/>
      <point x="397.6" y="466.2"/>
      <point x="401.1" y="466.2"/>
      <point x="405.3" y="466.2" type="curve" smooth="yes"/>
      <point x="407.4" y="466.2"/>
      <point x="409.5" y="466.2"/>
      <point x="412.3" y="466.2" type="curve" smooth="yes"/>
      <point x="430.5" y="466.9"/>
      <point x="438.9" y="484.4"/>
      <point x="438.9" y="506.1" type="curve" smooth="yes"/>
      <point x="438.9" y="516.6"/>
      <point x="436.1" y="527.8"/>
      <point x="432.6" y="535.5" type="curve" smooth="yes"/>
      <point x="424.9" y="552.3"/>
      <point x="403.9" y="579.6"/>
      <point x="350" y="601.3" type="curve" smooth="yes"/>
      <point x="338.8" y="605.5"/>
      <point x="327.6" y="609.7"/>
      <point x="318.5" y="611.1" type="curve" smooth="yes"/>
      <point x="306.6" y="613.2" type="line"/>
      <point x="306.6" y="651" type="line"/>
      <point x="298.2" y="651" type="line"/>
      <point x="298.2" y="615.3" type="line"/>
    </contour>
    <contour>
      <point x="133" y="545.3" type="line"/>
      <point x="132.3" y="544.6" type="line"/>
      <point x="133" y="544.6" type="line"/>
      <point x="133" y="544.6" type="line"/>
    </contour>
    <contour>
      <point x="136.5" y="541.8" type="line"/>
      <point x="136.5" y="541.8" type="line"/>
    </contour>
    <contour>
      <point x="133" y="544.6" type="line"/>
      <point x="134.4" y="544.6"/>
      <point x="135.8" y="543.2"/>
      <point x="136.5" y="541.8" type="curve"/>
    </contour>
    <contour>
      <point x="136.5" y="541.8" type="line"/>
      <point x="136.5" y="541.8" type="line"/>
      <point x="136.5" y="541.8" type="line"/>
    </contour>
  </outline>
</glyph>
<glyph name="quotesingle" format="2">
  <advance width="308"/>
  <unicode hex="0027"/>
  <outline>
    <contour>
      <point x="114.1" y="665.7" type="line" smooth="yes"/>
      <point x="116.9" y="676.2"/>
      <point x="117.6" y="688.1"/>
      <point x="125.3" y="699.3" type="curve" smooth="yes"/>
      <point x="137.2" y="716.8"/>
      <point x="160.3" y="717.5"/>
      <point x="167.3" y="718.9" type="curve" smooth="yes"/>
      <point x="182.7" y="721"/>
      <point x="196.7" y="722.4"/>
      <point x="212.1" y="722.4" type="curve" smooth="yes"/>
      <point x="221.2" y="722.4"/>
      <point x="230.3" y="721.7"/>
      <point x="240.1" y="720.3" type="curve" smooth="yes"/>
      <point x="250.6" y="718.9"/>
      <point x="261.1" y="717.5"/>
      <point x="270.2" y="713.3" type="curve" smooth="yes"/>
      <point x="275.1" y="711.2"/>
      <point x="278.6" y="707.7"/>
      <point x="280.7" y="704.2" type="curve"/>
      <point x="284.2" y="700"/>
      <point x="284.9" y="693.7"/>
      <point x="284.9" y="689.5" type="curve" smooth="yes"/>
      <point x="284.9" y="681.1"/>
      <point x="282.8" y="672.7"/>
      <point x="282.1" y="669.2" type="curve" smooth="yes"/>
      <point x="277.2" y="642.6"/>
      <point x="266.7" y="618.1"/>
      <point x="252.7" y="595.7" type="curve" smooth="yes"/>
      <point x="219.1" y="541.8"/>
      <point x="180.6" y="492.1"/>
      <point x="147.7" y="440.3" type="curve" smooth="yes"/>
      <point x="116.2" y="391.3" type="line" smooth="yes"/>
      <point x="111.3" y="382.9"/>
      <point x="107.1" y="373.1"/>
      <point x="99.4004" y="366.8" type="curve"/>
      <point x="99.4004" y="366.1"/>
      <point x="98.7002" y="366.1"/>
      <point x="98.7002" y="366.1" type="curve"/>
      <point x="98" y="365.4" type="line"/>
      <point x="98" y="365.4"/>
      <point x="97.2998" y="365.4"/>
      <point x="97.2998" y="364.7" type="curve"/>
      <point x="96.5996" y="364.7" type="line"/>
      <point x="94.5" y="363.3"/>
      <point x="90.2998" y="361.9"/>
      <point x="88.9004" y="361.2" type="curve"/>
      <point x="87.5" y="361.2"/>
      <point x="85.4004" y="361.2"/>
      <point x="83.2998" y="361.2" type="curve" smooth="yes"/>
      <point x="81.2002" y="361.2"/>
      <point x="79.0996" y="361.2"/>
      <point x="77.7002" y="361.2" type="curve" smooth="yes"/>
      <point x="33.5996" y="361.2" type="line"/>
      <point x="35.7002" y="377.3" type="line" smooth="yes"/>
      <point x="39.9004" y="403.2"/>
      <point x="49" y="428.4"/>
      <point x="55.2998" y="450.8" type="curve" smooth="yes"/>
    </contour>
  </outline>
</glyph>
<glyph name="parenleft" format="2">
  <advance width="387"/>
  <unicode hex="0028"/>
  <outline>
    <contour>
      <point x="127.4" y="-66.5" type="curve" smooth="yes"/>
      <point x="84" y="3.5"/>
      <point x="59.5" y="84"/>
      <point x="48.2998" y="164.5" type="curve" smooth="yes"/>
      <point x="43.4004" y="196.7"/>
      <point x="41.2998" y="228.9"/>
      <point x="41.2998" y="261.1" type="curve" smooth="yes"/>
      <point x="41.2998" y="382.2"/>
      <point x="75.5996" y="501.2"/>
      <point x="156.1" y="597.8" type="curve" smooth="yes"/>
      <point x="188.3" y="636.3"/>
      <point x="224.7" y="669.2"/>
      <point x="266.7" y="697.2" type="curve" smooth="yes"/>
      <point x="274.4" y="702.8"/>
      <point x="298.2" y="721.7"/>
      <point x="320.6" y="725.2" type="curve" smooth="yes"/>
      <point x="329" y="727.3" type="line"/>
      <point x="359.8" y="683.9" type="line"/>
      <point x="347.9" y="675.5" type="line" smooth="yes"/>
      <point x="329" y="662.9"/>
      <point x="311.5" y="650.3"/>
      <point x="296.1" y="634.2" type="curve" smooth="yes"/>
      <point x="221.9" y="556.5"/>
      <point x="202.3" y="452.9"/>
      <point x="194.6" y="345.8" type="curve" smooth="yes"/>
      <point x="192.5" y="315.7"/>
      <point x="191.8" y="285.6"/>
      <point x="191.8" y="254.8" type="curve" smooth="yes"/>
      <point x="191.8" y="235.9"/>
      <point x="191.8" y="217"/>
      <point x="192.5" y="198.1" type="curve" smooth="yes"/>
      <point x="196" y="126"/>
      <point x="197.4" y="56"/>
      <point x="219.8" y="-10.5" type="curve" smooth="yes"/>
      <point x="235.9" y="-58.7998"/>
      <point x="259" y="-102.2"/>
      <point x="292.6" y="-140.7" type="curve" smooth="yes"/>
      <point x="303.8" y="-153.3"/>
      <point x="316.4" y="-164.5"/>
      <point x="330.4" y="-175" type="curve" smooth="yes"/>
      <point x="334.6" y="-178.5"/>
      <point x="343" y="-182"/>
      <point x="347.9" y="-187.6" type="curve" smooth="yes"/>
      <point x="350.7" y="-190.4"/>
      <point x="352.8" y="-193.2"/>
      <point x="354.2" y="-196.7" type="curve" smooth="yes"/>
      <point x="354.9" y="-197.4"/>
      <point x="355.6" y="-200.9"/>
      <point x="355.6" y="-203" type="curve" smooth="yes"/>
      <point x="355.6" y="-203.7" type="line"/>
      <point x="354.9" y="-205.1"/>
      <point x="355.6" y="-207.9"/>
      <point x="353.5" y="-212.8" type="curve" smooth="yes"/>
      <point x="349.3" y="-222.6"/>
      <point x="340.9" y="-233.8"/>
      <point x="339.5" y="-235.9" type="curve"/>
      <point x="335.3" y="-246.4" type="line"/>
      <point x="324.1" y="-244.3" type="line" smooth="yes"/>
      <point x="301" y="-240.1"/>
      <point x="274.4" y="-218.4"/>
      <point x="263.2" y="-211.4" type="curve" smooth="yes"/>
      <point x="207.9" y="-173.6"/>
      <point x="162.4" y="-123.2"/>
    </contour>
  </outline>
</glyph>
<glyph name="parenright" format="2">
  <advance width="387"/>
  <unicode hex="0029"/>
  <outline>
    <contour>
      <point x="55.2998" y="717.5" type="curve" smooth="yes"/>
      <point x="57.4004" y="719.6"/>
      <point x="60.2002" y="721"/>
      <point x="63" y="721.7" type="curve" smooth="yes"/>
      <point x="63.7002" y="721.7"/>
      <point x="65.7998" y="722.4"/>
      <point x="67.2002" y="722.4" type="curve"/>
      <point x="67.2002" y="722.4"/>
      <point x="67.9004" y="722.4"/>
      <point x="67.9004" y="721.7" type="curve"/>
      <point x="72.7998" y="721"/>
      <point x="73.5" y="721"/>
      <point x="74.2002" y="721" type="curve" smooth="yes"/>
      <point x="74.9004" y="721"/>
      <point x="75.5996" y="721"/>
      <point x="76.2998" y="720.3" type="curve"/>
      <point x="77.7002" y="719.6" type="line"/>
      <point x="78.4004" y="719.6"/>
      <point x="79.7998" y="718.9"/>
      <point x="80.5" y="718.9" type="curve"/>
      <point x="84" y="716.8"/>
      <point x="88.2002" y="714"/>
      <point x="89.5996" y="713.3" type="curve" smooth="yes"/>
      <point x="107.8" y="704.2"/>
      <point x="124.6" y="693"/>
      <point x="140.7" y="681.1" type="curve" smooth="yes"/>
      <point x="203.7" y="632.8"/>
      <point x="248.5" y="567.7"/>
      <point x="284.2" y="499.1" type="curve" smooth="yes"/>
      <point x="325.5" y="420"/>
      <point x="341.6" y="333.2"/>
      <point x="343.7" y="245" type="curve" smooth="yes"/>
      <point x="343.7" y="240.1"/>
      <point x="343.7" y="234.5"/>
      <point x="343.7" y="229.6" type="curve" smooth="yes"/>
      <point x="343.7" y="65.0996"/>
      <point x="280.7" y="-95.2002"/>
      <point x="144.2" y="-196.7" type="curve" smooth="yes"/>
      <point x="121.1" y="-214.9"/>
      <point x="95.2002" y="-231.7"/>
      <point x="67.2002" y="-245" type="curve" smooth="yes"/>
      <point x="56" y="-250.6" type="line"/>
      <point x="25.2002" y="-200.2" type="line"/>
      <point x="37.0996" y="-193.2" type="line" smooth="yes"/>
      <point x="121.8" y="-141.4"/>
      <point x="161.7" y="-45.5"/>
      <point x="177.1" y="54.5996" type="curve" smooth="yes"/>
      <point x="183.4" y="95.2002"/>
      <point x="185.5" y="135.8"/>
      <point x="188.3" y="177.8" type="curve" smooth="yes"/>
      <point x="190.4" y="209.3"/>
      <point x="193.9" y="240.1"/>
      <point x="193.9" y="270.2" type="curve" smooth="yes"/>
      <point x="193.9" y="278.6" type="line" smooth="yes"/>
      <point x="192.5" y="343.7"/>
      <point x="182.7" y="410.9"/>
      <point x="165.9" y="473.9" type="curve" smooth="yes"/>
      <point x="156.8" y="510.3"/>
      <point x="146.3" y="548.1"/>
      <point x="128.1" y="578.2" type="curve" smooth="yes"/>
      <point x="114.8" y="599.2"/>
      <point x="95.9004" y="616"/>
      <point x="75.5996" y="634.2" type="curve" smooth="yes"/>
      <point x="60.9004" y="646.8"/>
      <point x="47.5996" y="660.1"/>
      <point x="34.2998" y="669.2" type="curve" smooth="yes"/>
      <point x="22.4004" y="676.2" type="line"/>
      <point x="30.0996" y="688.1" type="line" smooth="yes"/>
      <point x="35.7002" y="697.2"/>
      <point x="42.7002" y="704.2"/>
      <point x="47.5996" y="710.5" type="curve" smooth="yes"/>
      <point x="52.5" y="716.1"/>
      <point x="53.2002" y="716.8"/>
    </contour>
  </outline>
</glyph>
<glyph name="hyphen" format="2">
  <advance width="501"/>
  <unicode hex="002D"/>
  <outline>
    <contour>
      <point x="343.7" y="406" type="line"/>
      <point x="380.8" y="404.6" type="line"/>
      <point x="391.3" y="380.8" type="line"/>
      <point x="391.3" y="380.8" type="line"/>
      <point x="401.1" y="349.3" type="line"/>
      <point x="445.9" y="209.3" type="line"/>
      <point x="109.2" y="209.3" type="line"/>
      <point x="72.0996" y="210.7" type="line"/>
      <point x="66.5" y="223.3" type="line"/>
      <point x="61.5996" y="235.2" type="line"/>
      <point x="52.5" y="264.6" type="line"/>
      <point x="7" y="406" type="line"/>
    </contour>
  </outline>
</glyph>
<glyph name="one" format="2">
  <advance width="585"/>
  <unicode hex="0031"/>
  <outline>
    <contour>
      <point x="125.3" y="599.2" type="line" smooth="yes"/>
      <point x="165.2" y="599.2"/>
      <point x="249.2" y="609.7"/>
      <point x="287" y="624.4" type="curve" smooth="yes"/>
      <point x="301.7" y="630.7"/>
      <point x="315.7" y="642.6"/>
      <point x="337.4" y="648.2" type="curve" smooth="yes"/>
      <point x="342.3" y="649.6"/>
      <point x="350" y="651"/>
      <point x="362.6" y="651" type="curve" smooth="yes"/>
      <point x="377.3" y="651"/>
      <point x="387.8" y="649.6"/>
      <point x="398.3" y="649.6" type="curve" smooth="yes"/>
      <point x="419.3" y="649.6" type="line"/>
      <point x="419.3" y="185.5" type="line" smooth="yes"/>
      <point x="419.3" y="175"/>
      <point x="419.3" y="164.5"/>
      <point x="419.3" y="154.7" type="curve" smooth="yes"/>
      <point x="419.3" y="133.7"/>
      <point x="420.7" y="114.8"/>
      <point x="427.7" y="98.7002" type="curve" smooth="yes"/>
      <point x="432.6" y="86.7998"/>
      <point x="434.7" y="82.5996"/>
      <point x="439.6" y="79.0996" type="curve" smooth="yes"/>
      <point x="445.9" y="74.9004"/>
      <point x="464.1" y="71.4004"/>
      <point x="480.2" y="71.4004" type="curve" smooth="yes"/>
      <point x="501.2" y="71.4004" type="line"/>
      <point x="501.2" y="-9.7998" type="line"/>
      <point x="98" y="-9.7998" type="line"/>
      <point x="98" y="67.9004" type="line"/>
      <point x="115.5" y="70.7002" type="line" smooth="yes"/>
      <point x="154" y="77.7002"/>
      <point x="172.2" y="77.7002"/>
      <point x="184.1" y="96.5996" type="curve"/>
      <point x="184.8" y="97.2998" type="line"/>
      <point x="186.2" y="98" type="line" smooth="yes"/>
      <point x="235.2" y="114.8"/>
      <point x="235.2" y="137.9"/>
      <point x="235.2" y="147" type="curve" smooth="yes"/>
      <point x="235.2" y="163.1"/>
      <point x="233.8" y="180.6"/>
      <point x="233.8" y="197.4" type="curve" smooth="yes"/>
      <point x="233.8" y="462.7" type="line" smooth="yes"/>
      <point x="233.8" y="468.3"/>
      <point x="233.8" y="473.2"/>
      <point x="233.8" y="478.1" type="curve" smooth="yes"/>
      <point x="233.8" y="481.6"/>
      <point x="233.1" y="487.2"/>
      <point x="225.4" y="490.7" type="curve" smooth="yes"/>
      <point x="213.5" y="497"/>
      <point x="187.6" y="508.9"/>
      <point x="154" y="513.1" type="curve" smooth="yes"/>
      <point x="149.8" y="513.8"/>
      <point x="148.4" y="513.8"/>
      <point x="147" y="513.8" type="curve" smooth="yes"/>
      <point x="145.6" y="513.8"/>
      <point x="144.9" y="513.8"/>
      <point x="143.5" y="513.8" type="curve" smooth="yes"/>
      <point x="142.8" y="513.8"/>
      <point x="141.4" y="513.8"/>
      <point x="140.7" y="513.8" type="curve" smooth="yes"/>
      <point x="139.3" y="513.8"/>
      <point x="136.5" y="514.5"/>
      <point x="134.4" y="514.5" type="curve"/>
      <point x="133" y="515.2"/>
      <point x="128.8" y="515.9"/>
      <point x="128.1" y="516.6" type="curve"/>
      <point x="125.3" y="517.3"/>
      <point x="120.4" y="520.1"/>
      <point x="119" y="520.8" type="curve"/>
      <point x="118.3" y="521.5" type="line"/>
      <point x="118.3" y="522.2" type="line"/>
      <point x="116.2" y="527.1"/>
      <point x="111.3" y="532.7"/>
      <point x="109.9" y="537.6" type="curve"/>
      <point x="109.9" y="537.6"/>
      <point x="109.9" y="537.6"/>
      <point x="109.2" y="538.3" type="curve"/>
      <point x="109.2" y="542.5"/>
      <point x="109.2" y="543.2"/>
      <point x="109.2" y="543.9" type="curve" smooth="yes"/>
      <point x="107.1" y="553.7"/>
      <point x="104.3" y="565.6"/>
      <point x="104.3" y="579.6" type="curve" smooth="yes"/>
      <point x="104.3" y="599.2" type="line"/>
    </contour>
  </outline>
</glyph>
<glyph name="two" format="2">
  <advance width="585"/>
  <unicode hex="0032"/>
  <outline>
    <contour>
      <point x="187.6" y="79.0996" type="curve" smooth="yes"/>
      <point x="185.5" y="79.0996"/>
      <point x="184.1" y="81.2002"/>
      <point x="184.1" y="82.5996" type="curve" smooth="yes"/>
      <point x="184.1" y="84.7002"/>
      <point x="185.5" y="86.0996"/>
      <point x="187.6" y="86.0996" type="curve" smooth="yes"/>
      <point x="189.7" y="86.0996"/>
      <point x="191.1" y="84.7002"/>
      <point x="191.1" y="82.5996" type="curve" smooth="yes"/>
      <point x="191.1" y="81.2002"/>
      <point x="189.7" y="79.0996"/>
    </contour>
    <contour>
      <point x="46.9004" y="460.6" type="line" smooth="yes"/>
      <point x="57.4004" y="494.2"/>
      <point x="74.2002" y="520.8"/>
      <point x="93.0996" y="547.4" type="curve" smooth="yes"/>
      <point x="103.6" y="561.4"/>
      <point x="107.8" y="573.3"/>
      <point x="121.1" y="586.6" type="curve" smooth="yes"/>
      <point x="135.1" y="601.3"/>
      <point x="163.8" y="622.3"/>
      <point x="214.9" y="638.4" type="curve" smooth="yes"/>
      <point x="249.2" y="649.6"/>
      <point x="288.4" y="655.9"/>
      <point x="328.3" y="655.9" type="curve" smooth="yes"/>
      <point x="364.7" y="655.9"/>
      <point x="401.1" y="650.3"/>
      <point x="434" y="637.7" type="curve" smooth="yes"/>
      <point x="513.8" y="606.9"/>
      <point x="551.6" y="534.1"/>
      <point x="551.6" y="464.1" type="curve" smooth="yes"/>
      <point x="551.6" y="457.1"/>
      <point x="550.9" y="450.1"/>
      <point x="550.2" y="443.8" type="curve" smooth="yes"/>
      <point x="541.8" y="362.6"/>
      <point x="480.2" y="301.7"/>
      <point x="415.1" y="252" type="curve" smooth="yes"/>
      <point x="382.2" y="226.8"/>
      <point x="350" y="200.2"/>
      <point x="315" y="175" type="curve" smooth="yes"/>
      <point x="281.4" y="150.5" type="line"/>
      <point x="289.1" y="151.2"/>
      <point x="296.8" y="151.2"/>
      <point x="304.5" y="151.2" type="curve" smooth="yes"/>
      <point x="318.5" y="151.2"/>
      <point x="331.8" y="150.5"/>
      <point x="345.8" y="149.8" type="curve" smooth="yes"/>
      <point x="366.1" y="148.4"/>
      <point x="387.1" y="146.3"/>
      <point x="405.3" y="146.3" type="curve" smooth="yes"/>
      <point x="412.3" y="146.3"/>
      <point x="418.6" y="146.3"/>
      <point x="424.2" y="147" type="curve" smooth="yes"/>
      <point x="431.2" y="147.7"/>
      <point x="445.2" y="152.6"/>
      <point x="456.4" y="164.5" type="curve" smooth="yes"/>
      <point x="458.5" y="167.3"/>
      <point x="459.9" y="170.8"/>
      <point x="463.4" y="175" type="curve" smooth="yes"/>
      <point x="464.1" y="176.4"/>
      <point x="465.5" y="177.8"/>
      <point x="466.2" y="178.5" type="curve" smooth="yes"/>
      <point x="466.9" y="179.2"/>
      <point x="469" y="182"/>
      <point x="470.4" y="183.4" type="curve" smooth="yes"/>
      <point x="471.1" y="184.1"/>
      <point x="474.6" y="186.2"/>
      <point x="476" y="187.6" type="curve" smooth="yes"/>
      <point x="482.3" y="191.8"/>
      <point x="489.3" y="191.8"/>
      <point x="493.5" y="191.8" type="curve" smooth="yes"/>
      <point x="498.4" y="191.8"/>
      <point x="499.8" y="191.8"/>
      <point x="501.2" y="191.8" type="curve" smooth="yes"/>
      <point x="563.5" y="191.8" type="line"/>
      <point x="505.4" y="-7" type="line"/>
      <point x="35.7002" y="-7" type="line"/>
      <point x="35.7002" y="-1.40039"/>
      <point x="34.2998" y="13.2998"/>
      <point x="34.2998" y="21.7002" type="curve" smooth="yes"/>
      <point x="34.2998" y="35.7002"/>
      <point x="37.0996" y="42.7002"/>
      <point x="37.7998" y="44.7998" type="curve"/>
      <point x="39.2002" y="46.9004"/>
      <point x="39.9004" y="50.4004"/>
      <point x="45.5" y="56.7002" type="curve" smooth="yes"/>
      <point x="46.9004" y="58.0996"/>
      <point x="47.5996" y="58.7998"/>
      <point x="48.2998" y="59.5" type="curve" smooth="yes"/>
      <point x="56" y="67.9004"/>
      <point x="63.7002" y="72.0996"/>
      <point x="68.5996" y="77" type="curve" smooth="yes"/>
      <point x="133.7" y="137.9" type="line" smooth="yes"/>
      <point x="199.5" y="200.2"/>
      <point x="265.3" y="256.9"/>
      <point x="312.9" y="326.2" type="curve" smooth="yes"/>
      <point x="331.8" y="354.2"/>
      <point x="350.7" y="382.9"/>
      <point x="355.6" y="409.5" type="curve" smooth="yes"/>
      <point x="357" y="415.8"/>
      <point x="357" y="422.1"/>
      <point x="357" y="429.1" type="curve" smooth="yes"/>
      <point x="357" y="448"/>
      <point x="352.1" y="467.6"/>
      <point x="340.9" y="483" type="curve" smooth="yes"/>
      <point x="322.7" y="508.9"/>
      <point x="288.4" y="526.4"/>
      <point x="252.7" y="526.4" type="curve" smooth="yes"/>
      <point x="242.9" y="526.4"/>
      <point x="232.4" y="525"/>
      <point x="222.6" y="521.5" type="curve" smooth="yes"/>
      <point x="185.5" y="509.6"/>
      <point x="158.9" y="472.5"/>
      <point x="131.6" y="427.7" type="curve" smooth="yes"/>
      <point x="122.5" y="412.3" type="line"/>
      <point x="40.5996" y="441.7" type="line"/>
    </contour>
  </outline>
</glyph>
<glyph name="four" format="2">
  <advance width="627"/>
  <unicode hex="0034"/>
  <outline>
    <contour>
      <point x="29.4004" y="145.6" type="line"/>
      <point x="29.4004" y="205.8" type="line"/>
      <point x="30.0996" y="231.7" type="line"/>
      <point x="53.9004" y="267.4" type="line"/>
      <point x="331.1" y="608.3" type="line"/>
      <point x="361.9" y="651.7" type="line"/>
      <point x="371.7" y="652.4" type="line"/>
      <point x="392" y="654.5" type="line"/>
      <point x="464.1" y="654.5" type="line"/>
      <point x="464.1" y="254.8" type="line" smooth="yes"/>
      <point x="464.1" y="252.7"/>
      <point x="464.1" y="248.5"/>
      <point x="463.4" y="245" type="curve"/>
      <point x="495.6" y="249.2"/>
      <point x="513.1" y="256.9"/>
      <point x="514.5" y="266.7" type="curve" smooth="yes"/>
      <point x="515.9" y="285.6" type="line"/>
      <point x="601.3" y="285.6" type="line"/>
      <point x="584.5" y="145.6" type="line"/>
      <point x="463.4" y="145.6" type="line"/>
      <point x="463.4" y="136.5"/>
      <point x="462.7" y="128.1"/>
      <point x="462.7" y="120.4" type="curve" smooth="yes"/>
      <point x="462.7" y="109.9"/>
      <point x="463.4" y="98.7002"/>
      <point x="480.9" y="88.9004" type="curve" smooth="yes"/>
      <point x="501.9" y="77.7002"/>
      <point x="520.1" y="70.7002"/>
      <point x="525" y="68.5996" type="curve" smooth="yes"/>
      <point x="526.4" y="67.9004"/>
      <point x="532" y="67.9004"/>
      <point x="533.4" y="67.9004" type="curve" smooth="yes"/>
      <point x="541.1" y="67.9004"/>
      <point x="553.7" y="69.2998"/>
      <point x="560.7" y="69.2998" type="curve" smooth="yes"/>
      <point x="581.7" y="69.2998" type="line"/>
      <point x="581.7" y="-9.7998" type="line"/>
      <point x="179.9" y="-9.7998" type="line"/>
      <point x="179.9" y="74.2002" type="line"/>
      <point x="206.5" y="74.2002" type="line" smooth="yes"/>
      <point x="238" y="74.2002"/>
      <point x="266.7" y="76.2998"/>
      <point x="277.2" y="83.2998" type="curve" smooth="yes"/>
      <point x="280" y="84.7002"/>
      <point x="282.1" y="88.2002"/>
      <point x="284.2" y="99.4004" type="curve" smooth="yes"/>
      <point x="285.6" y="105"/>
      <point x="285.6" y="112"/>
      <point x="285.6" y="118.3" type="curve" smooth="yes"/>
      <point x="285.6" y="126.7"/>
      <point x="284.9" y="135.8"/>
      <point x="284.9" y="145.6" type="curve"/>
    </contour>
    <contour>
      <point x="159.6" y="248.5" type="line"/>
      <point x="284.9" y="248.5" type="line"/>
      <point x="282.8" y="387.1" type="line"/>
    </contour>
  </outline>
</glyph>
<glyph name="seven" format="2">
  <advance width="585"/>
  <unicode hex="0037"/>
  <outline>
    <contour>
      <point x="60.9004" y="446.6" type="line" smooth="yes"/>
      <point x="63" y="466.2"/>
      <point x="68.5996" y="479.5"/>
      <point x="73.5" y="498.4" type="curve" smooth="yes"/>
      <point x="95.9004" y="589.4" type="line" smooth="yes"/>
      <point x="98.7002" y="599.9"/>
      <point x="101.5" y="611.1"/>
      <point x="104.3" y="622.3" type="curve" smooth="yes"/>
      <point x="104.3" y="623"/>
      <point x="105" y="628.6"/>
      <point x="107.1" y="632.8" type="curve" smooth="yes"/>
      <point x="110.6" y="641.9"/>
      <point x="116.2" y="646.1"/>
      <point x="118.3" y="646.8" type="curve" smooth="yes"/>
      <point x="122.5" y="648.9"/>
      <point x="123.2" y="650.3"/>
      <point x="132.3" y="652.4" type="curve"/>
      <point x="133" y="653.1"/>
      <point x="135.8" y="653.1"/>
      <point x="136.5" y="653.8" type="curve"/>
      <point x="142.1" y="654.5"/>
      <point x="147.7" y="655.2"/>
      <point x="154" y="655.2" type="curve" smooth="yes"/>
      <point x="154.7" y="655.2"/>
      <point x="155.4" y="655.2"/>
      <point x="156.1" y="655.2" type="curve" smooth="yes"/>
      <point x="162.4" y="655.2"/>
      <point x="165.9" y="655.2"/>
      <point x="172.2" y="653.8" type="curve" smooth="yes"/>
      <point x="175.7" y="653.1"/>
      <point x="178.5" y="652.4"/>
      <point x="179.9" y="651.7" type="curve" smooth="yes"/>
      <point x="191.1" y="644.7"/>
      <point x="193.9" y="642.6"/>
      <point x="196.7" y="639.8" type="curve" smooth="yes"/>
      <point x="196.7" y="639.8"/>
      <point x="196.7" y="639.8"/>
      <point x="197.4" y="639.1" type="curve"/>
      <point x="202.3" y="637"/>
      <point x="211.4" y="635.6"/>
      <point x="225.4" y="635.6" type="curve" smooth="yes"/>
      <point x="259" y="634.9"/>
      <point x="293.3" y="634.2"/>
      <point x="327.6" y="634.2" type="curve" smooth="yes"/>
      <point x="396.2" y="634.2"/>
      <point x="464.1" y="635.6"/>
      <point x="523.6" y="635.6" type="curve" smooth="yes"/>
      <point x="541.1" y="635.6" type="line"/>
      <point x="544.6" y="619.5" type="line" smooth="yes"/>
      <point x="546" y="609.7"/>
      <point x="547.4" y="600.6"/>
      <point x="547.4" y="591.5" type="curve" smooth="yes"/>
      <point x="547.4" y="534.8"/>
      <point x="511" y="487.9"/>
      <point x="491.4" y="441.7" type="curve" smooth="yes"/>
      <point x="452.9" y="350.7"/>
      <point x="419.3" y="254.8"/>
      <point x="396.9" y="158.9" type="curve" smooth="yes"/>
      <point x="388.5" y="121.1"/>
      <point x="382.2" y="83.2998"/>
      <point x="378" y="44.7998" type="curve" smooth="yes"/>
      <point x="376.6" y="35"/>
      <point x="375.2" y="25.9004"/>
      <point x="375.2" y="17.5" type="curve"/>
      <point x="375.2" y="17.5" type="line"/>
      <point x="375.2" y="16.0996"/>
      <point x="375.9" y="14.7002"/>
      <point x="375.9" y="10.5" type="curve" smooth="yes"/>
      <point x="375.9" y="0"/>
      <point x="370.3" y="-6.2998"/>
      <point x="368.9" y="-7.7002" type="curve" smooth="yes"/>
      <point x="365.4" y="-10.5"/>
      <point x="358.4" y="-16.7998"/>
      <point x="344.4" y="-16.7998" type="curve" smooth="yes"/>
      <point x="343.7" y="-16.7998"/>
      <point x="340.9" y="-16.7998"/>
      <point x="340.2" y="-16.7998" type="curve" smooth="yes"/>
      <point x="163.8" y="-16.7998" type="line"/>
      <point x="167.3" y="6.2998" type="line" smooth="yes"/>
      <point x="173.6" y="46.9004"/>
      <point x="186.9" y="86.0996"/>
      <point x="200.2" y="123.9" type="curve" smooth="yes"/>
      <point x="231.7" y="212.8"/>
      <point x="275.1" y="301"/>
      <point x="329" y="382.2" type="curve" smooth="yes"/>
      <point x="347.9" y="410.9"/>
      <point x="367.5" y="440.3"/>
      <point x="388.5" y="469" type="curve" smooth="yes"/>
      <point x="392.7" y="474.6"/>
      <point x="399" y="482.3"/>
      <point x="405.3" y="490" type="curve"/>
      <point x="221.2" y="490" type="line" smooth="yes"/>
      <point x="217" y="490"/>
      <point x="210.7" y="490"/>
      <point x="207.2" y="490" type="curve" smooth="yes"/>
      <point x="205.8" y="490"/>
      <point x="203.7" y="490"/>
      <point x="203" y="490" type="curve" smooth="yes"/>
      <point x="179.9" y="483"/>
      <point x="161" y="461.3"/>
      <point x="154.7" y="440.3" type="curve" smooth="yes"/>
      <point x="150.5" y="424.9" type="line"/>
      <point x="59.5" y="424.9" type="line"/>
    </contour>
  </outline>
</glyph>
<glyph name="nine" format="2">
  <advance width="585"/>
  <unicode hex="0039"/>
  <outline>
    <contour>
      <point x="302.4" y="553" type="line"/>
      <point x="284.2" y="563.5" type="line"/>
      <point x="259" y="562.1" type="line"/>
      <point x="239.4" y="545.3" type="line"/>
      <point x="229.6" y="474.6" type="line"/>
      <point x="220.5" y="428.4" type="line"/>
      <point x="227.5" y="376.6" type="line"/>
      <point x="240.8" y="335.3" type="line"/>
      <point x="262.5" y="303.8" type="line"/>
      <point x="289.8" y="287" type="line"/>
      <point x="318.5" y="287" type="line"/>
      <point x="329.7" y="292.6" type="line"/>
      <point x="339.5" y="347.9" type="line"/>
      <point x="339.5" y="455.7" type="line"/>
      <point x="324.8" y="507.5" type="line"/>
    </contour>
    <contour>
      <point x="306.6" y="192.5" type="curve" smooth="yes"/>
      <point x="308" y="195.3" type="line"/>
      <point x="290.5" y="191.8"/>
      <point x="272.3" y="190.4"/>
      <point x="254.1" y="190.4" type="curve" smooth="yes"/>
      <point x="230.3" y="190.4"/>
      <point x="206.5" y="193.2"/>
      <point x="184.1" y="199.5" type="curve" smooth="yes"/>
      <point x="81.9004" y="231"/>
      <point x="36.4004" y="322.7"/>
      <point x="36.4004" y="409.5" type="curve" smooth="yes"/>
      <point x="36.4004" y="431.9"/>
      <point x="39.9004" y="455"/>
      <point x="46.2002" y="476.7" type="curve" smooth="yes"/>
      <point x="56.7002" y="511.7"/>
      <point x="75.5996" y="542.5"/>
      <point x="99.4004" y="569.1" type="curve" smooth="yes"/>
      <point x="134.4" y="607.6"/>
      <point x="194.6" y="644.7"/>
      <point x="265.3" y="644.7" type="curve" smooth="yes"/>
      <point x="266.7" y="644.7"/>
      <point x="270.9" y="644.7"/>
      <point x="272.3" y="644.7" type="curve" smooth="yes"/>
      <point x="301.7" y="643.3"/>
      <point x="333.2" y="639.1"/>
      <point x="362.6" y="630" type="curve" smooth="yes"/>
      <point x="495.6" y="588.7"/>
      <point x="540.4" y="469.7"/>
      <point x="540.4" y="361.2" type="curve" smooth="yes"/>
      <point x="540.4" y="330.4"/>
      <point x="536.9" y="300.3"/>
      <point x="530.6" y="272.3" type="curve" smooth="yes"/>
      <point x="504.7" y="163.1"/>
      <point x="420.7" y="67.2002"/>
      <point x="297.5" y="19.5996" type="curve" smooth="yes"/>
      <point x="235.9" y="-4.2002"/>
      <point x="167.3" y="-15.4004"/>
      <point x="102.9" y="-15.4004" type="curve" smooth="yes"/>
      <point x="81.2002" y="-15.4004" type="line"/>
      <point x="81.9004" y="4.90039" type="line" smooth="yes"/>
      <point x="81.9004" y="17.5"/>
      <point x="85.4004" y="28.7002"/>
      <point x="86.0996" y="37.0996" type="curve" smooth="yes"/>
      <point x="87.5" y="44.7998"/>
      <point x="87.5" y="46.2002"/>
      <point x="88.2002" y="49" type="curve" smooth="yes"/>
      <point x="88.9004" y="51.7998"/>
      <point x="92.4004" y="56.7002"/>
      <point x="93.0996" y="58.7998" type="curve"/>
      <point x="105.7" y="72.0996"/>
      <point x="127.4" y="68.5996"/>
      <point x="135.8" y="69.2998" type="curve" smooth="yes"/>
      <point x="156.8" y="72.0996"/>
      <point x="176.4" y="78.4004"/>
      <point x="194.6" y="87.5" type="curve" smooth="yes"/>
      <point x="243.6" y="110.6"/>
      <point x="287" y="150.5"/>
    </contour>
  </outline>
</glyph>
<glyph name="colon" format="2">
  <advance width="541"/>
  <unicode hex="003A"/>
  <outline>
    <contour>
      <point x="309.4" y="489.3" type="line"/>
      <point x="330.4" y="469" type="line"/>
      <point x="345.1" y="445.2" type="line"/>
      <point x="319.9" y="420" type="line"/>
      <point x="281.4" y="382.9" type="line"/>
      <point x="245" y="345.8" type="line"/>
      <point x="217.7" y="320.6" type="line"/>
      <point x="194.6" y="339.5" type="line"/>
      <point x="176.4" y="357.7" type="line"/>
      <point x="96.5996" y="438.9" type="line"/>
      <point x="96.5996" y="456.4" type="line"/>
      <point x="214.2" y="581" type="line"/>
      <point x="248.5" y="548.1" type="line"/>
    </contour>
    <contour>
      <point x="307.3" y="124.6" type="line" smooth="yes"/>
      <point x="315" y="118.3"/>
      <point x="329.7" y="109.2"/>
      <point x="336.7" y="94.5" type="curve" smooth="yes"/>
      <point x="336.7" y="94.5"/>
      <point x="338.1" y="91"/>
      <point x="338.8" y="88.9004" type="curve" smooth="yes"/>
      <point x="339.5" y="86.7998"/>
      <point x="339.5" y="84"/>
      <point x="339.5" y="82.5996" type="curve" smooth="yes"/>
      <point x="339.5" y="81.9004" type="line"/>
      <point x="339.5" y="81.2002" type="line"/>
      <point x="338.1" y="79.0996"/>
      <point x="335.3" y="67.9004"/>
      <point x="333.2" y="65.7998" type="curve" smooth="yes"/>
      <point x="331.1" y="63"/>
      <point x="331.1" y="63"/>
      <point x="329" y="60.9004" type="curve" smooth="yes"/>
      <point x="313.6" y="44.7998" type="line"/>
      <point x="256.2" y="-13.2998" type="line" smooth="yes"/>
      <point x="252" y="-18.9004"/>
      <point x="246.4" y="-26.5996"/>
      <point x="239.4" y="-32.9004" type="curve" smooth="yes"/>
      <point x="229.6" y="-39.9004"/>
      <point x="221.9" y="-39.9004"/>
      <point x="219.8" y="-39.9004" type="curve" smooth="yes"/>
      <point x="219.1" y="-39.9004" type="line"/>
      <point x="218.4" y="-39.9004" type="line" smooth="yes"/>
      <point x="216.3" y="-39.9004"/>
      <point x="209.3" y="-41.2998"/>
      <point x="198.1" y="-29.4004" type="curve" smooth="yes"/>
      <point x="197.4" y="-28.7002" type="line"/>
      <point x="178.5" y="-9.7998" type="line"/>
      <point x="98.7002" y="71.4004" type="line"/>
      <point x="98.7002" y="88.9004" type="line"/>
      <point x="212.1" y="212.8" type="line"/>
      <point x="226.8" y="201.6" type="line" smooth="yes"/>
      <point x="242.2" y="191.1"/>
      <point x="253.4" y="178.5"/>
      <point x="262.5" y="168.7" type="curve" smooth="yes"/>
    </contour>
  </outline>
</glyph>
<glyph name="less" format="2">
  <advance width="782"/>
  <unicode hex="003C"/>
  <outline>
    <contour>
      <point x="713.3" y="553.7" type="line"/>
      <point x="710.5" y="518.7" type="line"/>
      <point x="685.3" y="506.8" type="line"/>
      <point x="655.9" y="493.5" type="line"/>
      <point x="251.3" y="315.7" type="line"/>
      <point x="320.6" y="283.5" type="line"/>
      <point x="665" y="122.5" type="line"/>
      <point x="690.9" y="110.6" type="line" smooth="yes"/>
      <point x="693.7" y="109.2"/>
      <point x="697.2" y="107.8"/>
      <point x="701.4" y="105" type="curve" smooth="yes"/>
      <point x="703.5" y="103.6"/>
      <point x="707.7" y="99.4004"/>
      <point x="708.4" y="98" type="curve"/>
      <point x="709.1" y="97.2998" type="line"/>
      <point x="709.1" y="96.5996" type="line"/>
      <point x="709.8" y="95.9004"/>
      <point x="713.3" y="88.2002"/>
      <point x="713.3" y="85.4004" type="curve" smooth="yes"/>
      <point x="714" y="84"/>
      <point x="714" y="81.2002"/>
      <point x="714" y="76.2998" type="curve" smooth="yes"/>
      <point x="714" y="68.5996"/>
      <point x="713.3" y="64.4004"/>
      <point x="713.3" y="61.5996" type="curve" smooth="yes"/>
      <point x="713.3" y="-34.2998" type="line"/>
      <point x="683.9" y="-22.4004" type="line" smooth="yes"/>
      <point x="625.1" y="2.09961"/>
      <point x="568.4" y="32.2002"/>
      <point x="512.4" y="58.0996" type="curve" smooth="yes"/>
      <point x="198.8" y="205.1" type="line"/>
      <point x="112.7" y="246.4" type="line" smooth="yes"/>
      <point x="102.2" y="250.6"/>
      <point x="88.9004" y="253.4"/>
      <point x="78.4004" y="263.2" type="curve" smooth="yes"/>
      <point x="77" y="264.6"/>
      <point x="74.9004" y="267.4"/>
      <point x="73.5" y="269.5" type="curve" smooth="yes"/>
      <point x="70" y="275.1"/>
      <point x="69.2998" y="281.4"/>
      <point x="69.2998" y="286.3" type="curve" smooth="yes"/>
      <point x="69.2998" y="287.7"/>
      <point x="69.2998" y="291.2"/>
      <point x="69.2998" y="292.6" type="curve" smooth="yes"/>
      <point x="69.2998" y="323.4" type="line" smooth="yes"/>
      <point x="69.2998" y="326.9"/>
      <point x="68.5996" y="333.9"/>
      <point x="68.5996" y="340.9" type="curve" smooth="yes"/>
      <point x="68.5996" y="341.6"/>
      <point x="68.5996" y="341.6"/>
      <point x="68.5996" y="342.3" type="curve" smooth="yes"/>
      <point x="68.5996" y="347.9"/>
      <point x="68.5996" y="350.7"/>
      <point x="70" y="355.6" type="curve" smooth="yes"/>
      <point x="70" y="357"/>
      <point x="71.4004" y="359.8"/>
      <point x="72.0996" y="361.2" type="curve"/>
      <point x="72.0996" y="361.9" type="line"/>
      <point x="72.7998" y="362.6" type="line" smooth="yes"/>
      <point x="74.2002" y="364"/>
      <point x="81.9004" y="373.1"/>
      <point x="84.7002" y="374.5" type="curve" smooth="yes"/>
      <point x="88.2002" y="376.6"/>
      <point x="93.0996" y="378"/>
      <point x="93.7998" y="378" type="curve"/>
      <point x="122.5" y="391.3" type="line"/>
      <point x="629.3" y="616" type="line" smooth="yes"/>
      <point x="647.5" y="624.4"/>
      <point x="666.4" y="631.4"/>
      <point x="680.4" y="639.1" type="curve" smooth="yes"/>
      <point x="710.5" y="656.6" type="line"/>
      <point x="713.3" y="600.6" type="line"/>
    </contour>
  </outline>
</glyph>
<glyph name="equal" format="2">
  <advance width="854"/>
  <unicode hex="003D"/>
  <outline>
    <contour>
      <point x="101.5" y="258.3" type="line"/>
      <point x="804.3" y="258.3" type="line"/>
      <point x="804.3" y="141.4" type="line"/>
      <point x="101.5" y="141.4" type="line"/>
    </contour>
    <contour>
      <point x="101.5" y="457.8" type="line"/>
      <point x="807.8" y="457.8" type="line"/>
      <point x="807.8" y="339.5" type="line"/>
      <point x="101.5" y="339.5" type="line"/>
    </contour>
  </outline>
</glyph>
<glyph name="question" format="2">
  <advance width="465"/>
  <unicode hex="003F"/>
  <outline>
    <contour>
      <point x="107.1" y="775.6" type="curve" smooth="yes"/>
      <point x="118.3" y="770.7"/>
      <point x="128.8" y="756.7"/>
      <point x="131.6" y="753.9" type="curve" smooth="yes"/>
      <point x="144.2" y="743.4"/>
      <point x="154" y="738.5"/>
      <point x="170.8" y="735.7" type="curve" smooth="yes"/>
      <point x="219.8" y="728"/>
      <point x="267.4" y="736.4"/>
      <point x="316.4" y="712.6" type="curve" smooth="yes"/>
      <point x="374.5" y="684.6"/>
      <point x="405.3" y="618.8"/>
      <point x="405.3" y="524.3" type="curve" smooth="yes"/>
      <point x="405.3" y="494.2"/>
      <point x="401.8" y="462.7"/>
      <point x="386.4" y="432.6" type="curve" smooth="yes"/>
      <point x="358.4" y="380.8"/>
      <point x="320.6" y="354.9"/>
      <point x="288.4" y="309.4" type="curve" smooth="yes"/>
      <point x="282.1" y="301"/>
      <point x="276.5" y="284.9"/>
      <point x="276.5" y="254.8" type="curve" smooth="yes"/>
      <point x="276.5" y="252"/>
      <point x="276.5" y="250.6"/>
      <point x="276.5" y="249.2" type="curve" smooth="yes"/>
      <point x="276.5" y="243.6"/>
      <point x="276.5" y="238"/>
      <point x="276.5" y="232.4" type="curve" smooth="yes"/>
      <point x="276.5" y="228.9"/>
      <point x="277.2" y="219.8"/>
      <point x="277.2" y="213.5" type="curve" smooth="yes"/>
      <point x="277.2" y="212.8"/>
      <point x="277.2" y="212.1"/>
      <point x="277.2" y="212.1" type="curve" smooth="yes"/>
      <point x="277.2" y="205.8"/>
      <point x="277.2" y="199.5"/>
      <point x="275.1" y="191.8" type="curve" smooth="yes"/>
      <point x="274.4" y="189.7"/>
      <point x="273" y="186.9"/>
      <point x="272.3" y="185.5" type="curve" smooth="yes"/>
      <point x="271.6" y="184.1"/>
      <point x="268.8" y="177.8"/>
      <point x="259" y="170.1" type="curve" smooth="yes"/>
      <point x="252.7" y="165.2"/>
      <point x="240.8" y="158.2"/>
      <point x="224.7" y="154" type="curve"/>
      <point x="226.8" y="154"/>
      <point x="229.6" y="154"/>
      <point x="231.7" y="154" type="curve" smooth="yes"/>
      <point x="284.9" y="154"/>
      <point x="329" y="106.4"/>
      <point x="333.9" y="59.5" type="curve" smooth="yes"/>
      <point x="333.9" y="56"/>
      <point x="334.6" y="51.7998"/>
      <point x="334.6" y="48.2998" type="curve" smooth="yes"/>
      <point x="334.6" y="-2.7998"/>
      <point x="298.2" y="-52.5"/>
      <point x="242.9" y="-59.5" type="curve" smooth="yes"/>
      <point x="238" y="-60.2002"/>
      <point x="233.1" y="-60.2002"/>
      <point x="228.2" y="-60.2002" type="curve" smooth="yes"/>
      <point x="219.1" y="-60.2002"/>
      <point x="210" y="-59.5"/>
      <point x="200.2" y="-56.7002" type="curve" smooth="yes"/>
      <point x="150.5" y="-42.7002"/>
      <point x="122.5" y="2.09961"/>
      <point x="122.5" y="46.9004" type="curve" smooth="yes"/>
      <point x="122.5" y="77.7002"/>
      <point x="135.1" y="107.8"/>
      <point x="160.3" y="129.5" type="curve" smooth="yes"/>
      <point x="175" y="142.1"/>
      <point x="191.8" y="148.4"/>
      <point x="207.9" y="151.2" type="curve"/>
      <point x="205.1" y="151.2"/>
      <point x="201.6" y="151.2"/>
      <point x="198.8" y="151.2" type="curve" smooth="yes"/>
      <point x="198.8" y="151.2"/>
      <point x="197.4" y="151.2"/>
      <point x="196.7" y="151.2" type="curve"/>
      <point x="196.7" y="151.2" type="line"/>
      <point x="196" y="151.2" type="line"/>
      <point x="186.9" y="153.3"/>
      <point x="177.1" y="152.6"/>
      <point x="166.6" y="168" type="curve" smooth="yes"/>
      <point x="158.2" y="181.3"/>
      <point x="158.2" y="198.1"/>
      <point x="158.2" y="204.4" type="curve" smooth="yes"/>
      <point x="158.2" y="204.4"/>
      <point x="158.2" y="205.8"/>
      <point x="158.2" y="206.5" type="curve" smooth="yes"/>
      <point x="158.9" y="234.5"/>
      <point x="161" y="280"/>
      <point x="182.7" y="317.8" type="curve" smooth="yes"/>
      <point x="203.7" y="354.9"/>
      <point x="229.6" y="387.1"/>
      <point x="252.7" y="419.3" type="curve" smooth="yes"/>
      <point x="268.1" y="440.3"/>
      <point x="277.9" y="452.9"/>
      <point x="282.8" y="465.5" type="curve"/>
      <point x="282.8" y="466.2"/>
      <point x="282.8" y="468.3"/>
      <point x="282.8" y="469" type="curve" smooth="yes"/>
      <point x="282.8" y="471.1"/>
      <point x="282.1" y="476.7"/>
      <point x="282.1" y="480.2" type="curve" smooth="yes"/>
      <point x="282.1" y="504"/>
      <point x="274.4" y="520.8"/>
      <point x="246.4" y="531.3" type="curve" smooth="yes"/>
      <point x="218.4" y="541.1"/>
      <point x="175" y="538.3"/>
      <point x="143.5" y="541.8" type="curve" smooth="yes"/>
      <point x="121.8" y="544.6"/>
      <point x="95.2002" y="548.1"/>
      <point x="74.9004" y="571.2" type="curve" smooth="yes"/>
      <point x="46.2002" y="603.4"/>
      <point x="38.5" y="650.3"/>
      <point x="38.5" y="683.2" type="curve" smooth="yes"/>
      <point x="38.5" y="694.4"/>
      <point x="39.9004" y="705.6"/>
      <point x="41.2998" y="716.1" type="curve" smooth="yes"/>
      <point x="42.7002" y="729.4"/>
      <point x="44.0996" y="742"/>
      <point x="49" y="753.9" type="curve" smooth="yes"/>
      <point x="51.7998" y="760.2"/>
      <point x="55.2998" y="765.1"/>
      <point x="59.5" y="768.6" type="curve"/>
      <point x="59.5" y="768.6" type="line"/>
      <point x="60.2002" y="768.6" type="line"/>
      <point x="62.2998" y="770"/>
      <point x="66.5" y="774.9"/>
      <point x="77.7002" y="777" type="curve" smooth="yes"/>
      <point x="81.9004" y="778.4"/>
      <point x="85.4004" y="778.4"/>
      <point x="88.9004" y="778.4" type="curve" smooth="yes"/>
      <point x="91" y="779.1"/>
      <point x="91.7002" y="779.1"/>
      <point x="92.4004" y="779.1" type="curve" smooth="yes"/>
      <point x="93.0996" y="779.1" type="line"/>
      <point x="98.7002" y="777.7"/>
      <point x="104.3" y="777"/>
    </contour>
  </outline>
</glyph>
<glyph name="at" format="2">
  <advance width="1055"/>
  <unicode hex="0040"/>
  <outline>
    <contour>
      <point x="518" y="-191.1" type="curve" smooth="yes"/>
      <point x="424.9" y="-191.1"/>
      <point x="333.9" y="-160.3"/>
      <point x="256.2" y="-112" type="curve" smooth="yes"/>
      <point x="200.9" y="-77.7002"/>
      <point x="144.2" y="-23.0996"/>
      <point x="100.1" y="49.7002" type="curve" smooth="yes"/>
      <point x="55.2998" y="122.5"/>
      <point x="32.9004" y="207.9"/>
      <point x="32.9004" y="293.3" type="curve" smooth="yes"/>
      <point x="32.9004" y="358.4"/>
      <point x="46.2002" y="423.5"/>
      <point x="73.5" y="483" type="curve" smooth="yes"/>
      <point x="100.1" y="541.1"/>
      <point x="140.7" y="589.4"/>
      <point x="183.4" y="632.1" type="curve" smooth="yes"/>
      <point x="235.9" y="684.6"/>
      <point x="296.1" y="732.9"/>
      <point x="365.4" y="764.4" type="curve" smooth="yes"/>
      <point x="436.8" y="797.3"/>
      <point x="512.4" y="809.9"/>
      <point x="588" y="813.4" type="curve" smooth="yes"/>
      <point x="597.1" y="813.4"/>
      <point x="606.2" y="814.1"/>
      <point x="614.6" y="814.1" type="curve" smooth="yes"/>
      <point x="693" y="814.1"/>
      <point x="774.2" y="798.7"/>
      <point x="842.1" y="753.2" type="curve" smooth="yes"/>
      <point x="893.9" y="718.2"/>
      <point x="931.7" y="669.9"/>
      <point x="961.1" y="618.1" type="curve" smooth="yes"/>
      <point x="989.8" y="568.4"/>
      <point x="1010.1" y="514.5"/>
      <point x="1020.6" y="457.8" type="curve" smooth="yes"/>
      <point x="1026.2" y="425.6"/>
      <point x="1028.3" y="393.4"/>
      <point x="1028.3" y="361.9" type="curve" smooth="yes"/>
      <point x="1028.3" y="356.3"/>
      <point x="1028.3" y="351.4"/>
      <point x="1028.3" y="345.8" type="curve" smooth="yes"/>
      <point x="1028.3" y="334.6"/>
      <point x="1028.3" y="322.7"/>
      <point x="1025.5" y="310.1" type="curve" smooth="yes"/>
      <point x="1017.1" y="263.9"/>
      <point x="993.3" y="222.6"/>
      <point x="971.6" y="186.9" type="curve" smooth="yes"/>
      <point x="954.8" y="158.9"/>
      <point x="936.6" y="128.8"/>
      <point x="911.4" y="102.9" type="curve" smooth="yes"/>
      <point x="869.4" y="60.2002"/>
      <point x="816.2" y="33.5996"/>
      <point x="753.2" y="33.5996" type="curve" smooth="yes"/>
      <point x="742" y="33.5996"/>
      <point x="730.8" y="35"/>
      <point x="719.6" y="36.4004" type="curve" smooth="yes"/>
      <point x="707" y="37.7998"/>
      <point x="679.7" y="42"/>
      <point x="658" y="54.5996" type="curve" smooth="yes"/>
      <point x="638.4" y="65.7998"/>
      <point x="624.4" y="81.2002"/>
      <point x="612.5" y="97.2998" type="curve"/>
      <point x="596.4" y="81.2002"/>
      <point x="576.8" y="69.2998"/>
      <point x="566.3" y="63.7002" type="curve" smooth="yes"/>
      <point x="532.7" y="44.7998"/>
      <point x="493.5" y="33.5996"/>
      <point x="453.6" y="33.5996" type="curve" smooth="yes"/>
      <point x="417.9" y="33.5996"/>
      <point x="381.5" y="42.7002"/>
      <point x="350.7" y="64.4004" type="curve" smooth="yes"/>
      <point x="332.5" y="77.7002"/>
      <point x="310.8" y="97.2998"/>
      <point x="301" y="125.3" type="curve" smooth="yes"/>
      <point x="291.2" y="154.7"/>
      <point x="291.2" y="186.2"/>
      <point x="291.2" y="213.5" type="curve" smooth="yes"/>
      <point x="291.2" y="217" type="line"/>
      <point x="291.2" y="220.5" type="line" smooth="yes"/>
      <point x="291.2" y="264.6"/>
      <point x="296.1" y="310.1"/>
      <point x="312.2" y="353.5" type="curve" smooth="yes"/>
      <point x="322.7" y="382.2"/>
      <point x="338.1" y="407.4"/>
      <point x="353.5" y="431.2" type="curve" smooth="yes"/>
      <point x="372.4" y="462"/>
      <point x="396.2" y="493.5"/>
      <point x="426.3" y="518" type="curve" smooth="yes"/>
      <point x="459.2" y="544.6"/>
      <point x="510.3" y="570.5"/>
      <point x="566.3" y="570.5" type="curve" smooth="yes"/>
      <point x="606.9" y="570.5"/>
      <point x="644" y="557.2"/>
      <point x="673.4" y="527.8" type="curve"/>
      <point x="673.4" y="530.6"/>
      <point x="674.1" y="533.4"/>
      <point x="674.8" y="536.9" type="curve" smooth="yes"/>
      <point x="677.6" y="553.7" type="line"/>
      <point x="819.7" y="553.7" type="line"/>
      <point x="814.8" y="528.5" type="line" smooth="yes"/>
      <point x="796.6" y="435.4"/>
      <point x="772.1" y="343.7"/>
      <point x="750.4" y="252.7" type="curve" smooth="yes"/>
      <point x="732.9" y="175.7" type="line" smooth="yes"/>
      <point x="730.8" y="168"/>
      <point x="725.9" y="155.4"/>
      <point x="725.2" y="149.1" type="curve"/>
      <point x="726.6" y="147.7"/>
      <point x="729.4" y="145.6"/>
      <point x="731.5" y="142.8" type="curve" smooth="yes"/>
      <point x="741.3" y="131.6"/>
      <point x="753.9" y="126"/>
      <point x="769.3" y="126" type="curve" smooth="yes"/>
      <point x="769.3" y="126"/>
      <point x="770" y="126"/>
      <point x="770.7" y="126" type="curve" smooth="yes"/>
      <point x="801.5" y="126.7"/>
      <point x="831.6" y="153.3"/>
      <point x="858.2" y="189.7" type="curve" smooth="yes"/>
      <point x="900.2" y="245.7"/>
      <point x="926.1" y="316.4"/>
      <point x="926.1" y="385.7" type="curve" smooth="yes"/>
      <point x="926.1" y="409.5"/>
      <point x="923.3" y="433.3"/>
      <point x="917" y="456.4" type="curve" smooth="yes"/>
      <point x="907.9" y="490.7"/>
      <point x="893.2" y="522.9"/>
      <point x="875" y="553" type="curve" smooth="yes"/>
      <point x="826" y="629.3"/>
      <point x="740.6" y="685.3"/>
      <point x="651.7" y="700" type="curve" smooth="yes"/>
      <point x="634.9" y="702.8"/>
      <point x="618.1" y="704.2"/>
      <point x="601.3" y="704.2" type="curve" smooth="yes"/>
      <point x="582.4" y="704.2"/>
      <point x="562.8" y="702.8"/>
      <point x="543.2" y="701.4" type="curve" smooth="yes"/>
      <point x="518" y="700"/>
      <point x="493.5" y="698.6"/>
      <point x="472.5" y="693.7" type="curve" smooth="yes"/>
      <point x="422.8" y="681.8"/>
      <point x="375.9" y="648.2"/>
      <point x="334.6" y="611.8" type="curve" smooth="yes"/>
      <point x="308" y="589.4"/>
      <point x="270.2" y="553"/>
      <point x="241.5" y="504.7" type="curve" smooth="yes"/>
      <point x="214.2" y="459.2"/>
      <point x="200.9" y="407.4"/>
      <point x="191.1" y="352.8" type="curve" smooth="yes"/>
      <point x="186.2" y="324.8"/>
      <point x="180.6" y="298.2"/>
      <point x="179.2" y="272.3" type="curve" smooth="yes"/>
      <point x="179.2" y="266.7"/>
      <point x="179.2" y="261.1"/>
      <point x="179.2" y="255.5" type="curve" smooth="yes"/>
      <point x="179.2" y="184.8"/>
      <point x="199.5" y="114.1"/>
      <point x="242.2" y="58.0996" type="curve" smooth="yes"/>
      <point x="319.9" y="-43.4004"/>
      <point x="447.3" y="-95.2002"/>
      <point x="574.7" y="-95.2002" type="curve" smooth="yes"/>
      <point x="609" y="-95.2002"/>
      <point x="644" y="-91.7002"/>
      <point x="676.9" y="-84" type="curve" smooth="yes"/>
      <point x="713.3" y="-76.2998"/>
      <point x="748.3" y="-63.7002"/>
      <point x="782.6" y="-47.5996" type="curve" smooth="yes"/>
      <point x="793.8" y="-42"/>
      <point x="806.4" y="-32.9004"/>
      <point x="822.5" y="-25.9004" type="curve" smooth="yes"/>
      <point x="842.8" y="-16.0996" type="line"/>
      <point x="875.7" y="-104.3" type="line"/>
      <point x="856.8" y="-112" type="line" smooth="yes"/>
      <point x="818.3" y="-128.1"/>
      <point x="779.1" y="-147"/>
      <point x="736.4" y="-160.3" type="curve" smooth="yes"/>
      <point x="664.3" y="-182"/>
      <point x="592.2" y="-191.1"/>
    </contour>
  </outline>
</glyph>
<glyph name="bracketleft" format="2">
  <advance width="387"/>
  <unicode hex="005B"/>
  <outline>
    <contour>
      <point x="64.4004" y="705.6" type="line"/>
      <point x="366.8" y="705.6" type="line"/>
      <point x="366.8" y="613.9" type="line"/>
      <point x="204.4" y="613.9" type="line"/>
      <point x="204.4" y="-138.6" type="line"/>
      <point x="366.8" y="-138.6" type="line"/>
      <point x="366.8" y="-228.9" type="line"/>
      <point x="64.4004" y="-228.9" type="line"/>
    </contour>
  </outline>
</glyph>
<glyph name="braceleft" format="2">
  <advance width="671"/>
  <unicode hex="007B"/>
  <outline>
    <contour>
      <point x="240.8" y="536.2" type="curve" smooth="yes"/>
      <point x="241.5" y="553"/>
      <point x="242.2" y="570.5"/>
      <point x="242.2" y="587.3" type="curve" smooth="yes"/>
      <point x="242.2" y="625.8"/>
      <point x="240.1" y="665.7"/>
      <point x="240.1" y="705.6" type="curve" smooth="yes"/>
      <point x="240.1" y="748.3"/>
      <point x="242.2" y="791.7"/>
      <point x="252.7" y="835.1" type="curve" smooth="yes"/>
      <point x="258.3" y="858.9"/>
      <point x="268.8" y="896.7"/>
      <point x="294" y="924.7" type="curve" smooth="yes"/>
      <point x="310.1" y="942.9"/>
      <point x="345.1" y="970.9"/>
      <point x="424.9" y="970.9" type="curve" smooth="yes"/>
      <point x="431.2" y="970.9"/>
      <point x="445.9" y="972.3"/>
      <point x="455" y="972.3" type="curve" smooth="yes"/>
      <point x="470.4" y="972.3"/>
      <point x="478.1" y="969.5"/>
      <point x="480.9" y="968.1" type="curve" smooth="yes"/>
      <point x="543.2" y="942.2" type="line"/>
      <point x="476.7" y="928.2" type="line" smooth="yes"/>
      <point x="438.2" y="920.5"/>
      <point x="415.8" y="893.2"/>
      <point x="407.4" y="878.5" type="curve" smooth="yes"/>
      <point x="397.6" y="861.7"/>
      <point x="392.7" y="840.7"/>
      <point x="387.8" y="818.3" type="curve" smooth="yes"/>
      <point x="381.5" y="785.4"/>
      <point x="379.4" y="750.4"/>
      <point x="379.4" y="715.4" type="curve" smooth="yes"/>
      <point x="379.4" y="670.6"/>
      <point x="382.9" y="625.1"/>
      <point x="382.9" y="579.6" type="curve" smooth="yes"/>
      <point x="382.9" y="567.7"/>
      <point x="383.6" y="555.1"/>
      <point x="383.6" y="541.8" type="curve" smooth="yes"/>
      <point x="383.6" y="532"/>
      <point x="382.9" y="522.9"/>
      <point x="381.5" y="513.1" type="curve" smooth="yes"/>
      <point x="375.9" y="464.1"/>
      <point x="368.9" y="391.3"/>
      <point x="308" y="359.8" type="curve"/>
      <point x="345.1" y="329.7"/>
      <point x="365.4" y="282.8"/>
      <point x="373.8" y="240.1" type="curve" smooth="yes"/>
      <point x="382.2" y="200.9"/>
      <point x="384.3" y="160.3"/>
      <point x="384.3" y="120.4" type="curve" smooth="yes"/>
      <point x="384.3" y="89.5996"/>
      <point x="382.9" y="58.7998"/>
      <point x="381.5" y="29.4004" type="curve" smooth="yes"/>
      <point x="380.8" y="9.7998"/>
      <point x="380.1" y="-9.09961"/>
      <point x="380.1" y="-28" type="curve" smooth="yes"/>
      <point x="380.1" y="-43.4004"/>
      <point x="380.8" y="-58.7998"/>
      <point x="382.2" y="-73.5" type="curve" smooth="yes"/>
      <point x="389.2" y="-130.9"/>
      <point x="401.1" y="-178.5"/>
      <point x="448" y="-200.2" type="curve" smooth="yes"/>
      <point x="459.2" y="-205.8"/>
      <point x="466.2" y="-207.9"/>
      <point x="472.5" y="-208.6" type="curve" smooth="yes"/>
      <point x="491.4" y="-210" type="line"/>
      <point x="491.4" y="-251.3" type="line"/>
      <point x="470.4" y="-251.3" type="line" smooth="yes"/>
      <point x="440.3" y="-251.3"/>
      <point x="408.8" y="-249.2"/>
      <point x="378" y="-240.8" type="curve" smooth="yes"/>
      <point x="351.4" y="-233.8"/>
      <point x="324.1" y="-222.6"/>
      <point x="302.4" y="-201.6" type="curve" smooth="yes"/>
      <point x="263.9" y="-165.2"/>
      <point x="252" y="-105.7"/>
      <point x="246.4" y="-67.9004" type="curve" smooth="yes"/>
      <point x="241.5" y="-33.5996"/>
      <point x="240.8" y="0.700195"/>
      <point x="240.8" y="35" type="curve" smooth="yes"/>
      <point x="240.8" y="66.5"/>
      <point x="241.5" y="98"/>
      <point x="241.5" y="128.1" type="curve" smooth="yes"/>
      <point x="241.5" y="177.8"/>
      <point x="239.4" y="226.8"/>
      <point x="223.3" y="269.5" type="curve" smooth="yes"/>
      <point x="214.2" y="292.6"/>
      <point x="199.5" y="311.5"/>
      <point x="179.9" y="325.5" type="curve" smooth="yes"/>
      <point x="168.7" y="333.2"/>
      <point x="155.4" y="336.7"/>
      <point x="142.1" y="347.2" type="curve" smooth="yes"/>
      <point x="113.4" y="371.7" type="line"/>
      <point x="149.1" y="383.6" type="line" smooth="yes"/>
      <point x="169.4" y="390.6"/>
      <point x="184.1" y="393.4"/>
      <point x="195.3" y="401.8" type="curve" smooth="yes"/>
      <point x="233.1" y="429.8"/>
      <point x="237.3" y="491.4"/>
    </contour>
  </outline>
</glyph>
<glyph name="rafe" format="2">
  <advance width="465"/>
  <unicode hex="05BF"/>
  <outline>
    <contour>
      <point x="44.7998" y="627.9" type="line"/>
      <point x="375.2" y="627.9" type="line"/>
      <point x="424.2" y="469.7" type="line"/>
      <point x="90.2998" y="469.7" type="line"/>
    </contour>
  </outline>
</glyph>
<glyph name="afii57664" format="2">
  <advance width="625"/>
  <unicode hex="05D0"/>
  <outline>
    <contour>
      <point x="163.1" y="800.8" type="curve" smooth="yes"/>
      <point x="170.8" y="813.4"/>
      <point x="183.4" y="842.8"/>
      <point x="205.8" y="860.3" type="curve" smooth="yes"/>
      <point x="231" y="879.9"/>
      <point x="269.5" y="888.3"/>
      <point x="302.4" y="888.3" type="curve" smooth="yes"/>
      <point x="343.7" y="888.3"/>
      <point x="366.8" y="875"/>
      <point x="371.7" y="871.5" type="curve" smooth="yes"/>
      <point x="377.3" y="868"/>
      <point x="388.5" y="861.7"/>
      <point x="396.9" y="852.6" type="curve" smooth="yes"/>
      <point x="401.1" y="848.4"/>
      <point x="404.6" y="842.8"/>
      <point x="406.7" y="837.2" type="curve" smooth="yes"/>
      <point x="408.1" y="833.7"/>
      <point x="408.8" y="830.2"/>
      <point x="409.5" y="828.1" type="curve" smooth="yes"/>
      <point x="410.2" y="823.9"/>
      <point x="410.9" y="819.7"/>
      <point x="410.9" y="815.5" type="curve" smooth="yes"/>
      <point x="410.9" y="768.6"/>
      <point x="368.9" y="739.9"/>
      <point x="343" y="725.2" type="curve" smooth="yes"/>
      <point x="310.1" y="707"/>
      <point x="275.1" y="691.6"/>
      <point x="248.5" y="672.7" type="curve" smooth="yes"/>
      <point x="238.7" y="665"/>
      <point x="229.6" y="656.6"/>
      <point x="222.6" y="647.5" type="curve"/>
      <point x="235.2" y="648.2"/>
      <point x="247.1" y="648.9"/>
      <point x="259" y="650.3" type="curve" smooth="yes"/>
      <point x="281.4" y="652.4"/>
      <point x="305.2" y="653.8"/>
      <point x="329.7" y="653.8" type="curve" smooth="yes"/>
      <point x="363.3" y="653.8"/>
      <point x="417.9" y="651.7"/>
      <point x="465.5" y="629.3" type="curve" smooth="yes"/>
      <point x="498.4" y="614.6"/>
      <point x="547.4" y="576.1"/>
      <point x="571.9" y="468.3" type="curve" smooth="yes"/>
      <point x="580.3" y="431.2"/>
      <point x="584.5" y="392.7"/>
      <point x="584.5" y="353.5" type="curve" smooth="yes"/>
      <point x="584.5" y="266"/>
      <point x="563.5" y="152.6"/>
      <point x="490.7" y="65.7998" type="curve" smooth="yes"/>
      <point x="470.4" y="42"/>
      <point x="434" y="10.5"/>
      <point x="386.4" y="5.59961" type="curve" smooth="yes"/>
      <point x="382.9" y="4.90039"/>
      <point x="379.4" y="4.90039"/>
      <point x="375.9" y="4.90039" type="curve" smooth="yes"/>
      <point x="358.4" y="4.90039"/>
      <point x="330.4" y="8.40039"/>
      <point x="312.2" y="23.7998" type="curve" smooth="yes"/>
      <point x="311.5" y="24.5"/>
      <point x="307.3" y="28"/>
      <point x="302.4" y="35.7002" type="curve" smooth="yes"/>
      <point x="295.4" y="48.2998"/>
      <point x="294.7" y="63"/>
      <point x="294.7" y="69.2998" type="curve" smooth="yes"/>
      <point x="294.7" y="73.5"/>
      <point x="294.7" y="81.9004"/>
      <point x="296.8" y="88.9004" type="curve"/>
      <point x="297.5" y="89.5996" type="line"/>
      <point x="297.5" y="90.2998" type="line"/>
      <point x="302.4" y="99.4004"/>
      <point x="303.8" y="106.4"/>
      <point x="320.6" y="115.5" type="curve" smooth="yes"/>
      <point x="329" y="119.7" type="line" smooth="yes"/>
      <point x="342.3" y="126.7"/>
      <point x="354.2" y="134.4"/>
      <point x="366.8" y="142.1" type="curve" smooth="yes"/>
      <point x="403.2" y="165.9"/>
      <point x="434" y="194.6"/>
      <point x="455" y="228.9" type="curve" smooth="yes"/>
      <point x="474.6" y="259.7"/>
      <point x="484.4" y="294.7"/>
      <point x="484.4" y="329" type="curve" smooth="yes"/>
      <point x="484.4" y="340.2"/>
      <point x="483.7" y="351.4"/>
      <point x="481.6" y="361.9" type="curve" smooth="yes"/>
      <point x="473.9" y="402.5"/>
      <point x="452.2" y="419.3"/>
      <point x="442.4" y="424.9" type="curve" smooth="yes"/>
      <point x="413.7" y="442.4"/>
      <point x="380.8" y="445.2"/>
      <point x="343" y="445.2" type="curve" smooth="yes"/>
      <point x="333.2" y="445.2"/>
      <point x="323.4" y="444.5"/>
      <point x="313.6" y="444.5" type="curve" smooth="yes"/>
      <point x="290.5" y="444.5"/>
      <point x="268.8" y="444.5"/>
      <point x="247.8" y="443.1" type="curve" smooth="yes"/>
      <point x="246.4" y="443.1"/>
      <point x="242.9" y="443.1"/>
      <point x="241.5" y="443.1" type="curve" smooth="yes"/>
      <point x="240.1" y="443.1"/>
      <point x="235.9" y="443.1"/>
      <point x="233.8" y="443.1" type="curve"/>
      <point x="233.8" y="443.1" type="line"/>
      <point x="228.9" y="438.2"/>
      <point x="226.1" y="431.9"/>
      <point x="219.1" y="424.2" type="curve" smooth="yes"/>
      <point x="192.5" y="394.8"/>
      <point x="187.6" y="380.8"/>
      <point x="186.2" y="369.6" type="curve" smooth="yes"/>
      <point x="186.2" y="369.6"/>
      <point x="186.2" y="368.2"/>
      <point x="186.2" y="367.5" type="curve" smooth="yes"/>
      <point x="186.2" y="359.1"/>
      <point x="189" y="350"/>
      <point x="193.2" y="333.9" type="curve" smooth="yes"/>
      <point x="209.3" y="276.5"/>
      <point x="227.5" y="218.4"/>
      <point x="238" y="158.2" type="curve" smooth="yes"/>
      <point x="240.8" y="142.1"/>
      <point x="245" y="121.1"/>
      <point x="245" y="99.4004" type="curve" smooth="yes"/>
      <point x="245" y="89.5996"/>
      <point x="244.3" y="79.0996"/>
      <point x="240.8" y="69.2998" type="curve" smooth="yes"/>
      <point x="234.5" y="51.7998"/>
      <point x="215.6" y="32.9004"/>
      <point x="212.8" y="29.4004" type="curve" smooth="yes"/>
      <point x="203.7" y="18.9004"/>
      <point x="193.2" y="8.40039"/>
      <point x="179.9" y="-1.40039" type="curve" smooth="yes"/>
      <point x="172.2" y="-7"/>
      <point x="163.1" y="-13.2998"/>
      <point x="151.9" y="-18.2002" type="curve" smooth="yes"/>
      <point x="144.2" y="-21.7002"/>
      <point x="127.4" y="-29.4004"/>
      <point x="111.3" y="-29.4004" type="curve" smooth="yes"/>
      <point x="110.6" y="-29.4004"/>
      <point x="109.9" y="-29.4004"/>
      <point x="109.9" y="-29.4004" type="curve" smooth="yes"/>
      <point x="102.2" y="-29.4004"/>
      <point x="100.1" y="-28.7002"/>
      <point x="94.5" y="-27.2998" type="curve" smooth="yes"/>
      <point x="91" y="-25.9004"/>
      <point x="87.5" y="-24.5"/>
      <point x="84.7002" y="-21.7002" type="curve" smooth="yes"/>
      <point x="81.9004" y="-19.5996"/>
      <point x="78.4004" y="-17.5"/>
      <point x="73.5" y="-8.40039" type="curve" smooth="yes"/>
      <point x="67.2002" y="4.2002"/>
      <point x="65.7998" y="20.2998"/>
      <point x="65.7998" y="27.2998" type="curve" smooth="yes"/>
      <point x="65.7998" y="54.5996"/>
      <point x="64.4004" y="83.2998"/>
      <point x="64.4004" y="112.7" type="curve" smooth="yes"/>
      <point x="64.4004" y="157.5"/>
      <point x="63" y="203"/>
      <point x="62.2998" y="248.5" type="curve" smooth="yes"/>
      <point x="62.2998" y="254.1"/>
      <point x="62.2998" y="259.7"/>
      <point x="62.2998" y="265.3" type="curve" smooth="yes"/>
      <point x="62.2998" y="306.6"/>
      <point x="64.4004" y="347.9"/>
      <point x="77.7002" y="389.9" type="curve" smooth="yes"/>
      <point x="84" y="412.3"/>
      <point x="93.7998" y="433.3"/>
      <point x="106.4" y="452.2" type="curve"/>
      <point x="92.4004" y="455"/>
      <point x="72.0996" y="460.6"/>
      <point x="58.0996" y="472.5" type="curve" smooth="yes"/>
      <point x="45.5" y="485.1"/>
      <point x="41.2998" y="501.2"/>
      <point x="38.5" y="513.8" type="curve" smooth="yes"/>
      <point x="34.2998" y="529.9"/>
      <point x="32.2002" y="546"/>
      <point x="32.2002" y="562.8" type="curve" smooth="yes"/>
      <point x="32.2002" y="574.7"/>
      <point x="33.5996" y="586.6"/>
      <point x="35.7002" y="598.5" type="curve" smooth="yes"/>
      <point x="37.7998" y="611.1"/>
      <point x="39.2002" y="618.1"/>
      <point x="43.4004" y="626.5" type="curve" smooth="yes"/>
      <point x="46.2002" y="632.1"/>
      <point x="49.7002" y="637.7"/>
      <point x="56.7002" y="642.6" type="curve" smooth="yes"/>
      <point x="63.7002" y="646.8"/>
      <point x="64.4004" y="647.5"/>
      <point x="70" y="648.9" type="curve" smooth="yes"/>
      <point x="72.7998" y="650.3"/>
      <point x="81.9004" y="653.8"/>
      <point x="100.1" y="653.8" type="curve" smooth="yes"/>
      <point x="102.9" y="653.8"/>
      <point x="105.7" y="653.8"/>
      <point x="108.5" y="653.1" type="curve"/>
      <point x="111.3" y="685.3"/>
      <point x="123.2" y="736.4"/>
    </contour>
  </outline>
</glyph>
<glyph name="afii57665" format="2">
  <advance width="549"/>
  <unicode hex="05D1"/>
  <outline>
    <contour>
      <point x="320.6" y="455.7" type="curve"/>
      <point x="310.1" y="456.4"/>
      <point x="299.6" y="457.1"/>
      <point x="289.1" y="457.1" type="curve" smooth="yes"/>
      <point x="277.2" y="457.1"/>
      <point x="265.3" y="456.4"/>
      <point x="253.4" y="455.7" type="curve" smooth="yes"/>
      <point x="241.5" y="454.3"/>
      <point x="228.2" y="450.8"/>
      <point x="210.7" y="450.1" type="curve" smooth="yes"/>
      <point x="209.3" y="450.1"/>
      <point x="205.8" y="450.1"/>
      <point x="204.4" y="450.1" type="curve" smooth="yes"/>
      <point x="184.8" y="450.1"/>
      <point x="167.3" y="452.9"/>
      <point x="151.9" y="454.3" type="curve" smooth="yes"/>
      <point x="131.6" y="456.4"/>
      <point x="115.5" y="454.3"/>
      <point x="99.4004" y="460.6" type="curve" smooth="yes"/>
      <point x="98.7002" y="460.6"/>
      <point x="97.2998" y="461.3"/>
      <point x="94.5" y="462.7" type="curve"/>
      <point x="93.7998" y="463.4"/>
      <point x="93.0996" y="463.4"/>
      <point x="90.2998" y="465.5" type="curve" smooth="yes"/>
      <point x="88.9004" y="466.2"/>
      <point x="88.2002" y="466.9"/>
      <point x="85.4004" y="469" type="curve" smooth="yes"/>
      <point x="57.4004" y="490.7"/>
      <point x="51.7998" y="522.9"/>
      <point x="51.7998" y="550.9" type="curve" smooth="yes"/>
      <point x="51.7998" y="578.9"/>
      <point x="57.4004" y="606.9"/>
      <point x="58.0996" y="625.8" type="curve" smooth="yes"/>
      <point x="58.7998" y="644"/>
      <point x="57.4004" y="663.6"/>
      <point x="65.7998" y="680.4" type="curve" smooth="yes"/>
      <point x="67.9004" y="685.3"/>
      <point x="71.4004" y="690.2"/>
      <point x="75.5996" y="694.4" type="curve"/>
      <point x="75.5996" y="694.4" type="line"/>
      <point x="76.2998" y="695.1" type="line"/>
      <point x="83.2998" y="699.3"/>
      <point x="86.0996" y="704.2"/>
      <point x="102.9" y="705.6" type="curve" smooth="yes"/>
      <point x="105.7" y="705.6"/>
      <point x="108.5" y="706.3"/>
      <point x="112.7" y="706.3" type="curve" smooth="yes"/>
      <point x="123.2" y="706.3"/>
      <point x="133.7" y="704.9"/>
      <point x="138.6" y="704.9" type="curve" smooth="yes"/>
      <point x="162.4" y="704.9" type="line"/>
      <point x="163.1" y="685.3" type="line" smooth="yes"/>
      <point x="163.8" y="665"/>
      <point x="184.1" y="651"/>
      <point x="212.8" y="648.2" type="curve" smooth="yes"/>
      <point x="227.5" y="646.8"/>
      <point x="242.9" y="646.8"/>
      <point x="258.3" y="646.8" type="curve" smooth="yes"/>
      <point x="266.7" y="646.8"/>
      <point x="275.1" y="646.8"/>
      <point x="283.5" y="646.8" type="curve" smooth="yes"/>
      <point x="289.1" y="646.8"/>
      <point x="295.4" y="646.8"/>
      <point x="301.7" y="646.8" type="curve" smooth="yes"/>
      <point x="359.8" y="645.4"/>
      <point x="413.7" y="644.7"/>
      <point x="462.7" y="644.7" type="curve" smooth="yes"/>
      <point x="485.1" y="644.7" type="line"/>
      <point x="483.7" y="623" type="line" smooth="yes"/>
      <point x="480.2" y="585.2"/>
      <point x="469" y="546"/>
      <point x="455" y="511.7" type="curve" smooth="yes"/>
      <point x="450.1" y="499.8"/>
      <point x="447.3" y="486.5"/>
      <point x="441.7" y="472.5" type="curve" smooth="yes"/>
      <point x="436.8" y="459.9"/>
      <point x="435.4" y="458.5"/>
      <point x="435.4" y="456.4" type="curve" smooth="yes"/>
      <point x="436.1" y="451.5"/>
      <point x="445.2" y="440.3"/>
      <point x="450.8" y="429.1" type="curve" smooth="yes"/>
      <point x="464.1" y="403.2"/>
      <point x="478.8" y="376.6"/>
      <point x="491.4" y="347.9" type="curve" smooth="yes"/>
      <point x="503.3" y="321.3"/>
      <point x="509.6" y="291.2"/>
      <point x="509.6" y="261.1" type="curve" smooth="yes"/>
      <point x="509.6" y="242.9"/>
      <point x="506.8" y="224.7"/>
      <point x="501.9" y="207.2" type="curve" smooth="yes"/>
      <point x="490" y="166.6"/>
      <point x="461.3" y="129.5"/>
      <point x="448" y="112.7" type="curve" smooth="yes"/>
      <point x="385" y="33.5996"/>
      <point x="265.3" y="-8.40039"/>
      <point x="152.6" y="-21" type="curve" smooth="yes"/>
      <point x="134.4" y="-23.0996"/>
      <point x="111.3" y="-27.2998"/>
      <point x="91" y="-27.2998" type="curve" smooth="yes"/>
      <point x="83.2998" y="-27.2998"/>
      <point x="76.2998" y="-26.5996"/>
      <point x="68.5996" y="-25.2002" type="curve" smooth="yes"/>
      <point x="60.9004" y="-23.7998"/>
      <point x="51.7998" y="-21.7002"/>
      <point x="43.4004" y="-15.4004" type="curve" smooth="yes"/>
      <point x="37.7998" y="-11.9004"/>
      <point x="32.2002" y="-5.59961"/>
      <point x="30.0996" y="2.7998" type="curve" smooth="yes"/>
      <point x="25.2002" y="19.5996"/>
      <point x="24.5" y="37.7998"/>
      <point x="24.5" y="46.2002" type="curve" smooth="yes"/>
      <point x="24.5" y="55.2998"/>
      <point x="25.2002" y="63.7002"/>
      <point x="25.9004" y="72.0996" type="curve" smooth="yes"/>
      <point x="30.0996" y="105"/>
      <point x="31.5" y="145.6"/>
      <point x="61.5996" y="167.3" type="curve"/>
      <point x="62.2998" y="168" type="line"/>
      <point x="62.2998" y="168" type="line"/>
      <point x="63.7002" y="168.7"/>
      <point x="72.7998" y="172.9"/>
      <point x="75.5996" y="173.6" type="curve" smooth="yes"/>
      <point x="82.5996" y="175"/>
      <point x="88.9004" y="174.3"/>
      <point x="92.4004" y="174.3" type="curve" smooth="yes"/>
      <point x="101.5" y="175"/>
      <point x="116.9" y="175"/>
      <point x="126.7" y="175.7" type="curve" smooth="yes"/>
      <point x="137.9" y="176.4"/>
      <point x="148.4" y="177.1"/>
      <point x="158.9" y="177.1" type="curve" smooth="yes"/>
      <point x="173.6" y="177.1"/>
      <point x="187.6" y="176.4"/>
      <point x="200.9" y="176.4" type="curve" smooth="yes"/>
      <point x="246.4" y="176.4"/>
      <point x="293.3" y="177.1"/>
      <point x="334.6" y="185.5" type="curve" smooth="yes"/>
      <point x="360.5" y="191.1"/>
      <point x="376.6" y="194.6"/>
      <point x="385" y="200.2" type="curve" smooth="yes"/>
      <point x="385.7" y="200.2"/>
      <point x="386.4" y="200.9"/>
      <point x="386.4" y="201.6" type="curve"/>
      <point x="389.2" y="204.4"/>
      <point x="388.5" y="206.5"/>
      <point x="388.5" y="207.2" type="curve" smooth="yes"/>
      <point x="388.5" y="212.8"/>
      <point x="383.6" y="220.5"/>
      <point x="381.5" y="224" type="curve" smooth="yes"/>
      <point x="365.4" y="245.7"/>
      <point x="338.8" y="263.9"/>
      <point x="310.1" y="283.5" type="curve" smooth="yes"/>
      <point x="301.7" y="289.1"/>
      <point x="289.8" y="294.7"/>
      <point x="281.4" y="302.4" type="curve" smooth="yes"/>
      <point x="276.5" y="306.6"/>
      <point x="273" y="310.8"/>
      <point x="270.9" y="315" type="curve" smooth="yes"/>
      <point x="270.2" y="317.1"/>
      <point x="269.5" y="322.7"/>
      <point x="269.5" y="325.5" type="curve" smooth="yes"/>
      <point x="269.5" y="331.1"/>
      <point x="270.9" y="336"/>
      <point x="271.6" y="338.1" type="curve" smooth="yes"/>
      <point x="273" y="345.8"/>
      <point x="275.8" y="362.6"/>
      <point x="283.5" y="378" type="curve" smooth="yes"/>
      <point x="296.1" y="404.6"/>
      <point x="310.8" y="430.5"/>
    </contour>
    <contour>
      <point x="431.9" y="452.2" type="line"/>
      <point x="431.9" y="452.2"/>
      <point x="432.6" y="452.9"/>
      <point x="433.3" y="453.6" type="curve"/>
      <point x="428.4" y="453.6" type="line"/>
    </contour>
  </outline>
</glyph>
<glyph name="afii57667" format="2">
  <advance width="585"/>
  <unicode hex="05D3"/>
  <outline>
    <contour>
      <point x="44.7998" y="679.7" type="curve" smooth="yes"/>
      <point x="46.9004" y="694.4" type="line"/>
      <point x="127.4" y="694.4" type="line"/>
      <point x="131.6" y="683.9" type="line"/>
      <point x="133.7" y="674.8"/>
      <point x="142.8" y="658.7"/>
      <point x="156.8" y="654.5" type="curve" smooth="yes"/>
      <point x="160.3" y="653.8"/>
      <point x="171.5" y="651"/>
      <point x="193.9" y="651" type="curve" smooth="yes"/>
      <point x="194.6" y="651" type="line" smooth="yes"/>
      <point x="209.3" y="651"/>
      <point x="226.1" y="652.4"/>
      <point x="241.5" y="652.4" type="curve" smooth="yes"/>
      <point x="506.1" y="652.4" type="line" smooth="yes"/>
      <point x="509.6" y="652.4"/>
      <point x="512.4" y="652.4"/>
      <point x="516.6" y="652.4" type="curve" smooth="yes"/>
      <point x="530.6" y="652.4"/>
      <point x="546" y="648.9"/>
      <point x="553.7" y="631.4" type="curve" smooth="yes"/>
      <point x="560" y="616.7"/>
      <point x="562.8" y="602"/>
      <point x="562.8" y="586.6" type="curve" smooth="yes"/>
      <point x="562.8" y="553.7"/>
      <point x="551.6" y="524.3"/>
      <point x="536.9" y="504" type="curve" smooth="yes"/>
      <point x="522.9" y="485.8"/>
      <point x="517.3" y="486.5"/>
      <point x="513.1" y="481.6" type="curve"/>
      <point x="511.7" y="480.9"/>
      <point x="511" y="480.2"/>
      <point x="511" y="479.5" type="curve"/>
      <point x="510.3" y="478.1"/>
      <point x="510.3" y="475.3"/>
      <point x="510.3" y="471.8" type="curve" smooth="yes"/>
      <point x="510.3" y="462"/>
      <point x="513.1" y="445.9"/>
      <point x="513.1" y="434.7" type="curve" smooth="yes"/>
      <point x="513.1" y="434"/>
      <point x="512.4" y="432.6"/>
      <point x="512.4" y="431.9" type="curve" smooth="yes"/>
      <point x="511.7" y="404.6"/>
      <point x="506.8" y="376.6"/>
      <point x="502.6" y="351.4" type="curve" smooth="yes"/>
      <point x="487.9" y="268.8"/>
      <point x="457.1" y="191.1"/>
      <point x="438.9" y="112.7" type="curve" smooth="yes"/>
      <point x="431.9" y="84"/>
      <point x="422.1" y="55.2998"/>
      <point x="411.6" y="28.7002" type="curve" smooth="yes"/>
      <point x="408.8" y="21"/>
      <point x="404.6" y="1.40039"/>
      <point x="390.6" y="-11.9004" type="curve"/>
      <point x="390.6" y="-11.9004" type="line"/>
      <point x="390.6" y="-11.9004" type="line"/>
      <point x="387.1" y="-14.7002"/>
      <point x="383.6" y="-18.9004"/>
      <point x="371" y="-23.0996" type="curve" smooth="yes"/>
      <point x="360.5" y="-26.5996"/>
      <point x="350" y="-28.7002"/>
      <point x="340.2" y="-28.7002" type="curve" smooth="yes"/>
      <point x="339.5" y="-28.7002" type="line" smooth="yes"/>
      <point x="337.4" y="-28.7002"/>
      <point x="331.8" y="-28"/>
      <point x="329.7" y="-28" type="curve" smooth="yes"/>
      <point x="329" y="-28"/>
      <point x="326.2" y="-27.2998"/>
      <point x="325.5" y="-27.2998" type="curve" smooth="yes"/>
      <point x="324.1" y="-27.2998"/>
      <point x="321.3" y="-26.5996"/>
      <point x="320.6" y="-26.5996" type="curve"/>
      <point x="319.2" y="-25.9004"/>
      <point x="316.4" y="-25.2002"/>
      <point x="315.7" y="-25.2002" type="curve"/>
      <point x="300.3" y="-19.5996"/>
      <point x="287" y="-8.40039"/>
      <point x="281.4" y="-4.2002" type="curve" smooth="yes"/>
      <point x="247.1" y="18.9004"/>
      <point x="210" y="47.5996"/>
      <point x="210" y="84" type="curve" smooth="yes"/>
      <point x="210" y="85.4004" type="line" smooth="yes"/>
      <point x="211.4" y="133"/>
      <point x="243.6" y="177.8"/>
      <point x="261.8" y="205.8" type="curve" smooth="yes"/>
      <point x="364.7" y="368.2" type="line" smooth="yes"/>
      <point x="378" y="390.6"/>
      <point x="404.6" y="420"/>
      <point x="404.6" y="442.4" type="curve" smooth="yes"/>
      <point x="404.6" y="443.8"/>
      <point x="404.6" y="444.5"/>
      <point x="404.6" y="445.9" type="curve"/>
      <point x="403.9" y="445.9"/>
      <point x="402.5" y="445.9"/>
      <point x="401.8" y="445.9" type="curve" smooth="yes"/>
      <point x="387.1" y="448"/>
      <point x="371" y="448.7"/>
      <point x="356.3" y="448.7" type="curve" smooth="yes"/>
      <point x="348.6" y="448.7"/>
      <point x="340.9" y="448.7"/>
      <point x="333.9" y="448" type="curve" smooth="yes"/>
      <point x="324.1" y="446.6"/>
      <point x="316.4" y="446.6"/>
      <point x="308.7" y="446.6" type="curve" smooth="yes"/>
      <point x="305.9" y="446.6" type="line" smooth="yes"/>
      <point x="300.3" y="446.6"/>
      <point x="294.7" y="446.6"/>
      <point x="288.4" y="445.9" type="curve" smooth="yes"/>
      <point x="249.2" y="443.8"/>
      <point x="210" y="442.4"/>
      <point x="171.5" y="441" type="curve" smooth="yes"/>
      <point x="163.8" y="440.3"/>
      <point x="156.1" y="440.3"/>
      <point x="147.7" y="440.3" type="curve" smooth="yes"/>
      <point x="120.4" y="440.3"/>
      <point x="87.5" y="441.7"/>
      <point x="61.5996" y="459.9" type="curve" smooth="yes"/>
      <point x="31.5" y="480.2"/>
      <point x="30.7998" y="522.9"/>
      <point x="30.0996" y="534.8" type="curve" smooth="yes"/>
      <point x="30.0996" y="539.7"/>
      <point x="30.0996" y="544.6"/>
      <point x="30.0996" y="549.5" type="curve" smooth="yes"/>
      <point x="30.0996" y="595"/>
      <point x="39.2002" y="637.7"/>
    </contour>
  </outline>
</glyph>
<glyph name="afii57669" format="2">
  <advance width="392"/>
  <unicode hex="05D5"/>
  <outline>
    <contour>
      <point x="218.4" y="192.5" type="curve" smooth="yes"/>
      <point x="222.6" y="254.8"/>
      <point x="209.3" y="315"/>
      <point x="175.7" y="371" type="curve" smooth="yes"/>
      <point x="155.4" y="406.7"/>
      <point x="119" y="436.8"/>
      <point x="84.7002" y="461.3" type="curve" smooth="yes"/>
      <point x="63" y="476.7"/>
      <point x="44.0996" y="480.2"/>
      <point x="30.0996" y="502.6" type="curve" smooth="yes"/>
      <point x="25.9004" y="509.6"/>
      <point x="23.0996" y="518.7"/>
      <point x="22.4004" y="527.8" type="curve" smooth="yes"/>
      <point x="22.4004" y="531.3"/>
      <point x="22.4004" y="534.1"/>
      <point x="22.4004" y="537.6" type="curve" smooth="yes"/>
      <point x="22.4004" y="560"/>
      <point x="30.0996" y="598.5"/>
      <point x="63" y="650.3" type="curve" smooth="yes"/>
      <point x="72.0996" y="663.6"/>
      <point x="86.0996" y="683.9"/>
      <point x="115.5" y="689.5" type="curve" smooth="yes"/>
      <point x="122.5" y="690.9"/>
      <point x="129.5" y="690.9"/>
      <point x="135.8" y="690.9" type="curve" smooth="yes"/>
      <point x="149.8" y="690.9"/>
      <point x="168" y="691.6"/>
      <point x="205.1" y="678.3" type="curve" smooth="yes"/>
      <point x="254.8" y="660.8"/>
      <point x="284.9" y="629.3"/>
      <point x="301.7" y="599.9" type="curve" smooth="yes"/>
      <point x="313.6" y="579.6"/>
      <point x="318.5" y="556.5"/>
      <point x="322" y="538.3" type="curve" smooth="yes"/>
      <point x="329" y="504.7"/>
      <point x="331.8" y="471.1"/>
      <point x="331.8" y="437.5" type="curve" smooth="yes"/>
      <point x="331.8" y="427"/>
      <point x="331.1" y="417.2"/>
      <point x="331.1" y="407.4" type="curve" smooth="yes"/>
      <point x="326.9" y="318.5"/>
      <point x="328.3" y="227.5"/>
      <point x="319.2" y="136.5" type="curve" smooth="yes"/>
      <point x="316.4" y="106.4"/>
      <point x="315.7" y="75.5996"/>
      <point x="311.5" y="43.4004" type="curve" smooth="yes"/>
      <point x="310.1" y="32.9004"/>
      <point x="310.1" y="23.0996"/>
      <point x="307.3" y="13.2998" type="curve" smooth="yes"/>
      <point x="306.6" y="11.9004"/>
      <point x="305.9" y="9.7998"/>
      <point x="305.2" y="9.09961" type="curve"/>
      <point x="305.2" y="8.40039"/>
      <point x="303.8" y="5.59961"/>
      <point x="303.1" y="3.5" type="curve"/>
      <point x="301" y="0.700195"/>
      <point x="299.6" y="-0.700195"/>
      <point x="298.2" y="-1.40039" type="curve" smooth="yes"/>
      <point x="294" y="-4.90039"/>
      <point x="289.8" y="-9.7998"/>
      <point x="274.4" y="-14" type="curve" smooth="yes"/>
      <point x="263.2" y="-16.7998"/>
      <point x="251.3" y="-16.7998"/>
      <point x="245" y="-16.7998" type="curve"/>
      <point x="245" y="-20.2998"/>
      <point x="245" y="-20.2998"/>
      <point x="245" y="-16.7998" type="curve"/>
      <point x="242.2" y="-16.7998"/>
      <point x="233.8" y="-16.7998"/>
      <point x="231" y="-16.7998" type="curve" smooth="yes"/>
      <point x="201.6" y="-16.7998" type="line"/>
      <point x="201.6" y="0.700195" type="line" smooth="yes"/>
      <point x="201.6" y="65.0996"/>
      <point x="214.2" y="129.5"/>
    </contour>
  </outline>
</glyph>
<glyph name="afii57673" format="2">
  <advance width="354"/>
  <unicode hex="05D9"/>
  <outline>
    <contour>
      <point x="62.2998" y="680.4" type="line"/>
      <point x="157.5" y="690.9" type="line"/>
      <point x="150.5" y="680.4" type="line"/>
      <point x="149.8" y="675.5"/>
      <point x="148.4" y="674.1"/>
      <point x="148.4" y="672.7" type="curve" smooth="yes"/>
      <point x="151.2" y="658"/>
      <point x="153.3" y="648.9"/>
      <point x="156.8" y="644.7" type="curve" smooth="yes"/>
      <point x="179.9" y="615.3"/>
      <point x="242.2" y="606.2"/>
      <point x="280" y="586.6" type="curve" smooth="yes"/>
      <point x="307.3" y="572.6"/>
      <point x="333.2" y="552.3"/>
      <point x="339.5" y="524.3" type="curve" smooth="yes"/>
      <point x="341.6" y="518"/>
      <point x="341.6" y="511.7"/>
      <point x="341.6" y="506.1" type="curve" smooth="yes"/>
      <point x="341.6" y="497"/>
      <point x="340.9" y="488.6"/>
      <point x="340.2" y="481.6" type="curve" smooth="yes"/>
      <point x="335.3" y="405.3"/>
      <point x="305.9" y="332.5"/>
      <point x="258.3" y="273.7" type="curve"/>
      <point x="258.3" y="273.7" type="line"/>
      <point x="258.3" y="273.7" type="line"/>
      <point x="244.3" y="260.4"/>
      <point x="229.6" y="248.5"/>
      <point x="212.8" y="236.6" type="curve"/>
      <point x="211.4" y="239.4" type="line"/>
      <point x="210" y="239.4" type="line" smooth="yes"/>
      <point x="203" y="239.4"/>
      <point x="195.3" y="238.7"/>
      <point x="183.4" y="238.7" type="curve" smooth="yes"/>
      <point x="177.8" y="238"/>
      <point x="172.9" y="238"/>
      <point x="168" y="238" type="curve" smooth="yes"/>
      <point x="161.7" y="238"/>
      <point x="156.1" y="238"/>
      <point x="150.5" y="239.4" type="curve" smooth="yes"/>
      <point x="135.8" y="242.2"/>
      <point x="137.9" y="241.5"/>
      <point x="133.7" y="243.6" type="curve"/>
      <point x="128.8" y="242.2"/>
      <point x="125.3" y="241.5"/>
      <point x="122.5" y="240.8" type="curve"/>
      <point x="121.1" y="240.8" type="line"/>
      <point x="119.7" y="241.5" type="line"/>
      <point x="112" y="247.1"/>
      <point x="110.6" y="247.8"/>
      <point x="108.5" y="249.9" type="curve"/>
      <point x="107.8" y="249.9"/>
      <point x="105" y="252"/>
      <point x="104.3" y="253.4" type="curve"/>
      <point x="104.3" y="253.4" type="line"/>
      <point x="104.3" y="253.4" type="line"/>
      <point x="103.6" y="254.1"/>
      <point x="101.5" y="256.9"/>
      <point x="101.5" y="257.6" type="curve"/>
      <point x="100.8" y="258.3"/>
      <point x="98.7002" y="261.8"/>
      <point x="98.7002" y="263.2" type="curve"/>
      <point x="98" y="266"/>
      <point x="97.2998" y="270.2"/>
      <point x="97.2998" y="271.6" type="curve" smooth="yes"/>
      <point x="97.2998" y="272.3" type="line"/>
      <point x="97.2998" y="273" type="line"/>
      <point x="98" y="275.1"/>
      <point x="101.5" y="287"/>
      <point x="104.3" y="289.8" type="curve"/>
      <point x="104.3" y="289.8" type="line"/>
      <point x="104.3" y="289.8" type="line"/>
      <point x="108.5" y="294"/>
      <point x="112" y="295.4"/>
      <point x="114.1" y="296.8" type="curve" smooth="yes"/>
      <point x="125.3" y="305.2"/>
      <point x="136.5" y="314.3"/>
      <point x="147" y="324.1" type="curve" smooth="yes"/>
      <point x="156.8" y="331.8"/>
      <point x="201.6" y="370.3"/>
      <point x="201.6" y="401.1" type="curve" smooth="yes"/>
      <point x="201.6" y="406.7"/>
      <point x="200.2" y="410.9"/>
      <point x="198.1" y="415.1" type="curve"/>
      <point x="196" y="415.8"/>
      <point x="189" y="420"/>
      <point x="165.2" y="425.6" type="curve" smooth="yes"/>
      <point x="126" y="436.1"/>
      <point x="83.2998" y="442.4"/>
      <point x="55.2998" y="458.5" type="curve"/>
      <point x="55.2998" y="458.5" type="line"/>
      <point x="55.2998" y="459.2" type="line"/>
      <point x="30.0996" y="483.7"/>
      <point x="19.5996" y="518"/>
      <point x="19.5996" y="556.5" type="curve" smooth="yes"/>
      <point x="19.5996" y="592.2"/>
      <point x="34.2998" y="628.6"/>
      <point x="41.2998" y="645.4" type="curve" smooth="yes"/>
      <point x="45.5" y="656.6"/>
      <point x="52.5" y="672"/>
      <point x="55.2998" y="681.8" type="curve"/>
      <point x="56.7002" y="683.2" type="line"/>
    </contour>
  </outline>
</glyph>
<glyph name="afii57674" format="2">
  <advance width="549"/>
  <unicode hex="05DA"/>
  <outline>
    <contour>
      <point x="366.1" y="447.3" type="curve"/>
      <point x="179.9" y="447.3" type="line" smooth="yes"/>
      <point x="167.3" y="447.3"/>
      <point x="151.9" y="446.6"/>
      <point x="136.5" y="446.6" type="curve" smooth="yes"/>
      <point x="112" y="446.6"/>
      <point x="88.2002" y="448.7"/>
      <point x="66.5" y="463.4" type="curve" smooth="yes"/>
      <point x="29.4004" y="487.9"/>
      <point x="28" y="521.5"/>
      <point x="28" y="556.5" type="curve" smooth="yes"/>
      <point x="28" y="557.9" type="line" smooth="yes"/>
      <point x="28" y="583.8"/>
      <point x="28.7002" y="609"/>
      <point x="32.2002" y="634.9" type="curve" smooth="yes"/>
      <point x="33.5996" y="645.4"/>
      <point x="35.7002" y="655.2"/>
      <point x="37.0996" y="665" type="curve" smooth="yes"/>
      <point x="38.5" y="673.4"/>
      <point x="38.5" y="675.5"/>
      <point x="39.9004" y="678.3" type="curve" smooth="yes"/>
      <point x="40.5996" y="680.4"/>
      <point x="44.0996" y="683.9"/>
      <point x="44.7998" y="685.3" type="curve"/>
      <point x="45.5" y="686" type="line"/>
      <point x="46.2002" y="686" type="line"/>
      <point x="47.5996" y="686.7"/>
      <point x="58.0996" y="691.6"/>
      <point x="61.5996" y="692.3" type="curve" smooth="yes"/>
      <point x="65.0996" y="693"/>
      <point x="69.2998" y="693"/>
      <point x="70.7002" y="693" type="curve" smooth="yes"/>
      <point x="82.5996" y="694.4"/>
      <point x="94.5" y="695.8"/>
      <point x="105.7" y="697.2" type="curve" smooth="yes"/>
      <point x="129.5" y="701.4" type="line"/>
      <point x="133" y="684.6" type="line" smooth="yes"/>
      <point x="138.6" y="658.7"/>
      <point x="183.4" y="648.9"/>
      <point x="238.7" y="648.9" type="curve"/>
      <point x="238.7" y="648.9" type="line"/>
      <point x="270.9" y="648.9"/>
      <point x="310.8" y="654.5"/>
      <point x="346.5" y="654.5" type="curve" smooth="yes"/>
      <point x="384.3" y="654.5"/>
      <point x="420" y="647.5"/>
      <point x="448" y="621.6" type="curve" smooth="yes"/>
      <point x="453.6" y="616.7"/>
      <point x="462" y="607.6"/>
      <point x="471.8" y="590.8" type="curve" smooth="yes"/>
      <point x="480.2" y="576.8"/>
      <point x="484.4" y="561.4"/>
      <point x="486.5" y="547.4" type="curve" smooth="yes"/>
      <point x="488.6" y="536.2"/>
      <point x="490" y="524.3"/>
      <point x="490" y="513.1" type="curve" smooth="yes"/>
      <point x="490" y="443.8"/>
      <point x="454.3" y="378"/>
      <point x="454.3" y="314.3" type="curve" smooth="yes"/>
      <point x="454.3" y="312.2"/>
      <point x="454.3" y="310.1"/>
      <point x="454.3" y="307.3" type="curve" smooth="yes"/>
      <point x="457.1" y="255.5"/>
      <point x="464.8" y="202.3"/>
      <point x="471.8" y="148.4" type="curve" smooth="yes"/>
      <point x="478.1" y="94.5"/>
      <point x="484.4" y="40.5996"/>
      <point x="491.4" y="-13.2998" type="curve" smooth="yes"/>
      <point x="496.3" y="-50.4004"/>
      <point x="500.5" y="-87.5"/>
      <point x="504" y="-124.6" type="curve" smooth="yes"/>
      <point x="505.4" y="-139.3"/>
      <point x="508.2" y="-155.4"/>
      <point x="508.2" y="-172.2" type="curve" smooth="yes"/>
      <point x="508.2" y="-173.6"/>
      <point x="508.2" y="-177.8"/>
      <point x="507.5" y="-179.2" type="curve" smooth="yes"/>
      <point x="505.4" y="-227.5"/>
      <point x="484.4" y="-270.9"/>
      <point x="450.8" y="-303.8" type="curve" smooth="yes"/>
      <point x="413.7" y="-340.9"/>
      <point x="380.8" y="-341.6"/>
      <point x="364.7" y="-341.6" type="curve" smooth="yes"/>
      <point x="364" y="-341.6"/>
      <point x="362.6" y="-341.6"/>
      <point x="361.2" y="-341.6" type="curve" smooth="yes"/>
      <point x="359.8" y="-341.6"/>
      <point x="359.1" y="-341.6"/>
      <point x="358.4" y="-340.9" type="curve"/>
      <point x="350.7" y="-339.5"/>
      <point x="341.6" y="-340.2"/>
      <point x="330.4" y="-328.3" type="curve" smooth="yes"/>
      <point x="316.4" y="-313.6"/>
      <point x="312.9" y="-291.2"/>
      <point x="311.5" y="-278.6" type="curve" smooth="yes"/>
      <point x="310.8" y="-270.9"/>
      <point x="310.1" y="-263.2"/>
      <point x="310.1" y="-256.2" type="curve" smooth="yes"/>
      <point x="310.1" y="-242.2"/>
      <point x="311.5" y="-229.6"/>
      <point x="311.5" y="-218.4" type="curve" smooth="yes"/>
      <point x="311.5" y="-187.6"/>
      <point x="310.1" y="-156.8"/>
      <point x="310.1" y="-126" type="curve" smooth="yes"/>
      <point x="310.1" y="-44.0996"/>
      <point x="308.7" y="37.7998"/>
      <point x="308.7" y="119.7" type="curve" smooth="yes"/>
      <point x="308.7" y="135.1" type="line"/>
      <point x="308.7" y="135.8" type="line"/>
      <point x="321.3" y="217"/>
      <point x="322" y="298.2"/>
      <point x="343" y="381.5" type="curve" smooth="yes"/>
      <point x="348.6" y="405.3"/>
      <point x="357" y="426.3"/>
    </contour>
  </outline>
</glyph>
<glyph name="afii57678" format="2">
  <advance width="745"/>
  <unicode hex="05DE"/>
  <outline>
    <contour>
      <point x="465.5" y="675.5" type="curve" smooth="yes"/>
      <point x="568.4" y="675.5"/>
      <point x="637.7" y="606.9"/>
      <point x="665.7" y="538.3" type="curve" smooth="yes"/>
      <point x="688.8" y="483"/>
      <point x="697.2" y="424.9"/>
      <point x="697.2" y="367.5" type="curve" smooth="yes"/>
      <point x="697.2" y="334.6"/>
      <point x="694.4" y="301.7"/>
      <point x="690.2" y="270.2" type="curve" smooth="yes"/>
      <point x="682.5" y="216.3"/>
      <point x="669.2" y="163.1"/>
      <point x="640.5" y="113.4" type="curve" smooth="yes"/>
      <point x="615.3" y="69.2998"/>
      <point x="573.3" y="29.4004"/>
      <point x="516.6" y="2.7998" type="curve" smooth="yes"/>
      <point x="476" y="-15.4004"/>
      <point x="450.8" y="-18.9004"/>
      <point x="434.7" y="-18.9004" type="curve" smooth="yes"/>
      <point x="432.6" y="-18.9004"/>
      <point x="427" y="-18.2002"/>
      <point x="424.9" y="-18.2002" type="curve" smooth="yes"/>
      <point x="406" y="-16.7998"/>
      <point x="394.8" y="-16.0996"/>
      <point x="382.2" y="-11.9004" type="curve" smooth="yes"/>
      <point x="380.8" y="-11.9004"/>
      <point x="378.7" y="-11.2002"/>
      <point x="375.9" y="-9.7998" type="curve"/>
      <point x="375.2" y="-9.7998"/>
      <point x="373.1" y="-8.40039"/>
      <point x="370.3" y="-7.7002" type="curve"/>
      <point x="369.6" y="-7"/>
      <point x="366.8" y="-6.2998"/>
      <point x="364.7" y="-4.2002" type="curve" smooth="yes"/>
      <point x="356.3" y="2.7998"/>
      <point x="355.6" y="2.7998"/>
      <point x="351.4" y="8.40039" type="curve" smooth="yes"/>
      <point x="340.2" y="25.2002"/>
      <point x="340.2" y="46.2002"/>
      <point x="339.5" y="54.5996" type="curve" smooth="yes"/>
      <point x="338.8" y="58.7998"/>
      <point x="337.4" y="63"/>
      <point x="337.4" y="69.2998" type="curve" smooth="yes"/>
      <point x="337.4" y="72.7998"/>
      <point x="338.1" y="78.4004"/>
      <point x="340.2" y="83.2998" type="curve" smooth="yes"/>
      <point x="340.9" y="86.0996"/>
      <point x="341.6" y="90.2998"/>
      <point x="347.9" y="97.2998" type="curve" smooth="yes"/>
      <point x="348.6" y="98"/>
      <point x="350" y="99.4004"/>
      <point x="350.7" y="100.1" type="curve" smooth="yes"/>
      <point x="352.8" y="102.2"/>
      <point x="354.2" y="103.6"/>
      <point x="355.6" y="104.3" type="curve" smooth="yes"/>
      <point x="380.1" y="126.7"/>
      <point x="413" y="135.1"/>
      <point x="439.6" y="142.8" type="curve" smooth="yes"/>
      <point x="480.2" y="154"/>
      <point x="510.3" y="163.1"/>
      <point x="534.8" y="180.6" type="curve" smooth="yes"/>
      <point x="574" y="208.6"/>
      <point x="593.6" y="249.9"/>
      <point x="593.6" y="300.3" type="curve" smooth="yes"/>
      <point x="593.6" y="304.5" type="line" smooth="yes"/>
      <point x="593.6" y="326.9"/>
      <point x="592.2" y="334.6"/>
      <point x="589.4" y="341.6" type="curve" smooth="yes"/>
      <point x="585.9" y="354.2"/>
      <point x="576.1" y="373.8"/>
      <point x="554.4" y="397.6" type="curve" smooth="yes"/>
      <point x="544.6" y="408.1"/>
      <point x="522.9" y="431.9"/>
      <point x="497" y="440.3" type="curve" smooth="yes"/>
      <point x="474.6" y="448"/>
      <point x="450.8" y="450.8"/>
      <point x="427" y="450.8" type="curve" smooth="yes"/>
      <point x="399.7" y="450.8"/>
      <point x="373.1" y="446.6"/>
      <point x="347.2" y="438.9" type="curve" smooth="yes"/>
      <point x="336" y="435.4"/>
      <point x="325.5" y="431.9"/>
      <point x="315" y="427" type="curve"/>
      <point x="314.3" y="427" type="line"/>
      <point x="315" y="422.1"/>
      <point x="316.4" y="415.1"/>
      <point x="316.4" y="410.2" type="curve" smooth="yes"/>
      <point x="316.4" y="405.3"/>
      <point x="316.4" y="401.1"/>
      <point x="316.4" y="396.2" type="curve" smooth="yes"/>
      <point x="316.4" y="375.2"/>
      <point x="316.4" y="354.2"/>
      <point x="315" y="332.5" type="curve" smooth="yes"/>
      <point x="312.2" y="260.4"/>
      <point x="300.3" y="187.6"/>
      <point x="261.1" y="115.5" type="curve" smooth="yes"/>
      <point x="242.9" y="80.5"/>
      <point x="226.8" y="39.9004"/>
      <point x="193.9" y="6.2998" type="curve" smooth="yes"/>
      <point x="166.6" y="-20.2998"/>
      <point x="142.1" y="-28.7002"/>
      <point x="126.7" y="-31.5" type="curve" smooth="yes"/>
      <point x="121.1" y="-32.2002"/>
      <point x="116.2" y="-32.2002"/>
      <point x="110.6" y="-32.2002" type="curve" smooth="yes"/>
      <point x="104.3" y="-32.2002"/>
      <point x="93.0996" y="-32.2002"/>
      <point x="77.7002" y="-27.2998" type="curve" smooth="yes"/>
      <point x="64.4004" y="-23.7998"/>
      <point x="49" y="-18.2002"/>
      <point x="37.0996" y="-4.90039" type="curve" smooth="yes"/>
      <point x="34.2998" y="-1.40039"/>
      <point x="30.7998" y="2.09961"/>
      <point x="28.7002" y="6.2998" type="curve" smooth="yes"/>
      <point x="23.7998" y="16.7998"/>
      <point x="24.5" y="28.7002"/>
      <point x="24.5" y="33.5996" type="curve" smooth="yes"/>
      <point x="24.5" y="39.2002"/>
      <point x="24.5" y="39.2002"/>
      <point x="24.5" y="42.7002" type="curve" smooth="yes"/>
      <point x="24.5" y="43.4004"/>
      <point x="24.5" y="44.7998"/>
      <point x="24.5" y="46.2002" type="curve" smooth="yes"/>
      <point x="24.5" y="46.9004" type="line" smooth="yes"/>
      <point x="24.5" y="51.0996"/>
      <point x="24.5" y="55.2998"/>
      <point x="25.2002" y="60.9004" type="curve" smooth="yes"/>
      <point x="25.2002" y="61.5996"/>
      <point x="25.9004" y="65.0996"/>
      <point x="25.9004" y="66.5" type="curve"/>
      <point x="26.5996" y="67.9004"/>
      <point x="28" y="71.4004"/>
      <point x="28" y="72.7998" type="curve"/>
      <point x="28.7002" y="73.5"/>
      <point x="30.0996" y="77.7002"/>
      <point x="31.5" y="79.0996" type="curve" smooth="yes"/>
      <point x="43.4004" y="98.7002"/>
      <point x="62.2998" y="109.9"/>
      <point x="72.0996" y="119" type="curve" smooth="yes"/>
      <point x="91" y="135.1"/>
      <point x="109.2" y="152.6"/>
      <point x="136.5" y="172.2" type="curve" smooth="yes"/>
      <point x="166.6" y="191.8"/>
      <point x="205.8" y="233.8"/>
      <point x="205.8" y="306.6" type="curve" smooth="yes"/>
      <point x="205.8" y="318.5"/>
      <point x="205.1" y="330.4"/>
      <point x="203" y="340.9" type="curve" smooth="yes"/>
      <point x="196.7" y="380.1"/>
      <point x="171.5" y="416.5"/>
      <point x="126" y="445.2" type="curve" smooth="yes"/>
      <point x="105" y="457.1"/>
      <point x="90.2998" y="470.4"/>
      <point x="74.9004" y="483.7" type="curve" smooth="yes"/>
      <point x="63.7002" y="494.2"/>
      <point x="49.7002" y="508.2"/>
      <point x="45.5" y="527.8" type="curve"/>
      <point x="45.5" y="529.9"/>
      <point x="44.7998" y="534.8"/>
      <point x="44.7998" y="536.2" type="curve" smooth="yes"/>
      <point x="44.7998" y="545.3"/>
      <point x="48.2998" y="555.1"/>
      <point x="49.7002" y="559.3" type="curve" smooth="yes"/>
      <point x="56" y="583.1"/>
      <point x="66.5" y="604.8"/>
      <point x="81.2002" y="625.1" type="curve" smooth="yes"/>
      <point x="85.4004" y="631.4"/>
      <point x="98.7002" y="651"/>
      <point x="119" y="662.2" type="curve"/>
      <point x="119" y="662.2" type="line"/>
      <point x="119.7" y="662.2" type="line"/>
      <point x="128.1" y="665.7"/>
      <point x="147" y="672"/>
      <point x="174.3" y="672" type="curve" smooth="yes"/>
      <point x="206.5" y="672"/>
      <point x="224.7" y="662.9"/>
      <point x="235.9" y="653.8" type="curve" smooth="yes"/>
      <point x="269.5" y="626.5"/>
      <point x="284.2" y="588"/>
      <point x="294.7" y="557.9" type="curve" smooth="yes"/>
      <point x="296.1" y="552.3"/>
      <point x="298.2" y="547.4"/>
      <point x="299.6" y="541.8" type="curve"/>
      <point x="305.2" y="552.3" type="line" smooth="yes"/>
      <point x="324.1" y="581"/>
      <point x="344.4" y="610.4"/>
      <point x="370.3" y="638.4" type="curve" smooth="yes"/>
      <point x="381.5" y="649.6"/>
      <point x="389.9" y="660.8"/>
      <point x="403.9" y="667.8" type="curve"/>
      <point x="404.6" y="667.8"/>
      <point x="406.7" y="669.2"/>
      <point x="409.5" y="669.9" type="curve" smooth="yes"/>
      <point x="423.5" y="673.4"/>
      <point x="420" y="673.4"/>
      <point x="427.7" y="673.4" type="curve" smooth="yes"/>
      <point x="429.1" y="673.4"/>
      <point x="431.2" y="674.1"/>
      <point x="432.6" y="674.1" type="curve" smooth="yes"/>
      <point x="436.8" y="674.1"/>
      <point x="438.9" y="674.1"/>
      <point x="441" y="674.1" type="curve" smooth="yes"/>
      <point x="449.4" y="674.8"/>
      <point x="457.8" y="675.5"/>
    </contour>
  </outline>
</glyph>
<glyph name="afii57679" format="2">
  <advance width="350"/>
  <unicode hex="05DF"/>
  <outline>
    <contour>
      <point x="54.5996" y="498.4" type="curve"/>
      <point x="54.5996" y="499.1" type="line"/>
      <point x="54.5996" y="499.1" type="line"/>
      <point x="42.7002" y="523.6"/>
      <point x="42" y="546"/>
      <point x="40.5996" y="565.6" type="curve" smooth="yes"/>
      <point x="40.5996" y="573.3"/>
      <point x="39.9004" y="581"/>
      <point x="39.9004" y="588.7" type="curve" smooth="yes"/>
      <point x="39.9004" y="613.9"/>
      <point x="43.4004" y="639.1"/>
      <point x="49.7002" y="662.9" type="curve" smooth="yes"/>
      <point x="52.5" y="674.1"/>
      <point x="56.7002" y="684.6"/>
      <point x="61.5996" y="695.1" type="curve"/>
      <point x="61.5996" y="695.8"/>
      <point x="63" y="699.3"/>
      <point x="65.0996" y="702.8" type="curve"/>
      <point x="65.0996" y="702.1" type="line"/>
      <point x="65.7998" y="702.8" type="line"/>
      <point x="69.2998" y="704.9"/>
      <point x="72.7998" y="706.3"/>
      <point x="74.9004" y="707" type="curve" smooth="yes"/>
      <point x="81.9004" y="709.1"/>
      <point x="86.7998" y="709.1"/>
      <point x="91" y="709.1" type="curve" smooth="yes"/>
      <point x="94.5" y="709.1" type="line" smooth="yes"/>
      <point x="95.2002" y="709.1"/>
      <point x="96.5996" y="709.1"/>
      <point x="97.2998" y="709.1" type="curve" smooth="yes"/>
      <point x="107.8" y="709.8"/>
      <point x="119.7" y="711.9"/>
      <point x="131.6" y="711.9" type="curve" smooth="yes"/>
      <point x="152.6" y="711.9" type="line"/>
      <point x="152.6" y="711.9" type="line"/>
      <point x="158.2" y="666.4"/>
      <point x="218.4" y="644"/>
      <point x="251.3" y="610.4" type="curve"/>
      <point x="261.8" y="603.4"/>
      <point x="280.7" y="590.8"/>
      <point x="285.6" y="573.3" type="curve" smooth="yes"/>
      <point x="289.8" y="560"/>
      <point x="290.5" y="546"/>
      <point x="290.5" y="532.7" type="curve" smooth="yes"/>
      <point x="290.5" y="501.9"/>
      <point x="285.6" y="471.1"/>
      <point x="280.7" y="444.5" type="curve" smooth="yes"/>
      <point x="268.1" y="377.3"/>
      <point x="249.2" y="311.5"/>
      <point x="246.4" y="247.8" type="curve" smooth="yes"/>
      <point x="245.7" y="242.9"/>
      <point x="245.7" y="238.7"/>
      <point x="245.7" y="233.8" type="curve" smooth="yes"/>
      <point x="245.7" y="217.7"/>
      <point x="247.1" y="202.3"/>
      <point x="249.9" y="186.9" type="curve" smooth="yes"/>
      <point x="252.7" y="169.4"/>
      <point x="256.9" y="159.6"/>
      <point x="258.3" y="141.4" type="curve" smooth="yes"/>
      <point x="266" y="68.5996"/>
      <point x="275.8" y="-4.2002"/>
      <point x="284.2" y="-78.4004" type="curve" smooth="yes"/>
      <point x="287.7" y="-112"/>
      <point x="294.7" y="-148.4"/>
      <point x="296.8" y="-185.5" type="curve" smooth="yes"/>
      <point x="296.8" y="-186.9"/>
      <point x="296.8" y="-191.1"/>
      <point x="296.8" y="-192.5" type="curve" smooth="yes"/>
      <point x="296.8" y="-235.2"/>
      <point x="269.5" y="-273.7"/>
      <point x="240.1" y="-299.6" type="curve" smooth="yes"/>
      <point x="233.8" y="-304.5"/>
      <point x="219.1" y="-317.8"/>
      <point x="203.7" y="-324.8" type="curve" smooth="yes"/>
      <point x="195.3" y="-328.3"/>
      <point x="180.6" y="-331.8"/>
      <point x="158.2" y="-331.8" type="curve" smooth="yes"/>
      <point x="157.5" y="-331.8"/>
      <point x="156.1" y="-331.8"/>
      <point x="154.7" y="-331.8" type="curve" smooth="yes"/>
      <point x="154" y="-331.8" type="line" smooth="yes"/>
      <point x="146.3" y="-331.1"/>
      <point x="143.5" y="-331.1"/>
      <point x="137.9" y="-330.4" type="curve"/>
      <point x="136.5" y="-329.7"/>
      <point x="133" y="-329.7"/>
      <point x="131.6" y="-329.7" type="curve"/>
      <point x="130.2" y="-329" type="line"/>
      <point x="129.5" y="-329.7" type="line"/>
      <point x="128.1" y="-328.3"/>
      <point x="124.6" y="-326.2"/>
      <point x="121.1" y="-320.6" type="curve" smooth="yes"/>
      <point x="114.1" y="-309.4"/>
      <point x="114.8" y="-293.3"/>
      <point x="114.8" y="-286.3" type="curve"/>
      <point x="114.8" y="-286.3" type="line"/>
      <point x="114.8" y="-281.4"/>
      <point x="114.8" y="-278.6"/>
      <point x="114.8" y="-275.1" type="curve" smooth="yes"/>
      <point x="114.8" y="-232.4"/>
      <point x="113.4" y="-189"/>
      <point x="113.4" y="-145.6" type="curve" smooth="yes"/>
      <point x="113.4" y="113.4" type="line" smooth="yes"/>
      <point x="113.4" y="137.9"/>
      <point x="112.7" y="163.1"/>
      <point x="112.7" y="189" type="curve" smooth="yes"/>
      <point x="112.7" y="217"/>
      <point x="114.1" y="246.4"/>
      <point x="119.7" y="275.8" type="curve" smooth="yes"/>
      <point x="130.2" y="332.5"/>
      <point x="158.2" y="376.6"/>
      <point x="177.1" y="425.6" type="curve"/>
      <point x="144.2" y="441.7" type="line" smooth="yes"/>
      <point x="116.9" y="452.9"/>
      <point x="74.9004" y="467.6"/>
    </contour>
  </outline>
</glyph>
<glyph name="afii57681" format="2">
  <advance width="664"/>
  <unicode hex="05E1"/>
  <outline>
    <contour>
      <point x="321.3" y="445.2" type="line"/>
      <point x="237.3" y="443.1" type="line"/>
      <point x="216.3" y="415.1" type="line"/>
      <point x="198.1" y="386.4" type="line"/>
      <point x="177.8" y="356.3" type="line"/>
      <point x="168.7" y="334.6" type="line"/>
      <point x="170.8" y="298.2" type="line"/>
      <point x="185.5" y="258.3" type="line"/>
      <point x="210.7" y="216.3" type="line"/>
      <point x="233.8" y="195.3" type="line"/>
      <point x="257.6" y="184.1" type="line"/>
      <point x="277.9" y="172.9" type="line"/>
      <point x="328.3" y="163.8" type="line"/>
      <point x="372.4" y="161.7" type="line"/>
      <point x="413.7" y="170.8" type="line"/>
      <point x="452.2" y="187.6" type="line"/>
      <point x="494.9" y="224" type="line"/>
      <point x="515.2" y="269.5" type="line"/>
      <point x="521.5" y="342.3" type="line"/>
      <point x="517.3" y="380.8" type="line"/>
      <point x="506.8" y="401.8" type="line"/>
      <point x="484.4" y="424.2" type="line"/>
      <point x="453.6" y="437.5" type="line"/>
      <point x="396.2" y="447.3" type="line"/>
    </contour>
    <contour>
      <point x="109.2" y="446.6" type="curve" smooth="yes"/>
      <point x="112" y="449.4"/>
      <point x="114.1" y="451.5"/>
      <point x="115.5" y="453.6" type="curve"/>
      <point x="113.4" y="454.3"/>
      <point x="111.3" y="455"/>
      <point x="109.9" y="456.4" type="curve" smooth="yes"/>
      <point x="86.7998" y="469"/>
      <point x="67.2002" y="483"/>
      <point x="61.5996" y="513.1" type="curve" smooth="yes"/>
      <point x="59.5" y="522.9"/>
      <point x="58.7998" y="533.4"/>
      <point x="58.7998" y="543.2" type="curve" smooth="yes"/>
      <point x="58.7998" y="577.5"/>
      <point x="67.2002" y="608.3"/>
      <point x="70.7002" y="637" type="curve" smooth="yes"/>
      <point x="74.9004" y="666.4" type="line" smooth="yes"/>
      <point x="74.9004" y="667.8"/>
      <point x="74.9004" y="670.6"/>
      <point x="74.9004" y="672" type="curve" smooth="yes"/>
      <point x="76.2998" y="681.8"/>
      <point x="81.2002" y="688.1"/>
      <point x="84" y="690.2" type="curve" smooth="yes"/>
      <point x="88.2002" y="693.7"/>
      <point x="92.4004" y="698.6"/>
      <point x="106.4" y="701.4" type="curve" smooth="yes"/>
      <point x="119.7" y="704.2"/>
      <point x="134.4" y="702.1"/>
      <point x="141.4" y="703.5" type="curve" smooth="yes"/>
      <point x="161.7" y="707.7" type="line"/>
      <point x="168" y="693.7" type="line" smooth="yes"/>
      <point x="172.9" y="683.2"/>
      <point x="172.9" y="674.8"/>
      <point x="179.2" y="670.6" type="curve" smooth="yes"/>
      <point x="186.9" y="665"/>
      <point x="198.8" y="663.6"/>
      <point x="219.1" y="662.9" type="curve" smooth="yes"/>
      <point x="231.7" y="662.2"/>
      <point x="245" y="662.2"/>
      <point x="259" y="662.2" type="curve" smooth="yes"/>
      <point x="270.2" y="662.2"/>
      <point x="282.1" y="662.2"/>
      <point x="294.7" y="662.2" type="curve" smooth="yes"/>
      <point x="313.6" y="662.2" type="line" smooth="yes"/>
      <point x="387.1" y="662.2"/>
      <point x="498.4" y="662.9"/>
      <point x="558.6" y="594.3" type="curve" smooth="yes"/>
      <point x="595" y="551.6"/>
      <point x="605.5" y="489.3"/>
      <point x="612.5" y="445.9" type="curve" smooth="yes"/>
      <point x="618.8" y="409.5"/>
      <point x="623" y="371"/>
      <point x="623" y="331.8" type="curve" smooth="yes"/>
      <point x="623" y="251.3"/>
      <point x="607.6" y="149.8"/>
      <point x="544.6" y="70" type="curve" smooth="yes"/>
      <point x="505.4" y="21.7002"/>
      <point x="448.7" y="-21"/>
      <point x="373.1" y="-29.4004" type="curve" smooth="yes"/>
      <point x="361.2" y="-30.7998"/>
      <point x="349.3" y="-31.5"/>
      <point x="337.4" y="-31.5" type="curve" smooth="yes"/>
      <point x="269.5" y="-31.5"/>
      <point x="210" y="-7"/>
      <point x="167.3" y="39.9004" type="curve" smooth="yes"/>
      <point x="161" y="46.9004"/>
      <point x="155.4" y="55.2998"/>
      <point x="149.8" y="63.7002" type="curve"/>
      <point x="153.3" y="44.7998"/>
      <point x="158.9" y="25.2002"/>
      <point x="164.5" y="6.2998" type="curve" smooth="yes"/>
      <point x="168" y="-4.90039"/>
      <point x="177.1" y="-30.0996"/>
      <point x="177.1" y="-53.2002" type="curve" smooth="yes"/>
      <point x="177.1" y="-64.4004"/>
      <point x="175" y="-75.5996"/>
      <point x="170.1" y="-86.7998" type="curve" smooth="yes"/>
      <point x="155.4" y="-122.5"/>
      <point x="123.2" y="-128.1"/>
      <point x="95.2002" y="-128.1" type="curve" smooth="yes"/>
      <point x="94.5" y="-128.1"/>
      <point x="93.7998" y="-128.1"/>
      <point x="93.7998" y="-128.1" type="curve"/>
      <point x="93.0996" y="-128.1" type="line" smooth="yes"/>
      <point x="88.2002" y="-128.1"/>
      <point x="82.5996" y="-128.1"/>
      <point x="75.5996" y="-127.4" type="curve"/>
      <point x="74.2002" y="-126.7"/>
      <point x="70.7002" y="-126"/>
      <point x="70" y="-126" type="curve"/>
      <point x="68.5996" y="-125.3"/>
      <point x="65.0996" y="-124.6"/>
      <point x="63.7002" y="-123.2" type="curve"/>
      <point x="61.5996" y="-122.5"/>
      <point x="58.0996" y="-120.4"/>
      <point x="56.7002" y="-119.7" type="curve"/>
      <point x="56" y="-118.3"/>
      <point x="51.7998" y="-115.5"/>
      <point x="46.2002" y="-107.8" type="curve" smooth="yes"/>
      <point x="45.5" y="-106.4"/>
      <point x="44.7998" y="-105"/>
      <point x="44.0996" y="-104.3" type="curve" smooth="yes"/>
      <point x="37.7998" y="-93.7998"/>
      <point x="35" y="-81.2002"/>
      <point x="33.5996" y="-74.9004" type="curve" smooth="yes"/>
      <point x="31.5" y="-66.5"/>
      <point x="30.7998" y="-57.4004"/>
      <point x="30.7998" y="-49" type="curve" smooth="yes"/>
      <point x="30.7998" y="-6.2998"/>
      <point x="53.9004" y="37.0996"/>
      <point x="56.7002" y="72.0996" type="curve" smooth="yes"/>
      <point x="61.5996" y="141.4"/>
      <point x="58.7998" y="212.8"/>
      <point x="62.2998" y="284.2" type="curve" smooth="yes"/>
      <point x="62.2998" y="291.9"/>
      <point x="62.2998" y="299.6"/>
      <point x="62.2998" y="307.3" type="curve" smooth="yes"/>
      <point x="62.2998" y="309.4"/>
      <point x="62.2998" y="312.2"/>
      <point x="62.2998" y="315" type="curve" smooth="yes"/>
      <point x="62.2998" y="328.3"/>
      <point x="63" y="341.6"/>
      <point x="64.4004" y="356.3" type="curve" smooth="yes"/>
      <point x="64.4004" y="357.7" type="line" smooth="yes"/>
      <point x="64.4004" y="359.8"/>
      <point x="63.7002" y="361.9"/>
      <point x="63.7002" y="365.4" type="curve" smooth="yes"/>
      <point x="63.7002" y="371.7"/>
      <point x="65.0996" y="375.2"/>
      <point x="65.0996" y="378" type="curve"/>
      <point x="72.7998" y="404.6"/>
      <point x="98" y="432.6"/>
    </contour>
  </outline>
</glyph>
<glyph name="afii57682" format="2">
  <advance width="706"/>
  <unicode hex="05E2"/>
  <outline>
    <contour>
      <point x="368.2" y="193.9" type="curve" smooth="yes"/>
      <point x="411.6" y="200.2"/>
      <point x="456.4" y="208.6"/>
      <point x="487.9" y="226.8" type="curve" smooth="yes"/>
      <point x="531.3" y="251.3"/>
      <point x="564.9" y="304.5"/>
      <point x="564.9" y="355.6" type="curve" smooth="yes"/>
      <point x="564.9" y="380.1"/>
      <point x="557.2" y="402.5"/>
      <point x="541.1" y="420.7" type="curve" smooth="yes"/>
      <point x="517.3" y="447.3"/>
      <point x="477.4" y="455"/>
      <point x="438.2" y="463.4" type="curve" smooth="yes"/>
      <point x="420" y="466.2"/>
      <point x="401.1" y="469.7"/>
      <point x="382.2" y="476" type="curve" smooth="yes"/>
      <point x="375.2" y="478.8"/>
      <point x="373.8" y="479.5"/>
      <point x="371.7" y="480.2" type="curve" smooth="yes"/>
      <point x="366.1" y="483"/>
      <point x="360.5" y="487.2"/>
      <point x="355.6" y="494.2" type="curve" smooth="yes"/>
      <point x="349.3" y="502.6"/>
      <point x="347.2" y="512.4"/>
      <point x="347.2" y="520.8" type="curve" smooth="yes"/>
      <point x="347.2" y="536.9"/>
      <point x="356.3" y="553.7"/>
      <point x="359.8" y="560.7" type="curve" smooth="yes"/>
      <point x="373.1" y="592.2"/>
      <point x="386.4" y="633.5"/>
      <point x="415.8" y="663.6" type="curve" smooth="yes"/>
      <point x="420" y="667.8"/>
      <point x="428.4" y="676.9"/>
      <point x="439.6" y="683.9" type="curve" smooth="yes"/>
      <point x="452.9" y="692.3"/>
      <point x="466.2" y="693.7"/>
      <point x="472.5" y="693.7" type="curve" smooth="yes"/>
      <point x="473.2" y="693.7"/>
      <point x="475.3" y="693.7"/>
      <point x="476" y="693.7" type="curve" smooth="yes"/>
      <point x="506.8" y="693.7"/>
      <point x="524.3" y="678.3"/>
      <point x="543.2" y="667.1" type="curve" smooth="yes"/>
      <point x="603.4" y="630.7"/>
      <point x="635.6" y="566.3"/>
      <point x="650.3" y="508.9" type="curve" smooth="yes"/>
      <point x="659.4" y="472.5"/>
      <point x="662.9" y="436.1"/>
      <point x="662.9" y="399.7" type="curve" smooth="yes"/>
      <point x="662.9" y="262.5"/>
      <point x="607.6" y="101.5"/>
      <point x="450.1" y="30.7998" type="curve" smooth="yes"/>
      <point x="355.6" y="-11.9004"/>
      <point x="245" y="-32.9004"/>
      <point x="137.9" y="-32.9004" type="curve" smooth="yes"/>
      <point x="114.1" y="-32.9004"/>
      <point x="93.0996" y="-32.9004"/>
      <point x="72.7998" y="-31.5" type="curve" smooth="yes"/>
      <point x="63.7002" y="-30.7998"/>
      <point x="60.9004" y="-30.7998"/>
      <point x="58.0996" y="-30.0996" type="curve" smooth="yes"/>
      <point x="52.5" y="-29.4004"/>
      <point x="43.4004" y="-26.5996"/>
      <point x="37.0996" y="-19.5996" type="curve" smooth="yes"/>
      <point x="21.7002" y="-0.700195"/>
      <point x="17.5" y="21.7002"/>
      <point x="17.5" y="41.2998" type="curve" smooth="yes"/>
      <point x="17.5" y="68.5996"/>
      <point x="25.2002" y="95.2002"/>
      <point x="28.7002" y="114.8" type="curve" smooth="yes"/>
      <point x="32.9004" y="135.8"/>
      <point x="34.2998" y="155.4"/>
      <point x="50.4004" y="168" type="curve"/>
      <point x="51.7998" y="168.7"/>
      <point x="53.2002" y="170.1"/>
      <point x="56" y="171.5" type="curve" smooth="yes"/>
      <point x="62.2998" y="175"/>
      <point x="68.5996" y="175.7"/>
      <point x="74.2002" y="175.7" type="curve" smooth="yes"/>
      <point x="81.2002" y="175.7"/>
      <point x="88.2002" y="174.3"/>
      <point x="91.7002" y="174.3" type="curve" smooth="yes"/>
      <point x="109.2" y="174.3"/>
      <point x="133" y="174.3"/>
      <point x="157.5" y="174.3" type="curve" smooth="yes"/>
      <point x="169.4" y="174.3"/>
      <point x="181.3" y="174.3"/>
      <point x="193.2" y="174.3" type="curve" smooth="yes"/>
      <point x="193.9" y="174.3" type="line" smooth="yes"/>
      <point x="194.6" y="174.3"/>
      <point x="196" y="174.3"/>
      <point x="197.4" y="174.3" type="curve" smooth="yes"/>
      <point x="198.1" y="174.3" type="line" smooth="yes"/>
      <point x="207.9" y="174.3"/>
      <point x="214.9" y="174.3"/>
      <point x="219.8" y="175" type="curve"/>
      <point x="219.8" y="173.6"/>
      <point x="219.8" y="172.9"/>
      <point x="219.8" y="172.2" type="curve"/>
      <point x="219.8" y="176.4"/>
      <point x="219.8" y="179.2"/>
      <point x="219.8" y="182.7" type="curve" smooth="yes"/>
      <point x="219.8" y="183.4"/>
      <point x="219.8" y="184.8"/>
      <point x="219.8" y="186.2" type="curve" smooth="yes"/>
      <point x="219.8" y="190.4"/>
      <point x="220.5" y="195.3"/>
      <point x="220.5" y="199.5" type="curve" smooth="yes"/>
      <point x="220.5" y="232.4"/>
      <point x="212.8" y="266.7"/>
      <point x="209.3" y="301.7" type="curve" smooth="yes"/>
      <point x="205.8" y="338.1"/>
      <point x="200.9" y="371.7"/>
      <point x="190.4" y="406" type="curve" smooth="yes"/>
      <point x="184.1" y="425.6"/>
      <point x="182.7" y="436.8"/>
      <point x="175.7" y="446.6" type="curve" smooth="yes"/>
      <point x="175" y="447.3"/>
      <point x="175.7" y="446.6"/>
      <point x="174.3" y="447.3" type="curve" smooth="yes"/>
      <point x="167.3" y="452.2"/>
      <point x="156.8" y="456.4"/>
      <point x="144.2" y="462.7" type="curve" smooth="yes"/>
      <point x="118.3" y="476"/>
      <point x="77" y="502.6"/>
      <point x="75.5996" y="544.6" type="curve" smooth="yes"/>
      <point x="75.5996" y="545.3"/>
      <point x="75.5996" y="546.7"/>
      <point x="75.5996" y="546.7" type="curve" smooth="yes"/>
      <point x="75.5996" y="563.5"/>
      <point x="81.2002" y="581.7"/>
      <point x="83.2998" y="588.7" type="curve" smooth="yes"/>
      <point x="88.2002" y="609"/>
      <point x="93.7998" y="632.1"/>
      <point x="107.1" y="654.5" type="curve"/>
      <point x="107.1" y="654.5" type="line"/>
      <point x="107.1" y="654.5" type="line"/>
      <point x="112.7" y="661.5"/>
      <point x="124.6" y="677.6"/>
      <point x="144.2" y="687.4" type="curve" smooth="yes"/>
      <point x="145.6" y="688.1"/>
      <point x="147.7" y="688.8"/>
      <point x="150.5" y="690.2" type="curve" smooth="yes"/>
      <point x="160.3" y="693.7"/>
      <point x="170.8" y="694.4"/>
      <point x="179.2" y="694.4" type="curve" smooth="yes"/>
      <point x="199.5" y="694.4"/>
      <point x="224" y="689.5"/>
      <point x="228.2" y="688.1" type="curve" smooth="yes"/>
      <point x="242.2" y="683.2"/>
      <point x="254.8" y="673.4"/>
      <point x="261.1" y="669.2" type="curve" smooth="yes"/>
      <point x="282.8" y="653.8"/>
      <point x="312.9" y="633.5"/>
      <point x="324.8" y="602" type="curve" smooth="yes"/>
      <point x="326.9" y="595.7"/>
      <point x="328.3" y="589.4"/>
      <point x="328.3" y="583.1" type="curve" smooth="yes"/>
      <point x="328.3" y="567.7"/>
      <point x="324.1" y="558.6"/>
      <point x="322.7" y="546" type="curve" smooth="yes"/>
      <point x="318.5" y="516.6"/>
      <point x="314.3" y="487.9"/>
      <point x="312.2" y="458.5" type="curve" smooth="yes"/>
      <point x="310.1" y="420"/>
      <point x="308.7" y="382.2"/>
      <point x="308.7" y="343.7" type="curve" smooth="yes"/>
      <point x="308.7" y="291.2"/>
      <point x="310.8" y="238.7"/>
      <point x="315" y="186.9" type="curve"/>
      <point x="331.8" y="188.3"/>
      <point x="350" y="191.1"/>
    </contour>
  </outline>
</glyph>
<glyph name="afii57683" format="2">
  <advance width="625"/>
  <unicode hex="05E3"/>
  <outline>
    <contour>
      <point x="287" y="674.8" type="curve" smooth="yes"/>
      <point x="306.6" y="674.8"/>
      <point x="326.2" y="672"/>
      <point x="343" y="669.9" type="curve" smooth="yes"/>
      <point x="413" y="660.1"/>
      <point x="469.7" y="634.9"/>
      <point x="517.3" y="597.1" type="curve" smooth="yes"/>
      <point x="532.7" y="585.2"/>
      <point x="546.7" y="572.6"/>
      <point x="560" y="556.5" type="curve" smooth="yes"/>
      <point x="568.4" y="546"/>
      <point x="570.5" y="543.9"/>
      <point x="572.6" y="540.4" type="curve"/>
      <point x="572.6" y="539.7"/>
      <point x="574" y="536.9"/>
      <point x="574.7" y="535.5" type="curve"/>
      <point x="575.4" y="532.7"/>
      <point x="576.1" y="525.7"/>
      <point x="576.1" y="524.3" type="curve" smooth="yes"/>
      <point x="576.1" y="518"/>
      <point x="575.4" y="511.7"/>
      <point x="574.7" y="508.9" type="curve" smooth="yes"/>
      <point x="572.6" y="487.9"/>
      <point x="567.7" y="468.3"/>
      <point x="562.8" y="450.1" type="curve" smooth="yes"/>
      <point x="547.4" y="389.2"/>
      <point x="527.1" y="333.2"/>
      <point x="519.4" y="275.1" type="curve" smooth="yes"/>
      <point x="516.6" y="254.8"/>
      <point x="515.9" y="233.8"/>
      <point x="515.9" y="213.5" type="curve" smooth="yes"/>
      <point x="515.9" y="170.1"/>
      <point x="520.8" y="127.4"/>
      <point x="527.1" y="81.9004" type="curve" smooth="yes"/>
      <point x="535.5" y="16.0996"/>
      <point x="546" y="-49.7002"/>
      <point x="553" y="-116.9" type="curve" smooth="yes"/>
      <point x="555.8" y="-139.3"/>
      <point x="557.2" y="-161"/>
      <point x="558.6" y="-183.4" type="curve" smooth="yes"/>
      <point x="558.6" y="-191.1"/>
      <point x="560" y="-196.7"/>
      <point x="560" y="-205.8" type="curve" smooth="yes"/>
      <point x="560" y="-209.3"/>
      <point x="559.3" y="-213.5"/>
      <point x="558.6" y="-217.7" type="curve" smooth="yes"/>
      <point x="550.9" y="-259.7"/>
      <point x="522.2" y="-291.2"/>
      <point x="493.5" y="-313.6" type="curve" smooth="yes"/>
      <point x="477.4" y="-326.2"/>
      <point x="459.2" y="-340.9"/>
      <point x="439.6" y="-344.4" type="curve" smooth="yes"/>
      <point x="438.2" y="-345.1"/>
      <point x="437.5" y="-345.1"/>
      <point x="434.7" y="-345.1" type="curve" smooth="yes"/>
      <point x="434.7" y="-345.1"/>
      <point x="432.6" y="-345.1"/>
      <point x="431.9" y="-345.1" type="curve" smooth="yes"/>
      <point x="431.2" y="-345.1" type="line" smooth="yes"/>
      <point x="420.7" y="-344.4"/>
      <point x="399" y="-343.7"/>
      <point x="385" y="-317.1" type="curve" smooth="yes"/>
      <point x="380.8" y="-309.4"/>
      <point x="378" y="-301"/>
      <point x="376.6" y="-292.6" type="curve" smooth="yes"/>
      <point x="375.9" y="-288.4"/>
      <point x="375.2" y="-284.9"/>
      <point x="375.2" y="-281.4" type="curve" smooth="yes"/>
      <point x="375.2" y="-269.5"/>
      <point x="377.3" y="-261.1"/>
      <point x="377.3" y="-252.7" type="curve" smooth="yes"/>
      <point x="377.3" y="-218.4"/>
      <point x="378.7" y="-184.1"/>
      <point x="378.7" y="-150.5" type="curve" smooth="yes"/>
      <point x="378.7" y="-81.2002"/>
      <point x="382.2" y="-11.9004"/>
      <point x="382.2" y="56.7002" type="curve" smooth="yes"/>
      <point x="382.2" y="72.7998"/>
      <point x="382.2" y="88.9004"/>
      <point x="382.2" y="105.7" type="curve" smooth="yes"/>
      <point x="382.2" y="156.8"/>
      <point x="383.6" y="209.3"/>
      <point x="398.3" y="261.1" type="curve" smooth="yes"/>
      <point x="406.7" y="292.6"/>
      <point x="416.5" y="322.7"/>
      <point x="428.4" y="352.8" type="curve" smooth="yes"/>
      <point x="434" y="366.1"/>
      <point x="442.4" y="380.1"/>
      <point x="443.1" y="385" type="curve"/>
      <point x="443.1" y="385.7" type="line"/>
      <point x="443.1" y="385.7" type="line"/>
      <point x="442.4" y="393.4"/>
      <point x="436.1" y="404.6"/>
      <point x="414.4" y="422.1" type="curve" smooth="yes"/>
      <point x="375.2" y="451.5"/>
      <point x="315.7" y="475.3"/>
      <point x="247.1" y="482.3" type="curve" smooth="yes"/>
      <point x="231.7" y="483.7"/>
      <point x="219.8" y="485.8"/>
      <point x="209.3" y="485.8" type="curve" smooth="yes"/>
      <point x="204.4" y="485.8"/>
      <point x="201.6" y="485.8"/>
      <point x="200.2" y="485.8" type="curve"/>
      <point x="191.8" y="483.7"/>
      <point x="179.9" y="474.6"/>
      <point x="165.2" y="459.9" type="curve" smooth="yes"/>
      <point x="153.3" y="445.9"/>
      <point x="148.4" y="429.8"/>
      <point x="148.4" y="413.7" type="curve" smooth="yes"/>
      <point x="148.4" y="394.8"/>
      <point x="155.4" y="374.5"/>
      <point x="167.3" y="357.7" type="curve" smooth="yes"/>
      <point x="179.9" y="340.2"/>
      <point x="200.2" y="324.1"/>
      <point x="221.2" y="309.4" type="curve" smooth="yes"/>
      <point x="246.4" y="291.9"/>
      <point x="270.9" y="286.3"/>
      <point x="294" y="261.1" type="curve" smooth="yes"/>
      <point x="315" y="238"/>
      <point x="316.4" y="216.3"/>
      <point x="320.6" y="187.6" type="curve" smooth="yes"/>
      <point x="321.3" y="180.6"/>
      <point x="323.4" y="172.9"/>
      <point x="323.4" y="162.4" type="curve" smooth="yes"/>
      <point x="323.4" y="158.9"/>
      <point x="323.4" y="154.7"/>
      <point x="322" y="150.5" type="curve"/>
      <point x="321.3" y="151.2" type="line"/>
      <point x="321.3" y="150.5" type="line"/>
      <point x="319.9" y="149.8"/>
      <point x="313.6" y="140"/>
      <point x="310.8" y="137.9" type="curve" smooth="yes"/>
      <point x="306.6" y="135.1"/>
      <point x="303.1" y="133.7"/>
      <point x="299.6" y="131.6" type="curve" smooth="yes"/>
      <point x="284.9" y="123.9"/>
      <point x="268.8" y="118.3"/>
      <point x="251.3" y="115.5" type="curve" smooth="yes"/>
      <point x="239.4" y="113.4"/>
      <point x="226.8" y="112"/>
      <point x="214.2" y="112" type="curve" smooth="yes"/>
      <point x="161" y="112"/>
      <point x="112" y="132.3"/>
      <point x="82.5996" y="170.1" type="curve" smooth="yes"/>
      <point x="70" y="186.9"/>
      <point x="42.7002" y="227.5"/>
      <point x="39.2002" y="315" type="curve" smooth="yes"/>
      <point x="38.5" y="322"/>
      <point x="38.5" y="329"/>
      <point x="38.5" y="336.7" type="curve" smooth="yes"/>
      <point x="38.5" y="418.6"/>
      <point x="59.5" y="496.3"/>
      <point x="105" y="566.3" type="curve" smooth="yes"/>
      <point x="130.2" y="604.8"/>
      <point x="170.1" y="637"/>
      <point x="218.4" y="657.3" type="curve" smooth="yes"/>
      <point x="226.8" y="661.5"/>
      <point x="249.2" y="671.3"/>
      <point x="270.9" y="674.1" type="curve" smooth="yes"/>
      <point x="276.5" y="674.8"/>
      <point x="281.4" y="674.8"/>
    </contour>
  </outline>
</glyph>
<glyph name="afii57684" format="2">
  <advance width="664"/>
  <unicode hex="05E4"/>
  <outline>
    <contour>
      <point x="175.7" y="686" type="line" smooth="yes"/>
      <point x="186.9" y="662.9"/>
      <point x="179.9" y="658"/>
      <point x="190.4" y="650.3" type="curve" smooth="yes"/>
      <point x="207.9" y="637"/>
      <point x="247.1" y="639.1"/>
      <point x="270.2" y="637.7" type="curve" smooth="yes"/>
      <point x="339.5" y="633.5"/>
      <point x="408.8" y="641.2"/>
      <point x="476.7" y="621.6" type="curve" smooth="yes"/>
      <point x="575.4" y="594.3"/>
      <point x="601.3" y="488.6"/>
      <point x="609.7" y="422.8" type="curve" smooth="yes"/>
      <point x="611.8" y="409.5"/>
      <point x="613.2" y="395.5"/>
      <point x="613.9" y="381.5" type="curve" smooth="yes"/>
      <point x="613.9" y="373.8"/>
      <point x="614.6" y="366.1"/>
      <point x="614.6" y="358.4" type="curve" smooth="yes"/>
      <point x="614.6" y="271.6"/>
      <point x="593.6" y="177.1"/>
      <point x="534.1" y="106.4" type="curve" smooth="yes"/>
      <point x="485.1" y="49"/>
      <point x="402.5" y="8.40039"/>
      <point x="327.6" y="-12.5996" type="curve" smooth="yes"/>
      <point x="281.4" y="-25.9004"/>
      <point x="228.2" y="-37.0996"/>
      <point x="175.7" y="-37.0996" type="curve" smooth="yes"/>
      <point x="163.1" y="-37.0996"/>
      <point x="149.8" y="-36.4004"/>
      <point x="137.9" y="-35" type="curve" smooth="yes"/>
      <point x="124.6" y="-33.5996"/>
      <point x="112.7" y="-33.5996"/>
      <point x="100.8" y="-30.0996" type="curve" smooth="yes"/>
      <point x="91.7002" y="-27.2998"/>
      <point x="80.5" y="-21.7002"/>
      <point x="73.5" y="-9.7998" type="curve" smooth="yes"/>
      <point x="68.5996" y="-0.700195"/>
      <point x="67.9004" y="7.7002"/>
      <point x="67.9004" y="14.7002" type="curve" smooth="yes"/>
      <point x="67.9004" y="20.2998"/>
      <point x="67.9004" y="20.2998"/>
      <point x="67.9004" y="23.0996" type="curve" smooth="yes"/>
      <point x="67.9004" y="23.7998"/>
      <point x="67.9004" y="25.2002"/>
      <point x="67.9004" y="25.9004" type="curve" smooth="yes"/>
      <point x="67.2002" y="33.5996"/>
      <point x="66.5" y="41.2998"/>
      <point x="66.5" y="49" type="curve" smooth="yes"/>
      <point x="66.5" y="71.4004"/>
      <point x="70" y="93.0996"/>
      <point x="74.2002" y="114.1" type="curve" smooth="yes"/>
      <point x="75.5996" y="119"/>
      <point x="77.7002" y="129.5"/>
      <point x="82.5996" y="139.3" type="curve" smooth="yes"/>
      <point x="89.5996" y="153.3"/>
      <point x="99.4004" y="158.2"/>
      <point x="102.2" y="158.9" type="curve"/>
      <point x="112" y="163.8"/>
      <point x="125.3" y="163.8"/>
      <point x="130.9" y="163.8" type="curve" smooth="yes"/>
      <point x="137.2" y="163.8"/>
      <point x="137.2" y="163.8"/>
      <point x="141.4" y="163.8" type="curve" smooth="yes"/>
      <point x="142.1" y="163.8"/>
      <point x="143.5" y="163.8"/>
      <point x="143.5" y="163.8" type="curve" smooth="yes"/>
      <point x="164.5" y="165.2"/>
      <point x="186.2" y="166.6"/>
      <point x="208.6" y="168" type="curve" smooth="yes"/>
      <point x="301" y="172.9"/>
      <point x="384.3" y="175"/>
      <point x="446.6" y="212.8" type="curve" smooth="yes"/>
      <point x="492.8" y="240.8"/>
      <point x="516.6" y="286.3"/>
      <point x="516.6" y="334.6" type="curve" smooth="yes"/>
      <point x="516.6" y="340.9"/>
      <point x="516.6" y="347.2"/>
      <point x="515.9" y="353.5" type="curve" smooth="yes"/>
      <point x="511.7" y="382.9"/>
      <point x="499.1" y="409.5"/>
      <point x="473.9" y="424.9" type="curve" smooth="yes"/>
      <point x="457.8" y="434.7"/>
      <point x="424.9" y="437.5"/>
      <point x="402.5" y="440.3" type="curve" smooth="yes"/>
      <point x="378.7" y="443.1"/>
      <point x="355.6" y="444.5"/>
      <point x="332.5" y="444.5" type="curve" smooth="yes"/>
      <point x="319.2" y="444.5"/>
      <point x="305.9" y="443.8"/>
      <point x="292.6" y="443.1" type="curve" smooth="yes"/>
      <point x="276.5" y="441.7"/>
      <point x="263.9" y="442.4"/>
      <point x="255.5" y="438.9" type="curve" smooth="yes"/>
      <point x="242.9" y="434"/>
      <point x="221.2" y="411.6"/>
      <point x="216.3" y="390.6" type="curve"/>
      <point x="217" y="390.6"/>
      <point x="217" y="390.6"/>
      <point x="217" y="389.9" type="curve"/>
      <point x="219.1" y="387.8"/>
      <point x="220.5" y="385"/>
      <point x="224.7" y="380.8" type="curve" smooth="yes"/>
      <point x="238" y="366.1"/>
      <point x="261.1" y="352.8"/>
      <point x="268.8" y="328.3" type="curve" smooth="yes"/>
      <point x="270.2" y="324.1"/>
      <point x="271.6" y="319.2"/>
      <point x="271.6" y="313.6" type="curve" smooth="yes"/>
      <point x="271.6" y="312.9"/>
      <point x="270.9" y="310.1"/>
      <point x="270.9" y="309.4" type="curve" smooth="yes"/>
      <point x="269.5" y="293.3"/>
      <point x="260.4" y="280.7"/>
      <point x="253.4" y="270.2" type="curve" smooth="yes"/>
      <point x="240.1" y="250.6"/>
      <point x="222.6" y="223.3"/>
      <point x="191.1" y="210" type="curve" smooth="yes"/>
      <point x="184.1" y="207.2"/>
      <point x="167.3" y="200.9"/>
      <point x="151.2" y="200.9" type="curve" smooth="yes"/>
      <point x="144.2" y="200.9"/>
      <point x="139.3" y="202.3"/>
      <point x="134.4" y="204.4" type="curve" smooth="yes"/>
      <point x="115.5" y="212.1"/>
      <point x="99.4004" y="229.6"/>
      <point x="92.4004" y="238" type="curve" smooth="yes"/>
      <point x="58.7998" y="277.9"/>
      <point x="58.7998" y="315"/>
      <point x="58.7998" y="323.4" type="curve" smooth="yes"/>
      <point x="58.7998" y="332.5"/>
      <point x="59.5" y="342.3"/>
      <point x="62.2998" y="351.4" type="curve" smooth="yes"/>
      <point x="68.5996" y="371.7"/>
      <point x="79.0996" y="389.2"/>
      <point x="89.5996" y="403.2" type="curve" smooth="yes"/>
      <point x="100.8" y="418.6"/>
      <point x="113.4" y="431.2"/>
      <point x="124.6" y="443.1" type="curve"/>
      <point x="122.5" y="443.8"/>
      <point x="121.1" y="444.5"/>
      <point x="120.4" y="445.2" type="curve" smooth="yes"/>
      <point x="100.8" y="452.9"/>
      <point x="87.5" y="472.5"/>
      <point x="80.5" y="483.7" type="curve" smooth="yes"/>
      <point x="67.9004" y="505.4"/>
      <point x="63.7002" y="529.2"/>
      <point x="63.7002" y="550.9" type="curve" smooth="yes"/>
      <point x="63.7002" y="580.3"/>
      <point x="70.7002" y="607.6"/>
      <point x="75.5996" y="632.1" type="curve" smooth="yes"/>
      <point x="77.7002" y="641.9"/>
      <point x="79.7998" y="652.4"/>
      <point x="81.9004" y="662.9" type="curve" smooth="yes"/>
      <point x="82.5996" y="669.2"/>
      <point x="83.2998" y="670.6"/>
      <point x="83.2998" y="672" type="curve"/>
      <point x="84.7002" y="676.2"/>
      <point x="86.7998" y="681.1"/>
      <point x="91.7002" y="685.3" type="curve"/>
      <point x="91.7002" y="686" type="line"/>
      <point x="92.4004" y="686" type="line"/>
      <point x="93.7998" y="686.7"/>
      <point x="104.3" y="692.3"/>
      <point x="107.8" y="693" type="curve" smooth="yes"/>
      <point x="113.4" y="694.4"/>
      <point x="119" y="694.4"/>
      <point x="121.1" y="694.4" type="curve" smooth="yes"/>
      <point x="133" y="695.1"/>
      <point x="140" y="694.4"/>
      <point x="144.9" y="696.5" type="curve" smooth="yes"/>
      <point x="166.6" y="704.2" type="line"/>
    </contour>
  </outline>
</glyph>
<glyph name="afii57686" format="2">
  <advance width="471"/>
  <unicode hex="05E6"/>
  <outline>
    <contour>
      <point x="415.1" y="430.5" type="curve" smooth="yes"/>
      <point x="419.3" y="402.5"/>
      <point x="421.4" y="373.1"/>
      <point x="421.4" y="344.4" type="curve" smooth="yes"/>
      <point x="421.4" y="251.3"/>
      <point x="400.4" y="156.1"/>
      <point x="343" y="78.4004" type="curve" smooth="yes"/>
      <point x="309.4" y="35"/>
      <point x="245" y="-7.7002"/>
      <point x="175.7" y="-25.2002" type="curve" smooth="yes"/>
      <point x="155.4" y="-30.7998"/>
      <point x="128.1" y="-32.2002"/>
      <point x="116.9" y="-32.9004" type="curve" smooth="yes"/>
      <point x="107.1" y="-34.2998"/>
      <point x="94.5" y="-36.4004"/>
      <point x="81.2002" y="-36.4004" type="curve" smooth="yes"/>
      <point x="77" y="-36.4004"/>
      <point x="72.7998" y="-36.4004"/>
      <point x="68.5996" y="-35.7002" type="curve" smooth="yes"/>
      <point x="67.2002" y="-35.7002"/>
      <point x="58.7998" y="-35.7002"/>
      <point x="50.4004" y="-32.2002" type="curve"/>
      <point x="50.4004" y="-31.5" type="line"/>
      <point x="49.7002" y="-32.2002" type="line"/>
      <point x="37.7998" y="-23.0996"/>
      <point x="32.9004" y="-7.7002"/>
      <point x="30.7998" y="4.2002" type="curve" smooth="yes"/>
      <point x="29.4004" y="10.5"/>
      <point x="29.4004" y="17.5"/>
      <point x="29.4004" y="23.7998" type="curve" smooth="yes"/>
      <point x="29.4004" y="36.4004"/>
      <point x="30.0996" y="49"/>
      <point x="30.7998" y="60.2002" type="curve" smooth="yes"/>
      <point x="32.9004" y="88.9004"/>
      <point x="32.2002" y="125.3"/>
      <point x="51.0996" y="155.4" type="curve" smooth="yes"/>
      <point x="53.2002" y="158.9"/>
      <point x="60.2002" y="174.3"/>
      <point x="78.4004" y="182.7" type="curve" smooth="yes"/>
      <point x="84.7002" y="185.5"/>
      <point x="90.2998" y="186.2"/>
      <point x="95.2002" y="187.6" type="curve" smooth="yes"/>
      <point x="151.9" y="200.2" type="line" smooth="yes"/>
      <point x="225.4" y="213.5"/>
      <point x="283.5" y="228.2"/>
      <point x="308.7" y="268.8" type="curve" smooth="yes"/>
      <point x="317.8" y="284.9"/>
      <point x="321.3" y="304.5"/>
      <point x="321.3" y="323.4" type="curve" smooth="yes"/>
      <point x="321.3" y="370.3"/>
      <point x="295.4" y="412.3"/>
      <point x="244.3" y="428.4" type="curve" smooth="yes"/>
      <point x="213.5" y="437.5"/>
      <point x="179.2" y="441.7"/>
      <point x="143.5" y="449.4" type="curve" smooth="yes"/>
      <point x="142.8" y="449.4"/>
      <point x="105.7" y="455"/>
      <point x="89.5996" y="469" type="curve"/>
      <point x="88.2002" y="469"/>
      <point x="84.7002" y="469.7"/>
      <point x="81.2002" y="471.1" type="curve" smooth="yes"/>
      <point x="79.7998" y="471.8" type="line"/>
      <point x="79.0996" y="473.2" type="line" smooth="yes"/>
      <point x="78.4004" y="474.6"/>
      <point x="77.7002" y="476"/>
      <point x="77" y="476.7" type="curve"/>
      <point x="72.7998" y="487.9"/>
      <point x="70.7002" y="499.1"/>
      <point x="69.2998" y="505.4" type="curve" smooth="yes"/>
      <point x="65.0996" y="523.6"/>
      <point x="62.2998" y="542.5"/>
      <point x="62.2998" y="562.1" type="curve" smooth="yes"/>
      <point x="62.2998" y="574.7"/>
      <point x="64.4004" y="588"/>
      <point x="67.9004" y="600.6" type="curve" smooth="yes"/>
      <point x="77" y="636.3"/>
      <point x="99.4004" y="656.6"/>
      <point x="120.4" y="678.3" type="curve" smooth="yes"/>
      <point x="139.3" y="698.6"/>
      <point x="155.4" y="721"/>
      <point x="170.8" y="742.7" type="curve" smooth="yes"/>
      <point x="186.9" y="765.1"/>
      <point x="200.2" y="800.8"/>
      <point x="245.7" y="817.6" type="curve" smooth="yes"/>
      <point x="269.5" y="826"/>
      <point x="298.2" y="830.2"/>
      <point x="326.9" y="830.2" type="curve" smooth="yes"/>
      <point x="347.2" y="830.2"/>
      <point x="364.7" y="827.4"/>
      <point x="381.5" y="821.8" type="curve" smooth="yes"/>
      <point x="394.8" y="816.9"/>
      <point x="424.9" y="805"/>
      <point x="424.9" y="779.8" type="curve" smooth="yes"/>
      <point x="424.9" y="771.4"/>
      <point x="424.2" y="763"/>
      <point x="422.1" y="754.6" type="curve" smooth="yes"/>
      <point x="413.7" y="722.4"/>
      <point x="393.4" y="706.3"/>
      <point x="370.3" y="688.1" type="curve" smooth="yes"/>
      <point x="329.7" y="657.3"/>
      <point x="275.8" y="650.3"/>
      <point x="236.6" y="623" type="curve"/>
      <point x="236.6" y="620.9" type="line"/>
      <point x="251.3" y="619.5"/>
      <point x="267.4" y="617.4"/>
      <point x="280" y="613.2" type="curve" smooth="yes"/>
      <point x="375.2" y="579.6"/>
      <point x="405.3" y="498.4"/>
    </contour>
  </outline>
</glyph>
<glyph name="afii57690" format="2">
  <advance width="664"/>
  <unicode hex="05EA"/>
  <outline>
    <contour>
      <point x="133.7" y="455.7" type="curve"/>
      <point x="126" y="458.5"/>
      <point x="118.3" y="462.7"/>
      <point x="112" y="468.3" type="curve" smooth="yes"/>
      <point x="84.7002" y="492.8"/>
      <point x="78.4004" y="526.4"/>
      <point x="78.4004" y="557.2" type="curve" smooth="yes"/>
      <point x="78.4004" y="583.1"/>
      <point x="82.5996" y="609"/>
      <point x="85.4004" y="628.6" type="curve" smooth="yes"/>
      <point x="87.5" y="643.3"/>
      <point x="89.5996" y="658"/>
      <point x="90.2998" y="672" type="curve" smooth="yes"/>
      <point x="90.2998" y="674.1"/>
      <point x="90.2998" y="674.8"/>
      <point x="90.2998" y="679" type="curve" smooth="yes"/>
      <point x="90.2998" y="688.1"/>
      <point x="92.4004" y="696.5"/>
      <point x="100.1" y="702.8" type="curve" smooth="yes"/>
      <point x="102.9" y="704.9"/>
      <point x="107.8" y="708.4"/>
      <point x="119.7" y="708.4" type="curve" smooth="yes"/>
      <point x="125.3" y="708.4"/>
      <point x="126" y="708.4"/>
      <point x="127.4" y="708.4" type="curve" smooth="yes"/>
      <point x="139.3" y="708.4"/>
      <point x="151.9" y="709.1"/>
      <point x="165.9" y="709.1" type="curve" smooth="yes"/>
      <point x="184.1" y="709.1" type="line"/>
      <point x="188.3" y="693" type="line" smooth="yes"/>
      <point x="189.7" y="686"/>
      <point x="194.6" y="670.6"/>
      <point x="205.1" y="662.2" type="curve" smooth="yes"/>
      <point x="215.6" y="653.8"/>
      <point x="234.5" y="648.2"/>
      <point x="282.8" y="648.2" type="curve" smooth="yes"/>
      <point x="293.3" y="648.2"/>
      <point x="303.8" y="648.2"/>
      <point x="315" y="648.2" type="curve" smooth="yes"/>
      <point x="355.6" y="648.2"/>
      <point x="398.3" y="647.5"/>
      <point x="441" y="641.2" type="curve" smooth="yes"/>
      <point x="476" y="636.3"/>
      <point x="517.3" y="625.1"/>
      <point x="546" y="594.3" type="curve" smooth="yes"/>
      <point x="560.7" y="578.9"/>
      <point x="569.8" y="557.2"/>
      <point x="574" y="547.4" type="curve" smooth="yes"/>
      <point x="585.2" y="523.6"/>
      <point x="595" y="498.4"/>
      <point x="602" y="471.8" type="curve" smooth="yes"/>
      <point x="612.5" y="430.5"/>
      <point x="617.4" y="388.5"/>
      <point x="617.4" y="346.5" type="curve" smooth="yes"/>
      <point x="617.4" y="274.4"/>
      <point x="602.7" y="203"/>
      <point x="573.3" y="136.5" type="curve" smooth="yes"/>
      <point x="554.4" y="92.4004"/>
      <point x="501.2" y="2.09961"/>
      <point x="414.4" y="2.09961" type="curve" smooth="yes"/>
      <point x="399.7" y="2.09961"/>
      <point x="385" y="4.90039"/>
      <point x="369.6" y="9.7998" type="curve"/>
      <point x="369.6" y="10.5" type="line"/>
      <point x="369.6" y="10.5" type="line"/>
      <point x="363.3" y="14"/>
      <point x="348.6" y="19.5996"/>
      <point x="340.9" y="39.9004" type="curve" smooth="yes"/>
      <point x="335.3" y="53.9004"/>
      <point x="335.3" y="70.7002"/>
      <point x="334.6" y="75.5996" type="curve"/>
      <point x="334.6" y="79.0996"/>
      <point x="334.6" y="81.2002"/>
      <point x="334.6" y="84.7002" type="curve" smooth="yes"/>
      <point x="334.6" y="95.2002"/>
      <point x="338.1" y="104.3"/>
      <point x="346.5" y="111.3" type="curve" smooth="yes"/>
      <point x="375.9" y="135.8"/>
      <point x="403.9" y="140"/>
      <point x="433.3" y="157.5" type="curve" smooth="yes"/>
      <point x="464.1" y="175.7"/>
      <point x="484.4" y="206.5"/>
      <point x="494.2" y="225.4" type="curve" smooth="yes"/>
      <point x="510.3" y="257.6"/>
      <point x="515.2" y="292.6"/>
      <point x="515.2" y="329.7" type="curve" smooth="yes"/>
      <point x="515.2" y="331.1"/>
      <point x="515.2" y="334.6"/>
      <point x="515.2" y="336" type="curve" smooth="yes"/>
      <point x="514.5" y="363.3"/>
      <point x="511" y="385.7"/>
      <point x="494.9" y="402.5" type="curve" smooth="yes"/>
      <point x="464.1" y="436.8"/>
      <point x="416.5" y="441"/>
      <point x="359.8" y="441" type="curve" smooth="yes"/>
      <point x="347.9" y="441"/>
      <point x="335.3" y="441"/>
      <point x="323.4" y="441" type="curve" smooth="yes"/>
      <point x="305.9" y="441"/>
      <point x="289.1" y="443.1"/>
      <point x="275.8" y="443.1" type="curve" smooth="yes"/>
      <point x="269.5" y="443.1"/>
      <point x="265.3" y="443.1"/>
      <point x="262.5" y="442.4" type="curve"/>
      <point x="249.9" y="427.7" type="line" smooth="yes"/>
      <point x="229.6" y="406"/>
      <point x="213.5" y="385"/>
      <point x="210" y="362.6" type="curve" smooth="yes"/>
      <point x="209.3" y="357.7"/>
      <point x="208.6" y="352.8"/>
      <point x="208.6" y="347.2" type="curve" smooth="yes"/>
      <point x="208.6" y="324.1"/>
      <point x="217" y="300.3"/>
      <point x="226.8" y="274.4" type="curve" smooth="yes"/>
      <point x="236.6" y="249.9"/>
      <point x="242.2" y="225.4"/>
      <point x="250.6" y="203.7" type="curve" smooth="yes"/>
      <point x="262.5" y="172.2"/>
      <point x="279.3" y="138.6"/>
      <point x="279.3" y="98" type="curve" smooth="yes"/>
      <point x="279.3" y="93.0996"/>
      <point x="279.3" y="88.2002"/>
      <point x="278.6" y="83.2998" type="curve" smooth="yes"/>
      <point x="273" y="34.2998"/>
      <point x="255.5" y="14"/>
      <point x="242.2" y="2.7998" type="curve" smooth="yes"/>
      <point x="241.5" y="2.09961"/>
      <point x="237.3" y="-1.40039"/>
      <point x="228.2" y="-5.59961" type="curve" smooth="yes"/>
      <point x="226.8" y="-6.2998"/>
      <point x="224.7" y="-7"/>
      <point x="224" y="-7.7002" type="curve"/>
      <point x="213.5" y="-11.2002"/>
      <point x="200.9" y="-13.2998"/>
      <point x="197.4" y="-14" type="curve" smooth="yes"/>
      <point x="166.6" y="-21.7002"/>
      <point x="134.4" y="-26.5996"/>
      <point x="103.6" y="-26.5996" type="curve" smooth="yes"/>
      <point x="100.8" y="-26.5996"/>
      <point x="91.7002" y="-27.2998"/>
      <point x="84.7002" y="-27.2998" type="curve"/>
      <point x="84.7002" y="-27.2998" type="line"/>
      <point x="82.5996" y="-27.2998"/>
      <point x="77.7002" y="-26.5996"/>
      <point x="76.2998" y="-26.5996" type="curve" smooth="yes"/>
      <point x="74.9004" y="-26.5996"/>
      <point x="72.0996" y="-25.9004"/>
      <point x="71.4004" y="-25.9004" type="curve" smooth="yes"/>
      <point x="70.7002" y="-25.9004"/>
      <point x="67.2002" y="-25.2002"/>
      <point x="66.5" y="-24.5" type="curve"/>
      <point x="63.7002" y="-23.7998"/>
      <point x="61.5996" y="-23.0996"/>
      <point x="60.9004" y="-22.4004" type="curve" smooth="yes"/>
      <point x="56" y="-18.9004"/>
      <point x="51.7998" y="-15.4004"/>
      <point x="50.4004" y="-13.2998" type="curve" smooth="yes"/>
      <point x="41.2998" y="-1.40039"/>
      <point x="39.2002" y="14.7002"/>
      <point x="37.7998" y="21" type="curve" smooth="yes"/>
      <point x="35" y="34.2998"/>
      <point x="35" y="47.5996"/>
      <point x="35" y="60.2002" type="curve" smooth="yes"/>
      <point x="35" y="70"/>
      <point x="35" y="79.0996"/>
      <point x="35" y="87.5" type="curve" smooth="yes"/>
      <point x="35" y="93.7998"/>
      <point x="34.2998" y="100.1"/>
      <point x="34.2998" y="108.5" type="curve" smooth="yes"/>
      <point x="34.2998" y="117.6"/>
      <point x="35" y="123.2"/>
      <point x="35.7002" y="126" type="curve" smooth="yes"/>
      <point x="42" y="149.8"/>
      <point x="61.5996" y="164.5"/>
      <point x="84.7002" y="176.4" type="curve" smooth="yes"/>
      <point x="91" y="179.2"/>
      <point x="93.7998" y="180.6"/>
      <point x="96.5996" y="181.3" type="curve"/>
      <point x="96.5996" y="182"/>
      <point x="96.5996" y="182.7"/>
      <point x="96.5996" y="182.7" type="curve" smooth="yes"/>
      <point x="96.5996" y="189"/>
      <point x="94.5" y="200.9"/>
      <point x="94.5" y="208.6" type="curve" smooth="yes"/>
      <point x="93.7998" y="234.5"/>
      <point x="93.7998" y="259.7"/>
      <point x="91" y="283.5" type="curve" smooth="yes"/>
      <point x="89.5996" y="298.9"/>
      <point x="83.2998" y="314.3"/>
      <point x="83.2998" y="334.6" type="curve" smooth="yes"/>
      <point x="83.2998" y="382.2"/>
      <point x="108.5" y="425.6"/>
    </contour>
  </outline>
</glyph>
<glyph name="afii57718" format="2">
  <advance width="626"/>
  <unicode hex="05F2"/>
  <outline>
    <contour>
      <point x="62.2998" y="680.4" type="line"/>
      <point x="147.7" y="690.9" type="line"/>
      <point x="142.1" y="680.4" type="line"/>
      <point x="141.4" y="674.8"/>
      <point x="140.7" y="674.1"/>
      <point x="140.7" y="672.7" type="curve" smooth="yes"/>
      <point x="142.1" y="659.4"/>
      <point x="144.2" y="649.6"/>
      <point x="147" y="644.7" type="curve" smooth="yes"/>
      <point x="165.9" y="615.3"/>
      <point x="214.2" y="605.5"/>
      <point x="252.7" y="586.6" type="curve" smooth="yes"/>
      <point x="276.5" y="574.7"/>
      <point x="299.6" y="560"/>
      <point x="312.2" y="539.7" type="curve"/>
      <point x="311.5" y="545.3"/>
      <point x="311.5" y="550.9"/>
      <point x="311.5" y="556.5" type="curve" smooth="yes"/>
      <point x="311.5" y="592.2"/>
      <point x="328.3" y="628.6"/>
      <point x="335.3" y="645.4" type="curve" smooth="yes"/>
      <point x="340.2" y="656.6"/>
      <point x="348.6" y="672"/>
      <point x="351.4" y="681.8" type="curve"/>
      <point x="352.8" y="683.2" type="line"/>
      <point x="359.1" y="680.4" type="line"/>
      <point x="449.4" y="690.9" type="line"/>
      <point x="443.8" y="680.4" type="line"/>
      <point x="443.1" y="674.8"/>
      <point x="441.7" y="674.1"/>
      <point x="442.4" y="672.7" type="curve"/>
      <point x="443.8" y="659.4"/>
      <point x="445.2" y="649.6"/>
      <point x="448.7" y="644.7" type="curve" smooth="yes"/>
      <point x="467.6" y="615.3"/>
      <point x="514.5" y="606.2"/>
      <point x="551.6" y="586.6" type="curve" smooth="yes"/>
      <point x="578.2" y="571.9"/>
      <point x="604.8" y="552.3"/>
      <point x="611.1" y="524.3" type="curve" smooth="yes"/>
      <point x="612.5" y="518"/>
      <point x="613.2" y="511.7"/>
      <point x="613.2" y="506.1" type="curve" smooth="yes"/>
      <point x="613.2" y="497"/>
      <point x="612.5" y="488.6"/>
      <point x="611.8" y="481.6" type="curve" smooth="yes"/>
      <point x="606.9" y="405.3"/>
      <point x="577.5" y="332.5"/>
      <point x="529.2" y="273.7" type="curve" smooth="yes"/>
      <point x="518.7" y="260.4"/>
      <point x="506.1" y="248.5"/>
      <point x="493.5" y="236.6" type="curve"/>
      <point x="492.1" y="239.4" type="line"/>
      <point x="490" y="239.4" type="line" smooth="yes"/>
      <point x="484.4" y="239.4"/>
      <point x="478.1" y="238.7"/>
      <point x="469" y="238.7" type="curve" smooth="yes"/>
      <point x="464.8" y="238"/>
      <point x="460.6" y="238"/>
      <point x="457.1" y="238" type="curve" smooth="yes"/>
      <point x="452.2" y="238"/>
      <point x="447.3" y="238.7"/>
      <point x="442.4" y="239.4" type="curve"/>
      <point x="442.4" y="239.4" type="line"/>
      <point x="442.4" y="239.4" type="line"/>
      <point x="431.2" y="242.2"/>
      <point x="432.6" y="241.5"/>
      <point x="429.1" y="242.9" type="curve"/>
      <point x="425.6" y="242.2"/>
      <point x="422.8" y="241.5"/>
      <point x="420.7" y="240.8" type="curve"/>
      <point x="419.3" y="240.8" type="line"/>
      <point x="417.9" y="241.5" type="line"/>
      <point x="411.6" y="247.1"/>
      <point x="410.2" y="247.8"/>
      <point x="408.8" y="249.9" type="curve" smooth="yes"/>
      <point x="408.1" y="250.6"/>
      <point x="406" y="252.7"/>
      <point x="405.3" y="253.4" type="curve"/>
      <point x="405.3" y="254.1"/>
      <point x="403.2" y="256.2"/>
      <point x="402.5" y="257.6" type="curve" smooth="yes"/>
      <point x="401.8" y="258.3"/>
      <point x="399.7" y="261.8"/>
      <point x="399.7" y="263.2" type="curve"/>
      <point x="398.3" y="265.3"/>
      <point x="397.6" y="270.2"/>
      <point x="397.6" y="271.6" type="curve" smooth="yes"/>
      <point x="397.6" y="272.3" type="line"/>
      <point x="398.3" y="273" type="line"/>
      <point x="399.7" y="275.8"/>
      <point x="403.2" y="287"/>
      <point x="405.3" y="289.8" type="curve" smooth="yes"/>
      <point x="408.8" y="294"/>
      <point x="412.3" y="296.1"/>
      <point x="413.7" y="296.8" type="curve"/>
      <point x="422.1" y="304.5"/>
      <point x="431.2" y="314.3"/>
      <point x="439.6" y="323.4" type="curve" smooth="yes"/>
      <point x="447.3" y="331.8"/>
      <point x="483" y="370.3"/>
      <point x="483" y="401.1" type="curve" smooth="yes"/>
      <point x="483" y="405.3"/>
      <point x="482.3" y="410.2"/>
      <point x="480.2" y="415.1" type="curve"/>
      <point x="478.8" y="416.5"/>
      <point x="472.5" y="420"/>
      <point x="454.3" y="425.6" type="curve" smooth="yes"/>
      <point x="423.5" y="435.4"/>
      <point x="382.2" y="442.4"/>
      <point x="351.4" y="458.5" type="curve"/>
      <point x="351.4" y="458.5" type="line"/>
      <point x="350.7" y="459.2" type="line" smooth="yes"/>
      <point x="337.4" y="471.1"/>
      <point x="326.9" y="485.1"/>
      <point x="320.6" y="501.2" type="curve"/>
      <point x="320.6" y="494.2"/>
      <point x="319.9" y="487.2"/>
      <point x="319.9" y="481.6" type="curve" smooth="yes"/>
      <point x="313.6" y="405.3"/>
      <point x="280.7" y="332.5"/>
      <point x="228.2" y="273.7" type="curve" smooth="yes"/>
      <point x="217" y="261.1"/>
      <point x="205.1" y="248.5"/>
      <point x="191.8" y="236.6" type="curve"/>
      <point x="190.4" y="239.4" type="line"/>
      <point x="189" y="239.4" type="line" smooth="yes"/>
      <point x="183.4" y="239.4"/>
      <point x="177.1" y="238.7"/>
      <point x="167.3" y="238.7" type="curve" smooth="yes"/>
      <point x="163.1" y="238"/>
      <point x="158.9" y="238"/>
      <point x="155.4" y="238" type="curve" smooth="yes"/>
      <point x="150.5" y="238"/>
      <point x="145.6" y="238.7"/>
      <point x="141.4" y="239.4" type="curve"/>
      <point x="140.7" y="239.4" type="line"/>
      <point x="140.7" y="239.4" type="line"/>
      <point x="130.2" y="242.2"/>
      <point x="130.9" y="241.5"/>
      <point x="128.1" y="242.9" type="curve"/>
      <point x="124.6" y="242.2"/>
      <point x="121.1" y="241.5"/>
      <point x="119.7" y="240.8" type="curve"/>
      <point x="117.6" y="240.8" type="line"/>
      <point x="116.2" y="241.5" type="line"/>
      <point x="109.9" y="247.1"/>
      <point x="109.2" y="247.8"/>
      <point x="107.1" y="249.9" type="curve"/>
      <point x="107.1" y="250.6"/>
      <point x="105" y="252.7"/>
      <point x="104.3" y="253.4" type="curve" smooth="yes"/>
      <point x="103.6" y="254.1"/>
      <point x="101.5" y="256.9"/>
      <point x="101.5" y="257.6" type="curve"/>
      <point x="100.8" y="258.3"/>
      <point x="98.7002" y="261.8"/>
      <point x="98.7002" y="263.2" type="curve"/>
      <point x="98" y="266"/>
      <point x="97.2998" y="270.2"/>
      <point x="97.2998" y="271.6" type="curve" smooth="yes"/>
      <point x="97.2998" y="272.3" type="line"/>
      <point x="97.2998" y="273" type="line"/>
      <point x="98" y="275.1"/>
      <point x="101.5" y="287"/>
      <point x="104.3" y="289.8" type="curve" smooth="yes"/>
      <point x="107.8" y="294"/>
      <point x="110.6" y="296.1"/>
      <point x="112" y="296.8" type="curve"/>
      <point x="120.4" y="304.5"/>
      <point x="129.5" y="314.3"/>
      <point x="137.9" y="323.4" type="curve" smooth="yes"/>
      <point x="145.6" y="331.8"/>
      <point x="182" y="370.3"/>
      <point x="182" y="401.1" type="curve" smooth="yes"/>
      <point x="182" y="405.3"/>
      <point x="181.3" y="410.2"/>
      <point x="179.2" y="415.1" type="curve"/>
      <point x="177.1" y="416.5"/>
      <point x="171.5" y="420"/>
      <point x="152.6" y="425.6" type="curve" smooth="yes"/>
      <point x="121.8" y="435.4"/>
      <point x="83.2998" y="442.4"/>
      <point x="55.2998" y="458.5" type="curve"/>
      <point x="55.2998" y="458.5" type="line"/>
      <point x="55.2998" y="459.2" type="line"/>
      <point x="30.0996" y="483.7"/>
      <point x="19.5996" y="518"/>
      <point x="19.5996" y="556.5" type="curve" smooth="yes"/>
      <point x="19.5996" y="592.2"/>
      <point x="34.2998" y="628.6"/>
      <point x="41.2998" y="645.4" type="curve" smooth="yes"/>
      <point x="45.5" y="656.6"/>
      <point x="52.5" y="672"/>
      <point x="55.2998" y="681.8" type="curve"/>
      <point x="56.7002" y="683.2" type="line"/>
    </contour>
  </outline>
</glyph>
<glyph name="uniFB1D" format="2">
  <advance width="270"/>
  <unicode hex="FB1D"/>
  <outline>
    <contour>
      <point x="37.7998" y="700.7" type="line"/>
      <point x="121.8" y="711.9" type="line"/>
      <point x="118.3" y="684.6" type="line" smooth="yes"/>
      <point x="117.6" y="678.3"/>
      <point x="116.9" y="677.6"/>
      <point x="116.2" y="676.2" type="curve"/>
      <point x="118.3" y="666.4"/>
      <point x="119.7" y="659.4"/>
      <point x="122.5" y="655.9" type="curve" smooth="yes"/>
      <point x="139.3" y="630.7"/>
      <point x="182" y="624.4"/>
      <point x="217" y="604.8" type="curve" smooth="yes"/>
      <point x="245" y="589.4"/>
      <point x="270.2" y="563.5"/>
      <point x="277.2" y="527.8" type="curve" smooth="yes"/>
      <point x="278.6" y="520.1"/>
      <point x="278.6" y="513.1"/>
      <point x="278.6" y="506.1" type="curve" smooth="yes"/>
      <point x="278.6" y="497.7"/>
      <point x="277.9" y="490"/>
      <point x="277.2" y="483" type="curve" smooth="yes"/>
      <point x="272.3" y="406"/>
      <point x="242.9" y="333.2"/>
      <point x="195.3" y="273.7" type="curve" smooth="yes"/>
      <point x="185.5" y="261.1"/>
      <point x="174.3" y="248.5"/>
      <point x="162.4" y="236.6" type="curve" smooth="yes"/>
      <point x="157.5" y="231.7"/>
      <point x="151.2" y="225.4"/>
      <point x="141.4" y="222.6" type="curve" smooth="yes"/>
      <point x="137.2" y="221.2"/>
      <point x="133" y="220.5"/>
      <point x="129.5" y="220.5" type="curve" smooth="yes"/>
      <point x="124.6" y="220.5"/>
      <point x="120.4" y="221.2"/>
      <point x="116.2" y="223.3" type="curve"/>
      <point x="115.5" y="223.3" type="line"/>
      <point x="115.5" y="223.3" type="line"/>
      <point x="106.4" y="228.9"/>
      <point x="107.1" y="228.2"/>
      <point x="105.7" y="228.9" type="curve"/>
      <point x="105.7" y="229.6" type="line"/>
      <point x="105" y="229.6"/>
      <point x="104.3" y="230.3"/>
      <point x="102.9" y="231.7" type="curve" smooth="yes"/>
      <point x="98.7002" y="235.9"/>
      <point x="95.9004" y="240.1"/>
      <point x="93.7998" y="242.2" type="curve" smooth="yes"/>
      <point x="88.2002" y="247.1"/>
      <point x="87.5" y="248.5"/>
      <point x="86.0996" y="249.9" type="curve" smooth="yes"/>
      <point x="85.4004" y="250.6"/>
      <point x="83.2998" y="252.7"/>
      <point x="83.2998" y="253.4" type="curve"/>
      <point x="82.5996" y="254.1"/>
      <point x="80.5" y="256.9"/>
      <point x="80.5" y="257.6" type="curve"/>
      <point x="79.7998" y="258.3"/>
      <point x="77.7002" y="261.8"/>
      <point x="77.7002" y="263.2" type="curve"/>
      <point x="77" y="266"/>
      <point x="76.2998" y="270.2"/>
      <point x="76.2998" y="271.6" type="curve" smooth="yes"/>
      <point x="76.2998" y="272.3" type="line"/>
      <point x="76.2998" y="273" type="line"/>
      <point x="77" y="275.1"/>
      <point x="80.5" y="287"/>
      <point x="82.5996" y="289.8" type="curve"/>
      <point x="86.0996" y="293.3"/>
      <point x="88.9004" y="296.1"/>
      <point x="90.2998" y="296.8" type="curve"/>
      <point x="98" y="304.5"/>
      <point x="105.7" y="313.6"/>
      <point x="113.4" y="323.4" type="curve" smooth="yes"/>
      <point x="120.4" y="331.8"/>
      <point x="152.6" y="370.3"/>
      <point x="152.6" y="401.1" type="curve" smooth="yes"/>
      <point x="152.6" y="406.7"/>
      <point x="151.9" y="410.9"/>
      <point x="150.5" y="415.1" type="curve"/>
      <point x="149.1" y="415.8"/>
      <point x="144.9" y="418.6"/>
      <point x="126.7" y="426.3" type="curve" smooth="yes"/>
      <point x="98.7002" y="438.2"/>
      <point x="61.5996" y="449.4"/>
      <point x="34.2998" y="472.5" type="curve" smooth="yes"/>
      <point x="9.09961" y="493.5"/>
      <point x="-1.40039" y="522.9"/>
      <point x="-1.40039" y="556.5" type="curve" smooth="yes"/>
      <point x="-1.40039" y="595"/>
      <point x="13.2998" y="634.9"/>
      <point x="20.2998" y="653.1" type="curve" smooth="yes"/>
      <point x="23.7998" y="663.6"/>
      <point x="31.5" y="678.3"/>
      <point x="34.2998" y="687.4" type="curve" smooth="yes"/>
    </contour>
    <contour>
      <point x="126.7" y="170.1" type="curve" smooth="yes"/>
      <point x="126.7" y="169.4" type="line" smooth="yes"/>
      <point x="126.7" y="155.4"/>
      <point x="123.9" y="146.3"/>
      <point x="115.5" y="135.1" type="curve" smooth="yes"/>
      <point x="112" y="130.2"/>
      <point x="107.1" y="126"/>
      <point x="101.5" y="121.8" type="curve" smooth="yes"/>
      <point x="95.2002" y="117.6"/>
      <point x="86.7998" y="114.1"/>
      <point x="76.2998" y="112" type="curve" smooth="yes"/>
      <point x="73.5" y="111.3"/>
      <point x="70.7002" y="111.3"/>
      <point x="67.2002" y="111.3" type="curve" smooth="yes"/>
      <point x="67.2002" y="111.3"/>
      <point x="66.5" y="111.3"/>
      <point x="65.7998" y="111.3" type="curve" smooth="yes"/>
      <point x="56.7002" y="112"/>
      <point x="39.2002" y="112"/>
      <point x="23.0996" y="131.6" type="curve" smooth="yes"/>
      <point x="14" y="142.8"/>
      <point x="9.09961" y="156.8"/>
      <point x="9.09961" y="170.8" type="curve" smooth="yes"/>
      <point x="9.09961" y="172.9" type="line" smooth="yes"/>
      <point x="9.09961" y="180.6"/>
      <point x="9.09961" y="180.6"/>
      <point x="10.5" y="186.2" type="curve" smooth="yes"/>
      <point x="13.2998" y="201.6"/>
      <point x="24.5" y="224"/>
      <point x="55.2998" y="228.9" type="curve" smooth="yes"/>
      <point x="59.5" y="229.6"/>
      <point x="63" y="230.3"/>
      <point x="66.5" y="230.3" type="curve" smooth="yes"/>
      <point x="102.2" y="230.3"/>
      <point x="126.7" y="200.9"/>
    </contour>
  </outline>
</glyph>
